<svg xmlns="http://www.w3.org/2000/svg" width="184" height="118.619" viewBox="0 0 184 118.619">
  <g id="Group_248" data-name="Group 248" transform="translate(-1218.616 -1405.506)">
    <path id="Path_452" data-name="Path 452" d="M1256.878,1475.878q0-12.831-3.967-19.948-2.917-5.249-9.8-5.25-6.534,0-10.207,6.708t-3.674,18.606q0,11.783,3.908,18.372t10.907,6.591q5.366,0,7.933-4.083,4.9-7.7,4.9-21m10.616.116q0,11.315-6.882,18.956a22.137,22.137,0,0,1-17.148,7.641,23.231,23.231,0,0,1-17.732-7.641q-7.117-7.639-7.116-18.956,0-11.665,6.941-19.365a22.355,22.355,0,0,1,17.323-7.7,22.771,22.771,0,0,1,17.556,7.757Q1267.492,1464.448,1267.494,1475.995Z" transform="translate(0 -17.091)" fill="#8fcb5d" fill-rule="evenodd"/>
    <path id="Path_453" data-name="Path 453" d="M1334.78,1527.268q-7.339,5.873-18.058,5.874-8.466,0-13.618-4.388a14.5,14.5,0,0,1-5.148-11.606q0-9.627,7.2-13.446a77.474,77.474,0,0,0,11.5-1.275,77.661,77.661,0,0,1,11.641-1.274q13.827,0,13.827,11.748,0,8.492-7.338,14.366m-14.884-89.1q11.321,0,11.323,20.523,0,20.1-10.616,20.1-11.751,0-11.748-21.515Q1308.855,1438.168,1319.9,1438.167Zm23.283,57.183q-4.882-4.527-13.517-4.529a63.629,63.629,0,0,0-10.616.991,73.652,73.652,0,0,1-10.9,1.274q-8.917,0-8.917-7.36a7.3,7.3,0,0,1,2.406-5.237,7.445,7.445,0,0,1,5.379-2.406,11.029,11.029,0,0,1,2.406.566q6.794,2.123,9.341,2.123a22.737,22.737,0,0,0,16.561-6.511,21.671,21.671,0,0,0,6.653-16.135,45.657,45.657,0,0,0-.708-6.652q-.71-4.386-.707-4.813a5.454,5.454,0,0,1,1.557-3.609,4.4,4.4,0,0,1,3.255-1.769q1.981,0,1.982,1.84a6.146,6.146,0,0,1-.425,1.911,6.072,6.072,0,0,0-.426,1.77,3.331,3.331,0,0,0,.177,1.058c.112-.109.222-.219.339-.326a17.625,17.625,0,0,1,10.441-4.182q-.708-5.884-7.984-5.891-6.654,0-11.181,6.652a30.4,30.4,0,0,0-8.422-6.228,24.057,24.057,0,0,0-9.412-1.557q-10.616,0-17.126,6.157t-6.511,16.348a21.2,21.2,0,0,0,8.492,17.551q-13.024,3.964-13.022,14.155,0,8.21,10.05,12.173-6.794,1.556-9.909,3.538-6.229,4.1-6.228,12.173a15.149,15.149,0,0,0,6.724,13.092q6.721,4.74,18.471,4.741,15.852,0,26.255-8.067t10.4-20.241Q1348.062,1499.88,1343.179,1495.35Z" transform="translate(-26.602 -12.13)" fill="#fff" fill-rule="evenodd"/>
    <path id="Path_454" data-name="Path 454" d="M1410.5,1557.767a4.053,4.053,0,0,1-4.254,3.165c-3.2,0-4.81-2.425-4.81-5.448,0-2.9,1.614-5.531,4.864-5.531a3.886,3.886,0,0,1,4.2,3.225h-1.418a2.7,2.7,0,0,0-2.844-2.043c-2.358,0-3.322,2.144-3.322,4.307,0,2.1.916,4.308,3.384,4.308a2.745,2.745,0,0,0,2.772-1.983Z" transform="translate(-71.953 -56.85)" fill="#fff" fill-rule="evenodd"/>
    <path id="Path_455" data-name="Path 455" d="M1419.434,1552.723h1.345v7.791h-1.345Zm0-3.49h1.345v1.681h-1.345Z" transform="translate(-79.036 -56.566)" fill="#fff" fill-rule="evenodd"/>
    <path id="Path_456" data-name="Path 456" d="M1431.676,1560.508c0,.758.01,1.81.016,2.271h-1.309a11.612,11.612,0,0,1-.052-1.169,2.317,2.317,0,0,1-2.36,1.354c-1.313,0-2.575-.654-2.575-2.853v-5.125h1.335v4.837c0,1.024.321,1.969,1.613,1.969,1.433,0,1.986-.795,1.986-2.741v-4.064h1.345Z" transform="translate(-81.382 -58.831)" fill="#fff" fill-rule="evenodd"/>
    <path id="Path_457" data-name="Path 457" d="M1440.071,1556.658c0,1.882.9,2.9,2.119,2.9,1.821,0,2.222-1.344,2.222-3.053,0-1.732-.363-2.826-2.116-2.826-1.374,0-2.224,1.089-2.224,2.979m5.633-7.425v9.079c0,.733,0,1.45.016,2.2h-1.293c-.036-.206-.062-.8-.068-1.106a2.443,2.443,0,0,1-2.451,1.291c-2,0-3.235-1.624-3.235-4,0-2.4,1.329-4.161,3.484-4.161,1.379,0,1.993.557,2.2.995v-4.3Z" transform="translate(-86.608 -56.566)" fill="#fff" fill-rule="evenodd"/>
    <path id="Path_458" data-name="Path 458" d="M1458.046,1558.861h-1.261c-1.554,0-2.385.429-2.385,1.528a1.37,1.37,0,0,0,1.517,1.4c1.876,0,2.129-1.263,2.129-2.678Zm1.313,2.1a12.173,12.173,0,0,0,.107,1.7h-1.287a4.3,4.3,0,0,1-.127-1.02,2.439,2.439,0,0,1-2.406,1.2,2.357,2.357,0,0,1-2.622-2.381c0-1.739,1.366-2.535,3.682-2.535h1.33v-.665c0-.686-.221-1.525-1.679-1.525-1.3,0-1.521.646-1.663,1.254h-1.3c.1-1.074.767-2.315,3.007-2.309,1.9,0,2.958.78,2.958,2.552Z" transform="translate(-92.256 -58.712)" fill="#fff" fill-rule="evenodd"/>
    <path id="Path_459" data-name="Path 459" d="M1467.772,1556.658c0,1.882.9,2.9,2.118,2.9,1.822,0,2.222-1.344,2.222-3.053,0-1.732-.361-2.826-2.116-2.826-1.374,0-2.224,1.089-2.224,2.979m5.634-7.425v9.079c0,.733,0,1.45.015,2.2h-1.293a10.937,10.937,0,0,1-.067-1.106,2.445,2.445,0,0,1-2.451,1.291c-2,0-3.234-1.624-3.234-4,0-2.4,1.328-4.161,3.483-4.161,1.379,0,1.993.557,2.2.995v-4.3Z" transform="translate(-97.51 -56.566)" fill="#fff" fill-rule="evenodd"/>
    <path id="Path_460" data-name="Path 460" d="M1403.484,1579.941c0,2.414-.952,3.274-2.74,3.274a5.347,5.347,0,0,1-1.129-.109v-1.182a6.569,6.569,0,0,0,.992.071c1.286,0,1.46-.953,1.46-2v-7.621h1.417Z" transform="translate(-71.235 -65.672)" fill="#fff" fill-rule="evenodd"/>
    <path id="Path_461" data-name="Path 461" d="M1413.778,1581.025h-1.261c-1.553,0-2.385.429-2.385,1.528a1.37,1.37,0,0,0,1.517,1.4c1.876,0,2.128-1.264,2.128-2.679Zm1.314,2.1a12.16,12.16,0,0,0,.107,1.7h-1.288a4.315,4.315,0,0,1-.127-1.02,2.439,2.439,0,0,1-2.406,1.2,2.357,2.357,0,0,1-2.622-2.382c0-1.739,1.366-2.534,3.681-2.534h1.331v-.664c0-.687-.22-1.526-1.678-1.526-1.3,0-1.521.646-1.663,1.254h-1.3c.1-1.073.767-2.315,3.007-2.309,1.9.005,2.959.78,2.959,2.552Z" transform="translate(-74.833 -67.434)" fill="#fff" fill-rule="evenodd"/>
    <path id="Path_462" data-name="Path 462" d="M1423.029,1579.148c0-1.09-.01-1.7-.015-2.117h1.318c.021.218.042.83.042,1.591a2.754,2.754,0,0,1,2.625-1.775v1.34c-1.6.048-2.625.883-2.625,2.853v3.783h-1.345Z" transform="translate(-80.445 -67.434)" fill="#fff" fill-rule="evenodd"/>
    <path id="Path_463" data-name="Path 463" d="M1432.246,1578.822c0,1.882.9,2.9,2.119,2.9,1.821,0,2.222-1.344,2.222-3.053,0-1.732-.362-2.825-2.116-2.825-1.374,0-2.225,1.089-2.225,2.979m5.634-7.425v9.079c0,.733,0,1.451.016,2.2H1436.6c-.036-.206-.062-.8-.067-1.105a2.444,2.444,0,0,1-2.451,1.29c-2,0-3.235-1.623-3.235-4,0-2.4,1.329-4.162,3.484-4.162,1.378,0,1.993.557,2.2.995v-4.3Z" transform="translate(-83.528 -65.289)" fill="#fff" fill-rule="evenodd"/>
    <path id="Path_464" data-name="Path 464" d="M1446.223,1574.786h1.345v7.792h-1.345Zm3.619-3.643-2.355,2.358h-1.271l1.97-2.358Z" transform="translate(-89.576 -65.189)" fill="#fff" fill-rule="evenodd"/>
    <path id="Path_465" data-name="Path 465" d="M1452.232,1578.994c0-.676,0-1.359-.015-1.963h1.307c.037.229.057,1.048.052,1.28a2.456,2.456,0,0,1,2.454-1.464c1.46,0,2.6.893,2.6,2.965v5.011h-1.345v-4.839c0-1.177-.46-1.97-1.65-1.97-1.469,0-2.062,1.118-2.062,2.684v4.125h-1.344Z" transform="translate(-91.938 -67.434)" fill="#fff" fill-rule="evenodd"/>
    <path id="Path_466" data-name="Path 466" d="M1406.913,1483.577v-8.516q-8.624,1.985-12.362,5.192a10.731,10.731,0,0,0-3.736,8.574,8.865,8.865,0,0,0,2.127,6.124,6.85,6.85,0,0,0,5.347,2.391q4.942,0,7.932-5.6.689-1.282.691-8.165m20.531,12.365q0,1.986-4.122,4.141a17.116,17.116,0,0,1-7.948,2.158q-8.011,0-8.357-8.282-4.41,8.633-13.694,8.633a11.733,11.733,0,0,1-8.24-2.975,9.889,9.889,0,0,1-3.25-7.641q0-9.563,11.443-15.164,3.929-1.865,13.637-3.733v-2.916q0-10.264-1.05-13.532-1.868-5.949-8.4-5.95a10.5,10.5,0,0,0-6.825,2.217,6.9,6.9,0,0,0-2.742,5.6c0,.624.474.933,1.426.933a3.289,3.289,0,0,1,2.566,1.4,4.853,4.853,0,0,1,1.141,3.15q0,5.135-5.08,5.132a5.809,5.809,0,0,1-4.387-1.808,6.385,6.385,0,0,1-1.732-4.608,12.406,12.406,0,0,1,4.317-9.449q4.781-4.314,13.3-4.317,12.831,0,15.748,7,1.049,2.684,1.05,10.615v21.815q0,5.365.117,6.3.581,4.2,3.382,4.2a6.9,6.9,0,0,0,5.366-2.334q1.165-1.282,1.75-1.283T1427.444,1495.942Z" transform="translate(-64.237 -17.091)" fill="#8fcb5d" fill-rule="evenodd"/>
    <path id="Path_467" data-name="Path 467" d="M1406.913,1483.577v-8.516q-8.624,1.985-12.362,5.192a10.731,10.731,0,0,0-3.736,8.574,8.865,8.865,0,0,0,2.127,6.124,6.85,6.85,0,0,0,5.347,2.391q4.942,0,7.932-5.6.689-1.282.691-8.165m20.531,12.365q0,1.986-4.122,4.141a17.116,17.116,0,0,1-7.948,2.158q-8.011,0-8.357-8.282-4.41,8.633-13.694,8.633a11.733,11.733,0,0,1-8.24-2.975,9.889,9.889,0,0,1-3.25-7.641q0-9.563,11.443-15.164,3.929-1.865,13.637-3.733v-2.916q0-10.264-1.05-13.532-1.868-5.949-8.4-5.95a10.5,10.5,0,0,0-6.825,2.217,6.9,6.9,0,0,0-2.742,5.6c0,.624.474.933,1.426.933a3.289,3.289,0,0,1,2.566,1.4,4.853,4.853,0,0,1,1.141,3.15q0,5.135-5.08,5.132a5.809,5.809,0,0,1-4.387-1.808,6.385,6.385,0,0,1-1.732-4.608,12.406,12.406,0,0,1,4.317-9.449q4.781-4.314,13.3-4.317,12.831,0,15.748,7,1.049,2.684,1.05,10.615v21.815q0,5.365.117,6.3.581,4.2,3.382,4.2a6.9,6.9,0,0,0,5.366-2.334q1.165-1.282,1.75-1.283T1427.444,1495.942Z" transform="translate(-64.237 -17.091)" fill="#8fcb5d" fill-rule="evenodd"/>
    <path id="Path_468" data-name="Path 468" d="M1441.948,1405.59c.005.237.021.136.124.29-.162,0-.1-.011-.207.042.1.152.094.038.041.166a.308.308,0,0,1-.283-.048c-.138-.082-.1-.119-.255-.16v.208c-.1-.042-.087-.022-.207.041l.029.053c.055.141-.013.092-.029.279h.207c-.013.153-.014.153-.166.166-.01-.129,0-.078-.041-.166l-.269-.012c-.058-.09-.05-.118-.237.007-.215.144-.343.089-.614.089.017.2.067.142.166.29-.245.058-.206.138-.3.322l-.073.341c.414-.034.225.042.333.042.152,0,.184-.124.331-.042-.042.106-.159.067-.207.249a2.14,2.14,0,0,0-.954.124c.053.2.125.18.125.456-.762.366-1.98-.3-2.572.581h.166c-.059.089-.131.13-.171.2-.07.119-.025.19-.159.26s-.544-.047-.79-.047c-.081.121-.084.056-.124.207a.893.893,0,0,1,.248.042.637.637,0,0,0,0,.374,2.829,2.829,0,0,0-.7.539c.144.038.128.022.166.166-.347.081-.448.346-.581.622h.332a.61.61,0,0,0-.083.207.735.735,0,0,0,.5.124.475.475,0,0,0,.083.332.58.58,0,0,0-.332.332.6.6,0,0,0-.7-.042c.1.133.069.034.165.166-.135.2-.429.228-.456.539a.693.693,0,0,1,.5,0,1.725,1.725,0,0,0,.042.5h.332a.425.425,0,0,1-.166.291c.029-.132.042-.065,0-.166a.3.3,0,0,0-.331.207c-.154-.041-.053-.041-.208-.083l-.115.133a.453.453,0,0,0-.382-.05c.043.164.153.189.249.332a.334.334,0,0,0-.219.071c-.137.1-.12.258-.193.387-.287.5.084.326.247.288v.124a1.769,1.769,0,0,0,.456-.124c-.068.189,0,0-.084.123-.259.375.033.194-.341.4-.074.042-.211.207-.17.293s.226.008.389.008c-.087.13-.327.471,0,.5a1.248,1.248,0,0,0,0,.2c.041.168.034.1.12.129-.065.1-.135.131-.131.218l.007.055c.008.1-.182.067-.238.041-.316-.146-.09.208-.168.355-.062.118-.114.045-.133.284-.209,0-.169,0-.291.083a1.283,1.283,0,0,0-.291-.663c-.118.079-.15.149-.166.332h-.083c-.046-.17-.165-.207-.332-.207-.055.115-.041.08-.041.248-.178.015-.075-.005-.207.084-.134-.2-.227-.076-.249-.332a1.987,1.987,0,0,0-.332.042.509.509,0,0,0-.5-.29v.166c-.509,0-.43-.391-.851-.443-.125-.016-.07-.053-.113.036-.031.066.035.043.01.117-.059.168-.164.168-.232.349-.18.475-.471.19-1.136.19-.091.136-.108.058-.124.249.207,0,.168,0,.29.083-.069.256-.15.13,0,.414-.228.154-.8.435-.87.706.169.013.169.021.207.166a.994.994,0,0,0-.705.788.7.7,0,0,1,.374-.042c-.044.191-.152.237.021.353a.966.966,0,0,0,.518.1,1.263,1.263,0,0,0,.083.414.464.464,0,0,0-.372.373c-.266-.071-.44-.33-.87-.041.13.18.29.148.043.333-.186.141-.394.214-.417.5.171-.014.093-.042.249-.042.208,0,.185.037.372.042a1.453,1.453,0,0,0,.042.663,1.312,1.312,0,0,1,.415-.042,2.107,2.107,0,0,0-.124.332c.3.07.859.207.4.528a.68.68,0,0,0-.278.467c-.139-.037-.1-.044-.207-.125a3.5,3.5,0,0,0-.455-.208c-.15-.081-.036-.1-.25-.123-.118.51.139.631.333,1h-.374a.412.412,0,0,0,.189.35l.206.087a.417.417,0,0,0,.226-.022l.018.6c.071.15.157.18.277.268.187.138-.072.1.149.3a.542.542,0,0,0,.179.112c-.24.359-.388.278-.691.153a1.221,1.221,0,0,0-.47-.07c-.121.23-.052.206-.29.332.057.078.09.07.124.166-.047.053.007-.027-.054.07-.02.031-.042.076-.058.109a1.962,1.962,0,0,0-.09.2,3.524,3.524,0,0,0-.13.492.652.652,0,0,0-.5-.042c.1.374.124-.033.124.788-.353.009-.312.174-.466.363-.166.2-.313.189-.321.549.221,0,.232-.037.415-.041a1.987,1.987,0,0,0-.042.332.45.45,0,0,1,.249-.083,1.075,1.075,0,0,1-.083.58,1.764,1.764,0,0,1,.332-.082,1.432,1.432,0,0,0-.166.788c.267-.062.235-.355.456-.415,0,.169-.013.133.042.249.532-.124.166,0,.166.581a5.148,5.148,0,0,1,1-.042l-.05.413a1.226,1.226,0,0,0,.656-.18c.172-.118.263-.286.431-.4-.055.234-.1.224-.041.455.161-.043.155-.116.29-.207l-.041.457h-.249a1.415,1.415,0,0,1,.083.29c-.125.033-.091,0-.124.124-.311,0-.35-.033-.565.1-.289.176-.243.181-.159.253a11.231,11.231,0,0,1,6.026,5.965l.011.029a17.315,17.315,0,0,1,.88,4.385q.242,2.449.271,5.854l.047,0a.842.842,0,0,1-.045.2c0,.233,0,.47,0,.709v.89l.293-.219.046.164c.249-.019.453-.221.659-.329a2.53,2.53,0,0,0,.083.372c.263-.005.23-.125.415-.249l.211.2c.5.386.369-.086.369-.2.247.166.342.374.5.416a1.969,1.969,0,0,0,.042-.83h.166a.642.642,0,0,0-.415-.622.6.6,0,0,0,.083-.207c.168.046.09.055.224.15a2.783,2.783,0,0,0,.274.141c.127-.093.067.027.083-.166a3.591,3.591,0,0,0,.38.324l.289.209c.063.063.021.054.118.089.116-.241.078-.5.207-.747l.457.042c0-.153.031-.145.027-.244a2.165,2.165,0,0,1-.027-.254c.3,0,.176-.084.415.042,0,.172-.041.158-.041.249,0,.179.087.232.124.372.195-.052.219-.276.456-.331,0,0,1.758-.489,1.907-1.452s.047-.219.083-.374c-.122-.058-.2-.04-.249-.165.216-.179.517.153.665.165.016-.2.067-.142.165-.289a3.239,3.239,0,0,0-.207-.332c.227.053.142.087.249.29.132-.1.033-.069.166-.166a1.509,1.509,0,0,0,.663.083c-.073-.138-.031-.117-.166-.207.1-.134.207.173.207-.29a.466.466,0,0,1,.332,0c0,.358-.119.318.041.622l.343-.283c.159-.142.258-.044.278-.3h.084c.047.2.147.331.374.331.028-.058.033-.018.029-.087-.005-.085,0-.031-.029-.078l.083-.021.009.009a.462.462,0,0,0,.436.076c.107-.024.058.031.094-.105.115.031.47.252.219-.09a.974.974,0,0,0-.426-.324v-.166c.154-.035.116-.068.29-.083-.016-.191-.033-.113-.124-.249l.29-.083c-.022-.264-.13-.312-.314-.432-.071-.047-.075-.062-.142-.107-.284.007-.3.106-.58.042a.837.837,0,0,1,.041-.29c.332-.16.242,0,.218-.342-.01-.155.016-.065.03-.24-.106-.07-.13-.07-.166-.207.233-.062.371-.334.746-.084.128-.093.067.027.084-.166a.61.61,0,0,1,.154.095c.148.119.237.189.3-.053h.083c.011.135.021.163.123.21.164.08.052-.025.245.049.255.1.123-.019.2-.233l.056-.109a.458.458,0,0,0,.249.083.9.9,0,0,0,.042-.207c.195.143.048.246.415.332,0,.249,0,.439.249.5-.034.144-.1.283.083.332a1.123,1.123,0,0,0-.207.457c.067.03.021.008.082.022l.066.013s.013,0,.019.005a1.858,1.858,0,0,0,.124.5c.146-.039.094-.016.166-.124.01,0,.022,0,.027.015l.055.029c.078.033-.086.017.126.04a.588.588,0,0,0,.116-.216c.04-.114-.011-.02.044-.121.024-.043.053-.064.089-.118a1.7,1.7,0,0,0,.5.124c.01.118.065.622.234.486,0,0,.014-.016.019-.021s.015-.02.019-.024.012-.018.019-.026c.061.26.151.3.207.539.147-.039.065-.029.158-.1.136-.1.13.09.243-.078a.31.31,0,0,0,.055-.2c.235.113.249-.088.249-.332h.083c0,.249-.026.477.249.332.016.192-.044.072.082.166.008-.007.021-.026.023-.018s.019-.015.024-.018l.149-.1a1.7,1.7,0,0,1,.177-.154c.121.08.056.083.208.124.053-.233.058-.154.229-.268.2-.135.065-.105.393-.105-.02-.236-.063-.054-.083-.29.133.048.129.161.248.249.112-.083.125-.18.125-.374.1.067.043.052.166.084.045-.193,1.583-.544,1.741-.58v.166c.152-.013.326-.173.355-.156l.139.024.023,0c.006,0,.1.171.105-.161h.166l.082-.166c.088.243.177.083.208.083.094,0,.048.014.166.041-.018-.215.017-.4-.207-.456v-.083c.135-.036.028.012.135-.071.16-.124.232-.179.237.113.215-.018.3-.176.423-.009.061.084.007.048-.008.215l.166.249c.039-.027.07-.057.093-.072l.321-.178a.231.231,0,0,0,.208.207v-.166l.119.089c0-.337.019-.127.1-.288.06-.125-.069-.13.115-.091-.034-.127-.025-.116-.148-.182l.273-.107c.179.014.084,0,.19.058a.5.5,0,0,1,.051.032l.183.192c.095.067.07-.042.116.132h.082c.038-.14.246-.206.44-.389l.182-.109c0,.179-.075.665.145.528.143-.09.023-.1.228-.113,0,0,1.4-1.31,1.783-1.161.439.17.291-.049.519-.112l.1-.054.089.119c.148-.036.047-.037.2-.078.047.177.122.116.332.166.05-.107.029-.081,0-.207.18-.038.048-.017.249,0,0-.219,0-.062.041-.124.046.172.065.113.168.2.084.075.049.048.085.163a1.516,1.516,0,0,1,.147.394c.014.175-.051.112-.068.316.13.052.047-.034.113.136a1.384,1.384,0,0,1,.053.2,1.269,1.269,0,0,0,.136-.048c.134-.011.107.1.2-.112l.08-.172a.471.471,0,0,0,.332.083c.01.116.041.374.136.335.05-.02,0,0,.071-.045a5.723,5.723,0,0,0,.959.133c.164-.031.662-.38.617-.465.114.041.086,0,.124.166.172-.046.109-.153.29-.249a1.412,1.412,0,0,1-.083-.331c0-.133.072-.073,0-.21-.048-.1-.073-.1-.171-.122.09-.124.113-.034.166-.166.3.07.355.168.249-.29.056-.029.154-.166.207-.166.144,0,.62.3.643.081a.448.448,0,0,1-.015-.2c0-.017.023.019.036-.13.241.02.156.126.337.2.153.067.183-.039.409-.039.159,0,.015-.013.124.041-.063.239-.249.18-.249.581a2.241,2.241,0,0,0,.291-.042c-.006.255-.087.432.14.271.136-.1-.046.036.068-.063.143.038.11.082.166.082.119,0,.112-.082.374-.082.033.124,0,.091.124.124-.062.235-.144.072-.166.332h.332a1.629,1.629,0,0,0-.124.5c.232,0,.3-.083.415-.083.155,0,.078.027.249.041-.013.163-.037.148-.1.279-.238.515.266.069.381.121s-.03.25-.035.429h.166c-.155.293-.332.2-.332.622,0,.213.142.045.332.041-.092.395-.029.237.041.5h.124c.023-.1.2.426.166.829l.248.048c-.112.163-.159.073-.164.325.173.014.448.068.622.082a1,1,0,0,0-.041.208c.273,0,.536-.26.574.038a.955.955,0,0,0,.089.418c.118-.079.183-.23.29-.332.357.1.135.216.622-.041.029.121-.005.06.083.124a.6.6,0,0,1,.207-.083c-.1.183-.115.27.083.414.043-.108.1-.07.231-.1a.482.482,0,0,0,.225-.106,1.015,1.015,0,0,0,.58.207v-.373a.453.453,0,0,0,.291.082,2.039,2.039,0,0,0,.042-.332c.171-.095.154.006.085-.3-.047-.209-.021-.03.011-.144.072-.251-.067-.329.152-.387a.952.952,0,0,0,.025.35c.051.116.26.08.422.24.1.1.073.117.217.156a1.546,1.546,0,0,0,.082-.29c.133.088.029.068.207.083a1.3,1.3,0,0,0,.083-.374c.066-.032-.077-.042.124,0,0-.32-.166-.412-.166-.58,0-.1.068-.122.125-.207l.048.034a.609.609,0,0,0-.09.3.87.87,0,0,0,.249-.042,1.51,1.51,0,0,0,.083.373.317.317,0,0,0,.249-.249c.555.294.341.165.622-.041a.626.626,0,0,1,.084.207h.124c.091-.394.1.055.082-.539h.208c-.02-.237-.312-.4-.539-.416l-.038-.168c-.089-.159-.009.093-.086-.121a1.282,1.282,0,0,1,.414-.042c.162-.242.034-.125.29-.248,0-.11-.047-.384-.008-.421.063-.064.063-.006.215.007-.019-.219-.019-.042-.05-.19-.02-.1,0-.027.008-.183.3.024.266-.022.385.069.074.058.033.046.141.111.081.049.11.063.18.11l-.042.415c0,.158-.013.015.042.124.188-.05.1-.111.331-.166l.042.166.248-.047.1.487c.05.189.13.224.357.224.068-.289.249-.216.249-.581.133.089.03.068.207.084.015-.182.052-.138-.005-.323a1.045,1.045,0,0,0-.16-.3l.16-.131a1.263,1.263,0,0,1,.088.3c.124-.011.119-.021.191-.1,0,0,.01-.016.018-.024.045.171.035.078.135.2.119.14.038.1.113.26.215-.058.149-.145.282-.257.164-.139.277-.033.3-.282.07.047.21.29.29.29s.136-.056.249-.083c-.041.172-.066.158,0,.29.3-.158.207-.425.293-.581l.063-.1c.042-.192.008-.054-.024-.107l.091-.009c.084.02-.021,0,.075.009,0-.026,0-.1,0-.124-.035-.234.034.108-.015-.068a.252.252,0,0,0-.012-.03.158.158,0,0,0-.014-.027l.373.249c.082-.347.275-.8-.207-.912.115-.2-.148-.242.166-.249.027.324.483.719.374.249a1.545,1.545,0,0,1,.217.156c.115.107.058.12.24.135a2.276,2.276,0,0,0-.01-.407c-.116-.531.01-.1.01-.3,0-.147-.2-.26-.332-.29.06-.224.488-.416-.083-.416-.142,0-.411.206-.622-.082.168-.039.125-.012.166-.125a.6.6,0,0,0-.456-.041c.007-.006.02-.025.023-.018l.143-.147c0-.185-.258-.213-.414-.249v-.208c-.178-.037-.072,0-.291,0,0-.33-.082-.45-.082-.746-.2-.021-.07.005-.187-.1l-.043-.039c-.131-.13,0-.086-.04-.216-.03-.1-.107-.1-.228-.1a.891.891,0,0,0-.042-.208c.225-.024.071-.034.148-.052.117-.029.176.105.214-.134l.054-.146c0-.106-.141-.192-.208-.291.161-.043.154-.116.29-.208.222.163.212.519.456.083a3.2,3.2,0,0,0,.151-.3,1.293,1.293,0,0,0,.016-.773c.306,0,.542.141.7-.166a1.3,1.3,0,0,1,.278.178c.1.1.1.188.219.279a.794.794,0,0,0,.2-.828c-.122-.543.045-.213.045-.707.23-.019.4-.021.456-.13v-.195a2.481,2.481,0,0,0-.235-.519c-.061-.109-.119-.184-.179-.277s-.143-.194-.208-.291c.255-.381.58.022.58-.539,0-.5-.428-.857-.5-1.119h-.083c-.039.145-.016.093-.125.166l-.149-.183a2.67,2.67,0,0,0-1.054-.481c.053-.11.038-.044.042-.207.158.042.124.067.165.249l.084-.208c.324.027.386.047.207-.29.521-.275.2-.183.166-.581-.193-.015-.073.045-.166-.083a1.76,1.76,0,0,1,.332-.083c-.064-.092-.007-.051-.124-.084.044-.164.065-.1.083-.144s-.031-.035,0-.1c.22,0,.232-.038.414-.042l-.215-.24a1.817,1.817,0,0,1,.382-.05c-.079-.119-.074-.086-.168-.166-.173-.149,0,.022-.081-.165l-.415.041a.463.463,0,0,0-.5-.332,2.106,2.106,0,0,1,.415-.58c-.2-.3-.753-.059-.976.061l-.206.147c-.111.06-.127-.052-.146.165-.293-.2-.245-.4-.746-.414a1.143,1.143,0,0,0-.083-.622c-.2.054-.106.124-.416.124-.033-.4-.264-.106-.124-.705.075.05.341.332.374.332.177,0,.286-.464.29-.663a5.061,5.061,0,0,0,.54.166,1.232,1.232,0,0,0-.112-.634c-.039-.083-.1-.12-.1-.153,0-.323.352-.01.245-.4l-.2-.549c.55-.045.477-.747.788-.83v-.124h-.208c.025-.092.167-.2.167-.249,0-.271-.424-.408-.705-.414.018-.214.078-.13.083-.372a.955.955,0,0,1-.622-.209.5.5,0,0,1,.5-.367c.285-.036.368-.062.06-.528-.087-.133-.2-.235-.272-.349.239-.005.3-.089.207-.29.163,0,.1.011.208-.042-.167-.715-.647-.8-1.228-.971a1.018,1.018,0,0,0-.266-.066.417.417,0,0,0-.029-.385.266.266,0,0,0-.178-.154c.09-.136.108-.057.124-.249a1.619,1.619,0,0,0-.54-.124c-.252,0-.249.092-.249-.207,0-.079.211-.512-.249-.249a.663.663,0,0,0-.208.208c-.036.049-.045.065-.089.118,0,0-.048.056-.057.067-.244.271-.567-.31-.766-.31-.1,0-.173.26-.234.347-.048.068-.02-.008-.047.078a.95.95,0,0,0-.01.24,1.927,1.927,0,0,0-.622-.291v-.083a.95.95,0,0,1,.208-.041.674.674,0,0,0-.125-.374,1.168,1.168,0,0,0,.284-.214c.175-.139.145-.075.255-.284a1.324,1.324,0,0,0-.58-.124c.077-.331.035-.332-.291-.332.01-.437.331-.592.331-.913,0-.19-.189-.13-.29-.082,0-.379-.117-.44-.124-.747-.357.03-.179.5-.511.1-.1-.122-.217-.277-.4-.256-.239.029.082.1-.212.035.042-.156.08-.12.166-.248-.15-.085-.258,0-.414.042-.009-.391-.277-.153-.332.083-.212-.1-.234.057-.289-.167-.03-.124.019-.063-.043-.206-.045-.1-.045-.024-.083-.167.23-.019.155-.076.332-.124a.641.641,0,0,0,.207.373c.138-.073.124-.03.166-.207a.4.4,0,0,1,.3.116.648.648,0,0,0,.365.133.79.79,0,0,0,.083-.415.954.954,0,0,1,.13.077c.105.073.023.053.16.089a1.385,1.385,0,0,0,.083-.58c.184,0,.193.013.208-.166a.536.536,0,0,1,.173.115c.138.115.006.075.2.092a1.16,1.16,0,0,0-.249-.747.448.448,0,0,1,.29-.083c-.109-.468-.8-.518-.949-.751l-.014-.027-.074-.135h.166c-.031-.378-.639-.479-.912-.415.115-.248-.255-.332-.456-.332.387-.528.787.034.663-.5.11.053.045.037.207.042v-.124a.735.735,0,0,0,.29.082c.141,0,.125-.07.25-.124a.95.95,0,0,0,.123-.042.413.413,0,0,0-.332-.166l.121-.128a1.4,1.4,0,0,0,.241-.464c.074-.173.077-.033.094-.238-.513-.12-.56.265-.871.29a.821.821,0,0,1,.042-.29c-.263.006-.086.028-.291.083-.27-.234-.217-.388-.742-.24-.249.07-.089-.008-.254-.008-.139,0-.232.141-.331.207,0-.189.041-.35.037-.454-.012-.389-.227-.4-.411-.126l-.244-.129a.845.845,0,0,1-.064-.1c-.13-.193-.2-.113-.314-.267l.622-.208a.583.583,0,0,0-.153-.22c-.135-.113-.114-.04-.262-.111.065-.033-.076-.042.125,0-.086-.184.118-.354.124-.623h-.331c0-.476.335-.39.124-.7.506-.135.018-.573-.452-.369l-.218.085c0-.014.027-.031.031-.024l.267-.232a.451.451,0,0,0-.249-.083,1.962,1.962,0,0,1,.249-.705c-.116-.055-.081-.041-.249-.041.036-.155.21-.337.02-.315-.126.013-.266.174-.352.231,0-.678-.282-.719-.291-1.119-.274.022-.381.322-.434.562a.971.971,0,0,0,.1.765h-.249a.893.893,0,0,0-.29-.787l-.2.173c-.321-.473-.28-.245-.55-.46-.148-.12-.115-.283-.245-.377a.486.486,0,0,0-.166.415c-.179-.12-.281-.307-.58-.332l.207-.332a1.1,1.1,0,0,0-.954.124c-.044-.165-.373-.352-.373-.124,0,.094.014.048.042.166-.214,0-.406-.065-.523.013s-.065.107-.192.143c-.145.04-.128-.022-.28.052a1.329,1.329,0,0,0-.787-.29c0,.237.021.135.124.29-.168.089-.232.041-.249.249a.358.358,0,0,1,.29.29c-.236.158-.668.052-.971.147-.159.05-.176.056-.19.226a.9.9,0,0,1,.207.042c-.093.126-.068.043-.173.158a.512.512,0,0,0-.159.3l.249.041c.053.113.113.147.124.29a1.011,1.011,0,0,0-.58.374l-.705-.125a1.673,1.673,0,0,1,.166-.415c0-.341-.782-.5-1.12-.5v.166a2.681,2.681,0,0,0-1.078.373c-.038-.1-.022-.046-.041-.082s0,.021-.041-.083a.62.62,0,0,1,.332-.166c-.016-.183-.035-.167-.208-.207a2.064,2.064,0,0,0,.041-.332c-.567-.136-.5.249-1.327.249.362-.54.262-.177.166-.54.177-.064.206-.321.206-.5l-.5.125a5.339,5.339,0,0,1-.083-.539c-.17,0-.147,0-.242.089a.974.974,0,0,0-.3.7c0,.081.056.136.083.249-.552-.012-.3-.095-.747.207-.026-.1-.066-.116-.151-.18-.465-.347-.146.226-.5.138a1.171,1.171,0,0,1-.261-.077.464.464,0,0,1-.12-.213c.556,0,.553,0,.166-.58a1.478,1.478,0,0,1,.374-.166c-.09-.337-.506-.223-.62-.417s.032.087.039-.247" transform="translate(-81.548)" fill="#fff" fill-rule="evenodd"/>
    <rect id="Rectangle_97" data-name="Rectangle 97" width="0.166" height="0.042" transform="translate(1386.277 1406.17)" fill="#fff"/>
    <path id="Path_469" data-name="Path 469" d="M1457.956,1471.973l.013.013S1457.951,1471.977,1457.956,1471.973Z" transform="translate(-94.196 -26.159)" fill="#fff" fill-rule="evenodd"/>
    <path id="Path_470" data-name="Path 470" d="M1458.093,1471.906l.013.012S1458.089,1471.91,1458.093,1471.906Z" transform="translate(-94.25 -26.133)" fill="#fff" fill-rule="evenodd"/>
    <path id="Path_471" data-name="Path 471" d="M1473.684,1466.366l.013.012S1473.68,1466.37,1473.684,1466.366Z" transform="translate(-100.386 -23.953)" fill="#fff" fill-rule="evenodd"/>
    <path id="Path_472" data-name="Path 472" d="M1432.708,1446.812h-.124c.005-.213-.037-.119.084-.207C1432.682,1446.615,1432.785,1446.641,1432.708,1446.812Z" transform="translate(-84.21 -16.175)" fill="#fff" fill-rule="evenodd"/>
    <path id="Path_473" data-name="Path 473" d="M1428.692,1439.971l-.007.123c-.159-.013-.128-.015-.2-.123.013,0,.089.025.1.025l.057,0c.007,0,.021-.008.026-.01A.109.109,0,0,0,1428.692,1439.971Z" transform="translate(-82.597 -13.564)" fill="#fff" fill-rule="evenodd"/>
    <path id="Path_474" data-name="Path 474" d="M1513.481,1430.437c.044-.058.041-.09.083.082l-.042-.042C1513.382,1430.337,1513.647,1430.5,1513.481,1430.437Z" transform="translate(-116.049 -9.794)" fill="#fff" fill-rule="evenodd"/>
    <path id="Path_475" data-name="Path 475" d="M1438.741,1425.406c.128.094.067-.027.083.166-.028-.032-.027-.012-.055-.071C1438.734,1425.426,1438.756,1425.438,1438.741,1425.406Z" transform="translate(-86.634 -7.832)" fill="#fff" fill-rule="evenodd"/>
    <path id="Path_476" data-name="Path 476" d="M1507.327,1425.269l.012.013S1507.323,1425.274,1507.327,1425.269Z" transform="translate(-113.627 -7.778)" fill="#fff" fill-rule="evenodd"/>
    <path id="Path_477" data-name="Path 477" d="M1441.261,1422.876c.006.067.224.5-.041.5-.151,0-.146-.05-.291-.083C1441.187,1422.9,1441.023,1422.9,1441.261,1422.876Z" transform="translate(-87.495 -6.836)" fill="#fff" fill-rule="evenodd"/>
    <path id="Path_478" data-name="Path 478" d="M1440.234,1423.39a2.056,2.056,0,0,1,.256-.172l.045.164c-.015-.006-.074-.113-.253.044Z" transform="translate(-87.222 -6.971)" fill="#fff" fill-rule="evenodd"/>
    <path id="Path_479" data-name="Path 479" d="M1506.439,1419.43a.958.958,0,0,0,.207-.042C1506.554,1419.527,1506.545,1419.576,1506.439,1419.43Z" transform="translate(-113.278 -5.463)" fill="#fff" fill-rule="evenodd"/>
    <path id="Path_480" data-name="Path 480" d="M1441.886,1419.183l.013.013S1441.882,1419.187,1441.886,1419.183Z" transform="translate(-87.872 -5.383)" fill="#fff" fill-rule="evenodd"/>
    <rect id="Rectangle_98" data-name="Rectangle 98" width="0.166" height="0.042" transform="translate(1386.277 1406.17)" fill="#5716a3"/>
    <path id="Path_481" data-name="Path 481" d="M1457.956,1471.973l.013.013S1457.951,1471.977,1457.956,1471.973Z" transform="translate(-94.196 -26.159)" fill="#5716a3" fill-rule="evenodd"/>
    <path id="Path_482" data-name="Path 482" d="M1458.093,1471.906l.013.012S1458.089,1471.91,1458.093,1471.906Z" transform="translate(-94.25 -26.133)" fill="#5716a3" fill-rule="evenodd"/>
    <path id="Path_483" data-name="Path 483" d="M1473.684,1466.366l.013.012S1473.68,1466.37,1473.684,1466.366Z" transform="translate(-100.386 -23.953)" fill="#5716a3" fill-rule="evenodd"/>
    <path id="Path_484" data-name="Path 484" d="M1432.708,1446.812h-.124c.005-.213-.037-.119.084-.207C1432.682,1446.615,1432.785,1446.641,1432.708,1446.812Z" transform="translate(-84.21 -16.175)" fill="#5716a3" fill-rule="evenodd"/>
    <path id="Path_485" data-name="Path 485" d="M1428.692,1439.971l-.007.123c-.159-.013-.128-.015-.2-.123.013,0,.089.025.1.025l.057,0c.007,0,.021-.008.026-.01A.109.109,0,0,0,1428.692,1439.971Z" transform="translate(-82.597 -13.564)" fill="#5716a3" fill-rule="evenodd"/>
    <path id="Path_486" data-name="Path 486" d="M1513.481,1430.437c.044-.058.041-.09.083.082l-.042-.042C1513.382,1430.337,1513.647,1430.5,1513.481,1430.437Z" transform="translate(-116.049 -9.794)" fill="#5716a3" fill-rule="evenodd"/>
    <path id="Path_487" data-name="Path 487" d="M1438.741,1425.406c.128.094.067-.027.083.166-.028-.032-.027-.012-.055-.071C1438.734,1425.426,1438.756,1425.438,1438.741,1425.406Z" transform="translate(-86.634 -7.832)" fill="#5716a3" fill-rule="evenodd"/>
    <path id="Path_488" data-name="Path 488" d="M1507.327,1425.269l.012.013S1507.323,1425.274,1507.327,1425.269Z" transform="translate(-113.627 -7.778)" fill="#5716a3" fill-rule="evenodd"/>
    <path id="Path_489" data-name="Path 489" d="M1441.261,1422.876c.006.067.224.5-.041.5-.151,0-.146-.05-.291-.083C1441.187,1422.9,1441.023,1422.9,1441.261,1422.876Z" transform="translate(-87.495 -6.836)" fill="#5716a3" fill-rule="evenodd"/>
    <path id="Path_490" data-name="Path 490" d="M1440.234,1423.39a2.056,2.056,0,0,1,.256-.172l.045.164c-.015-.006-.074-.113-.253.044Z" transform="translate(-87.222 -6.971)" fill="#5716a3" fill-rule="evenodd"/>
    <path id="Path_491" data-name="Path 491" d="M1506.439,1419.43a.958.958,0,0,0,.207-.042C1506.554,1419.527,1506.545,1419.576,1506.439,1419.43Z" transform="translate(-113.278 -5.463)" fill="#5716a3" fill-rule="evenodd"/>
    <path id="Path_492" data-name="Path 492" d="M1441.886,1419.183l.013.013S1441.882,1419.187,1441.886,1419.183Z" transform="translate(-87.872 -5.383)" fill="#5716a3" fill-rule="evenodd"/>
    <path id="Path_493" data-name="Path 493" d="M1475.575,1467.118l-.182.109c-.194.183-.4.249-.44.39h-.082c-.047-.175-.021-.066-.116-.133l-.182-.191a.448.448,0,0,0-.051-.032c-.106-.059-.011-.044-.19-.059l-.273.107c.123.066.115.054.148.182-.184-.039-.054-.035-.115.09-.078.162-.091-.048-.1.289l-.119-.089v.166a.231.231,0,0,1-.208-.207l-.321.177c-.023.015-.053.045-.093.072l-.166-.249c.015-.168.069-.132.008-.216-.122-.167-.207-.01-.423.009-.005-.293-.078-.236-.237-.113-.107.083,0,.035-.135.071v.083c.225.06.189.241.207.456-.118-.027-.072-.041-.166-.041-.031,0-.119.16-.207-.083l-.082.165h-.166c0,.044,0,.078-.007.106-.037.571-.074,1.138-.1,1.667a15.3,15.3,0,0,1-1.536,6.088,11.834,11.834,0,0,1-1.231-2.3,12.132,12.132,0,0,1-.76-2.836c-.032-.2-.112-.719-.183-1.286l-.007.005-.149.1c-.005,0-.02.025-.024.017s-.015.012-.023.019c-.127-.093-.067.027-.083-.166-.275.145-.249-.083-.249-.332h-.083c0,.244-.013.445-.249.332a.309.309,0,0,1-.055.2c-.113.167-.106-.018-.243.079-.093.067-.011.056-.158.1a.815.815,0,0,0-.054-.162c.01.105.019.209.03.317a24.212,24.212,0,0,0,1.585,6.772,6.361,6.361,0,0,1,.827,3.22c-.676,3.563-.268,5.448-.237,8.929l-.023,1.124c-.022,2.183-.041,14.385-.452,16.531a7.581,7.581,0,0,0-.211.945,5.909,5.909,0,0,0,2.171.778h.657a3.519,3.519,0,0,0,.908-.211c.273-.1.659-.392.824-.437,0-1.034-1.122-16.894-1.244-19.248-.03-.568-.082-1.163-.127-1.768l-.1-1.842a2.685,2.685,0,0,1,.332-1.506c.913-2.378,1.979-4.925,1.967-7.583l.189-3.689a17.252,17.252,0,0,1,.573-3.248c.176-.555.272-.474.931-.932l.308-.218a1.576,1.576,0,0,1-.023-.511" transform="translate(-97.633 -24.249)" fill="#3d8f1a"/>
  </g>
</svg>
