<?xml version="1.0" encoding="utf-8"?>
<!-- Generator: Adobe Illustrator 24.2.3, SVG Export Plug-In . SVG Version: 6.00 Build 0)  -->
<svg version="1.1" id="Capa_1" xmlns="http://www.w3.org/2000/svg" xmlns:xlink="http://www.w3.org/1999/xlink" x="0px" y="0px"
	 viewBox="0 0 729.78 286.6" style="enable-background:new 0 0 729.78 286.6;" xml:space="preserve">
<style type="text/css">
	.st0{fill-rule:evenodd;clip-rule:evenodd;fill:#FFFFFF;}
	.st1{fill-rule:evenodd;clip-rule:evenodd;fill:#85C05D;}
	.st2{fill-rule:evenodd;clip-rule:evenodd;fill:#582E90;}
	.st3{fill:#3E853F;}
</style>
<g>
	<path class="st0" d="M101.87,137.82c0-17.58-2.72-31.24-8.15-40.99c-4-7.19-10.71-10.78-20.13-10.78
		c-8.95,0-15.94,4.59-20.97,13.78s-7.55,21.93-7.55,38.23c0,16.14,2.67,28.73,8.03,37.75c5.35,9.03,12.82,13.54,22.41,13.54
		c7.35,0,12.78-2.79,16.3-8.39C98.51,170.41,101.87,156.03,101.87,137.82 M123.68,138.06c0,15.5-4.71,28.49-14.14,38.95
		c-9.43,10.47-21.18,15.7-35.24,15.7c-14.54,0-26.69-5.23-36.43-15.7c-9.75-10.46-14.62-23.45-14.62-38.95
		c0-15.98,4.75-29.24,14.26-39.79s21.37-15.82,35.6-15.82c14.38,0,26.4,5.31,36.07,15.94C118.84,109.02,123.68,122.24,123.68,138.06
		z"/>
	<path class="st1" d="M207.28,253.6c-10.05,8.04-22.42,12.07-37.11,12.07c-11.6,0-20.93-3.01-27.98-9.02
		c-7.05-6.01-10.58-13.96-10.58-23.85c0-13.19,4.93-22.4,14.79-27.63c5.22,0,13.09-0.87,23.63-2.62c10.53-1.75,18.5-2.62,23.92-2.62
		c18.94,0,28.41,8.04,28.41,24.14C222.36,235.72,217.33,245.56,207.28,253.6 M176.69,70.52c15.51,0,23.27,14.06,23.27,42.17
		c0,27.54-7.27,41.3-21.81,41.3c-16.1,0-24.14-14.73-24.14-44.21C154.01,83.61,161.57,70.52,176.69,70.52z M224.54,188.02
		c-6.69-6.2-15.95-9.31-27.78-9.31c-6.59,0-13.87,0.68-21.81,2.04c-10.28,1.74-17.74,2.62-22.39,2.62
		c-12.21,0-18.32-5.04-18.32-15.12c0-3.88,1.65-7.46,4.94-10.76c3.29-3.29,6.98-4.94,11.05-4.94c0.77,0,2.42,0.39,4.94,1.16
		c9.31,2.91,15.71,4.36,19.2,4.36c13.57,0,24.91-4.46,34.03-13.38c9.11-8.92,13.67-19.97,13.67-33.16c0-3.1-0.49-7.66-1.45-13.67
		c-0.97-6.01-1.45-9.31-1.45-9.89c0-2.52,1.06-4.99,3.2-7.42c2.13-2.42,4.36-3.63,6.69-3.63c2.71,0,4.07,1.26,4.07,3.78
		c0,0.97-0.29,2.28-0.87,3.93s-0.87,2.86-0.87,3.64c0,0.75,0.13,1.47,0.36,2.17c0.23-0.23,0.46-0.45,0.7-0.67
		c5.41-4.88,12.56-7.74,21.45-8.59c-0.97-8.06-6.43-12.11-16.41-12.11c-9.12,0-16.77,4.56-22.98,13.67
		c-6.59-6.4-12.36-10.66-17.31-12.8c-4.94-2.13-11.39-3.2-19.34-3.2c-14.54,0-26.28,4.22-35.19,12.65
		c-8.92,8.43-13.38,19.63-13.38,33.59c0,14.93,5.82,26.95,17.45,36.07c-17.84,5.43-26.76,15.12-26.76,29.08
		c0,11.25,6.88,19.58,20.65,25.01c-9.31,2.13-16.1,4.55-20.36,7.27c-8.53,5.62-12.8,13.96-12.8,25.01c0,11.44,4.6,20.4,13.82,26.9
		c9.21,6.49,21.86,9.74,37.95,9.74c21.71,0,39.7-5.52,53.95-16.58c14.25-11.05,21.38-24.92,21.38-41.59
		C234.57,202.85,231.22,194.23,224.54,188.02z"/>
	<path class="st0" d="M476.94,99.9c-2.86,10.95-11.03,19.11-25.68,19.11c-19.3,0-29.04-14.64-29.04-32.89
		c0-17.53,9.74-33.39,29.36-33.39c15.22,0,23.49,8.68,25.38,19.47h-8.56c-2.31-7.03-6.96-12.33-17.17-12.33
		c-14.24,0-20.06,12.95-20.06,26c0,12.66,5.53,26.01,20.43,26.01c9.95,0,14.32-5.71,16.74-11.98
		C468.34,99.9,476.94,99.9,476.94,99.9z"/>
	<path class="st0" d="M488.1,71.16h8.12v47.04h-8.12V71.16z M488.1,50.09h8.12v10.15h-8.12V50.09z"/>
	<path class="st0" d="M547.84,104.5c0,4.58,0.06,10.93,0.09,13.71h-7.9c-0.18-1.24-0.28-4.1-0.31-7.05
		c-2.31,5.21-6.85,8.17-14.25,8.17c-7.93,0-15.54-3.95-15.54-17.22V71.16h8.06v29.2c0,6.18,1.94,11.88,9.74,11.88
		c8.65,0,11.99-4.79,11.99-16.55V71.16h8.12V104.5z"/>
	<path class="st0" d="M566.98,94.92c0,11.36,5.4,17.5,12.79,17.5c10.99,0,13.42-8.11,13.42-18.43c0-10.46-2.19-17.06-12.78-17.06
		C572.11,76.94,566.98,83.51,566.98,94.92 M600.99,50.09v54.82c0,4.42,0,8.75,0.09,13.29h-7.8c-0.22-1.24-0.38-4.85-0.41-6.68
		c-2.32,4.9-7.09,7.79-14.79,7.79c-12.1,0-19.53-9.8-19.53-24.15c0-14.48,8.02-25.12,21.03-25.12c8.33,0,12.04,3.36,13.3,6.01V50.09
		H600.99z"/>
	<path class="st0" d="M641.4,95.27h-7.61c-9.38,0-14.4,2.59-14.4,9.23c0,4.89,3.35,8.45,9.15,8.45c11.33,0,12.86-7.63,12.86-16.17
		V95.27z M649.33,107.94c0,4.28,0.37,8.91,0.65,10.26h-7.77c-0.37-1.05-0.65-3.29-0.77-6.16c-1.65,3.14-5.4,7.27-14.52,7.27
		c-11.09,0-15.83-7.22-15.83-14.38c0-10.5,8.24-15.31,22.23-15.31h8.03v-4.01c0-4.14-1.33-9.21-10.13-9.21
		c-7.86,0-9.18,3.9-10.04,7.57h-7.86c0.62-6.48,4.63-13.98,18.16-13.94c11.5,0.03,17.86,4.71,17.86,15.41L649.33,107.94
		L649.33,107.94z"/>
	<path class="st0" d="M668.39,94.92c0,11.36,5.4,17.5,12.79,17.5c10.99,0,13.42-8.11,13.42-18.43c0-10.46-2.19-17.06-12.78-17.06
		C673.53,76.94,668.39,83.51,668.39,94.92 M702.4,50.09v54.82c0,4.42,0,8.75,0.09,13.29h-7.81c-0.21-1.24-0.37-4.85-0.4-6.68
		c-2.32,4.9-7.09,7.79-14.8,7.79c-12.09,0-19.53-9.8-19.53-24.15c0-14.48,8.02-25.12,21.03-25.12c8.33,0,12.03,3.36,13.3,6.01V50.09
		H702.4z"/>
	<g>
		<path class="st0" d="M453.09,179.06c0,14.57-5.75,19.76-16.54,19.76c-2.62,0-4.97-0.24-6.81-0.66v-7.14
			c1.23,0.25,3.92,0.43,5.98,0.43c7.77,0,8.81-5.76,8.81-12.1v-46.01h8.56V179.06z"/>
		<path class="st0" d="M493.51,174.96h-7.61c-9.38,0-14.4,2.59-14.4,9.23c0,4.89,3.35,8.45,9.16,8.45
			c11.33,0,12.86-7.63,12.86-16.17v-1.51H493.51z M501.44,187.63c0,4.28,0.37,8.91,0.65,10.26h-7.77c-0.37-1.05-0.65-3.29-0.77-6.16
			c-1.65,3.14-5.4,7.27-14.52,7.27c-11.09,0-15.82-7.22-15.82-14.37c0-10.5,8.24-15.31,22.22-15.31h8.02v-4.01
			c0-4.14-1.32-9.21-10.12-9.21c-7.86,0-9.19,3.9-10.04,7.57h-7.86c0.62-6.48,4.63-13.98,18.16-13.94
			c11.5,0.03,17.86,4.71,17.86,15.41v22.49H501.44z"/>
		<path class="st0" d="M515.49,163.63c0-6.58-0.06-10.28-0.09-12.78h7.96c0.13,1.32,0.25,5.01,0.25,9.61
			c2.46-6.37,8.07-10.48,15.85-10.71v8.09c-9.65,0.29-15.85,5.33-15.85,17.22v22.84h-8.12V163.63z"/>
		<path class="st0" d="M552.52,174.61c0,11.36,5.41,17.5,12.79,17.5c10.99,0,13.41-8.11,13.41-18.43c0-10.46-2.18-17.05-12.78-17.05
			C557.65,156.63,552.52,163.2,552.52,174.61 M586.53,129.78v54.82c0,4.42,0,8.75,0.09,13.3h-7.8c-0.22-1.25-0.38-4.85-0.41-6.68
			c-2.32,4.9-7.09,7.79-14.79,7.79c-12.1,0-19.53-9.8-19.53-24.14c0-14.48,8.02-25.13,21.03-25.13c8.33,0,12.03,3.37,13.29,6.01
			v-25.96h8.12V129.78z"/>
		<path class="st0" d="M600.38,150.85h8.12v47.04h-8.12V150.85z M622.23,128.86l-14.22,14.24h-7.67l11.89-14.24H622.23z"/>
		<path class="st0" d="M622.4,162.7c0-4.08,0-8.21-0.09-11.85h7.9c0.22,1.39,0.34,6.33,0.32,7.73c1.88-4.04,5.72-8.84,14.81-8.84
			c8.82,0,15.72,5.39,15.72,17.9v30.25h-8.12v-29.22c0-7.11-2.78-11.89-9.96-11.89c-8.87,0-12.44,6.75-12.44,16.21v24.9h-8.12V162.7
			H622.4z"/>
	</g>
	<path class="st0" d="M278.16,153.64v-17.5c-11.81,2.72-20.28,6.27-25.4,10.67s-7.68,10.27-7.68,17.62c0,5.12,1.46,9.31,4.37,12.58
		c2.91,3.28,6.58,4.91,10.99,4.91c6.77,0,12.2-3.83,16.3-11.51C277.69,168.66,278.16,163.07,278.16,153.64 M320.35,179.04
		c0,2.72-2.82,5.55-8.47,8.51c-5.64,2.96-11.09,4.43-16.33,4.43c-10.97,0-16.7-5.67-17.17-17.02
		c-6.04,11.83-15.42,17.74-28.14,17.74c-6.84,0-12.48-2.04-16.93-6.11c-4.45-4.07-6.68-9.31-6.68-15.7
		c0-13.1,7.84-23.49,23.51-31.16c5.38-2.56,14.72-5.11,28.02-7.67v-5.99c0-14.06-0.72-23.33-2.16-27.81
		c-2.56-8.15-8.31-12.22-17.26-12.22c-5.6,0-10.27,1.52-14.02,4.55c-3.76,3.04-5.63,6.87-5.63,11.5c0,1.28,0.97,1.92,2.93,1.92
		c1.95,0,3.71,0.96,5.27,2.88s2.35,4.07,2.35,6.47c0,7.03-3.48,10.55-10.44,10.55c-3.64,0-6.64-1.24-9.01-3.71
		c-2.37-2.48-3.56-5.63-3.56-9.47c0-7.51,2.95-13.98,8.87-19.42c6.55-5.91,15.66-8.87,27.33-8.87c17.58,0,28.36,4.79,32.36,14.38
		c1.44,3.68,2.16,10.95,2.16,21.81v44.82c0,7.35,0.08,11.67,0.24,12.94c0.8,5.75,3.12,8.63,6.95,8.63c4.47,0,8.15-1.6,11.03-4.8
		c1.6-1.76,2.79-2.64,3.6-2.64C319.95,177.61,320.35,178.09,320.35,179.04z"/>
	<path class="st0" d="M348.07,105.28c0.37,0.03,0.17,0,0.39,0.12c0.02,0.01,0.09,0.05,0.1,0.07l0.37,0.39
		c0.19,0.14,0.14-0.08,0.24,0.27h0.17c0.08-0.29,0.5-0.42,0.9-0.8l0.38-0.22c0.01,0.37-0.15,1.37,0.3,1.08
		c0.29-0.18,0.05-0.2,0.47-0.23c0,0,2.88-2.69,3.66-2.39c0.9,0.35,0.6-0.1,1.07-0.23l0.21-0.11l0.18,0.25
		c0.3-0.07,0.1-0.08,0.41-0.16c0.1,0.36,0.25,0.24,0.68,0.34c0.1-0.22,0.06-0.17,0-0.43c0.37-0.08,0.1-0.03,0.51,0
		c0-0.45,0-0.13,0.09-0.26c0.09,0.35,0.13,0.23,0.34,0.42c0.17,0.15,0.1,0.1,0.18,0.34c0.1,0.3,0.28,0.49,0.3,0.81
		c0.03,0.36-0.11,0.23-0.14,0.65c0.27,0.11,0.1-0.07,0.23,0.28c0.05,0.12,0.08,0.29,0.11,0.4c0.13-0.04,0.28-0.1,0.28-0.1
		c0.28-0.02,0.22,0.2,0.41-0.23l0.16-0.35c0.27,0.14,0.27,0.17,0.68,0.17c0.02,0.24,0.08,0.77,0.28,0.69c0.1-0.04,0.01,0,0.15-0.09
		c0,0,1.63,0.34,1.97,0.27c0.34-0.06,1.36-0.78,1.27-0.96c0.23,0.08,0.18,0,0.25,0.34c0.35-0.09,0.22-0.31,0.6-0.51
		c-0.06-0.24-0.17-0.43-0.17-0.68c0-0.27,0.15-0.15,0.01-0.43c-0.1-0.2-0.15-0.2-0.35-0.25c0.19-0.26,0.23-0.07,0.34-0.34
		c0.61,0.14,0.73,0.34,0.51-0.6c0.11-0.06,0.32-0.34,0.43-0.34c0.29,0,1.28,0.62,1.32,0.17c0.01-0.04-0.08-0.22-0.03-0.41
		c0.01-0.04,0.05,0.04,0.07-0.27c0.5,0.04,0.32,0.26,0.69,0.42c0.31,0.14,0.38-0.08,0.84-0.08c0.33,0,0.03-0.03,0.26,0.09
		c-0.13,0.49-0.51,0.37-0.51,1.19c0.37-0.01,0.27-0.06,0.6-0.09c-0.01,0.52-0.18,0.89,0.29,0.56c0.28-0.2-0.09,0.07,0.14-0.13
		c0.29,0.08,0.23,0.17,0.34,0.17c0.24,0,0.23-0.17,0.77-0.17c0.07,0.25,0,0.19,0.26,0.25c-0.13,0.48-0.3,0.15-0.34,0.68h0.68
		c-0.09,0.39-0.26,0.54-0.26,1.02c0.48,0,0.63-0.17,0.85-0.17c0.32,0,0.16,0.06,0.51,0.08c-0.03,0.34-0.08,0.31-0.2,0.57
		c-0.49,1.06,0.55,0.14,0.78,0.25c0.22,0.1-0.06,0.51-0.07,0.88h0.34c-0.32,0.6-0.68,0.41-0.68,1.28c0,0.44,0.29,0.09,0.68,0.09
		c-0.19,0.81-0.06,0.49,0.08,1.02h0.26c0.05-0.2,0.41,0.88,0.34,1.7l0.51,0.1c-0.23,0.34-0.33,0.15-0.34,0.67
		c0.36,0.03,0.92,0.14,1.28,0.17c-0.05,0.19-0.07,0.2-0.08,0.43c0.56,0,1.1-0.53,1.18,0.08c0.04,0.28,0,0.52,0.18,0.86
		c0.24-0.16,0.38-0.47,0.6-0.68c0.73,0.2,0.28,0.45,1.28-0.08c0.06,0.25-0.01,0.12,0.17,0.26c0.18-0.09,0.2-0.12,0.43-0.17
		c-0.2,0.38-0.24,0.55,0.17,0.85c0.09-0.22,0.2-0.15,0.48-0.21c0.26-0.06,0.3-0.11,0.46-0.22c0.19,0.26,0.87,0.4,1.19,0.43v-0.77
		c0.23,0.12,0.25,0.16,0.6,0.17c0.03-0.33,0.09-0.27,0.09-0.68c0.35-0.19,0.32,0.01,0.18-0.61c-0.1-0.43-0.05-0.06,0.02-0.3
		c0.15-0.52-0.14-0.68,0.31-0.8c0,0.24-0.04,0.53,0.05,0.72c0.11,0.24,0.54,0.16,0.87,0.49c0.21,0.21,0.15,0.24,0.45,0.32
		c0.08-0.17,0.12-0.39,0.17-0.6c0.27,0.18,0.06,0.14,0.43,0.17c0.07-0.32,0.16-0.38,0.17-0.77c0.13-0.07-0.16-0.09,0.26,0
		c0-0.66-0.34-0.85-0.34-1.19c0-0.2,0.14-0.25,0.26-0.43l0.1,0.07c0,0-0.18,0.28-0.18,0.61c0.26-0.01,0.31-0.04,0.51-0.09
		c0.02,0.21,0.1,0.61,0.17,0.77c0.28-0.07,0.44-0.23,0.51-0.51c1.14,0.6,0.7,0.34,1.28-0.08c0.09,0.18,0.12,0.2,0.17,0.43h0.26
		c0.19-0.81,0.2,0.11,0.17-1.11h0.43c-0.04-0.49-0.64-0.81-1.11-0.85l-0.08-0.35c-0.18-0.33-0.02,0.19-0.18-0.25
		c0.35-0.08,0.4-0.09,0.85-0.09c0.34-0.5,0.07-0.26,0.6-0.51c0-0.23-0.1-0.79-0.02-0.87c0.13-0.13,0.13-0.01,0.44,0.02
		c-0.04-0.45-0.04-0.09-0.1-0.39c-0.04-0.2-0.01-0.05,0.02-0.38c0.61,0.05,0.55-0.04,0.79,0.14c0.15,0.12,0.07,0.09,0.29,0.23
		c0.17,0.1,0.23,0.13,0.37,0.23l-0.09,0.85c0,0.33-0.02,0.03,0.09,0.26c0.39-0.1,0.2-0.23,0.68-0.34l0.09,0.34l0.51-0.1l0.21,1
		c0.1,0.39,0.27,0.46,0.73,0.46c0.14-0.6,0.51-0.45,0.51-1.19c0.27,0.18,0.06,0.14,0.43,0.17c0.03-0.37,0.11-0.28-0.01-0.66
		c-0.08-0.26-0.19-0.41-0.33-0.61l0.33-0.27c0.09,0.18,0.14,0.41,0.18,0.61c0.25-0.02,0.24-0.04,0.39-0.21
		c0.01-0.01,0.02-0.03,0.04-0.05c0.09,0.35,0.07,0.16,0.28,0.4c0.25,0.29,0.08,0.21,0.23,0.54c0.44-0.12,0.3-0.3,0.58-0.53
		c0.34-0.29,0.57-0.07,0.61-0.58c0.14,0.1,0.43,0.6,0.6,0.6s0.28-0.12,0.51-0.17c-0.08,0.35-0.13,0.33,0,0.6
		c0.62-0.33,0.43-0.87,0.6-1.19l0.13-0.21c0.09-0.4,0.02-0.11-0.05-0.22l0.19-0.02c0.17,0.04-0.04,0,0.15,0.02
		c0-0.05,0.01-0.21,0-0.26c-0.07-0.48,0.07,0.22-0.03-0.14c-0.01-0.02-0.02-0.05-0.03-0.06c0-0.01-0.02-0.04-0.03-0.06l0.77,0.51
		c0.17-0.71,0.57-1.65-0.43-1.88c0.24-0.42-0.3-0.5,0.34-0.51c0.06,0.67,0.99,1.48,0.77,0.51c0.16,0.1,0.3,0.18,0.45,0.32
		c0.24,0.22,0.12,0.24,0.49,0.28c0-0.25,0.03-0.6-0.02-0.84c-0.24-1.09,0.02-0.2,0.02-0.61c0-0.3-0.41-0.54-0.68-0.6
		c0.12-0.46,1-0.85-0.17-0.85c-0.29,0-0.84,0.42-1.28-0.17c0.35-0.08,0.26-0.02,0.34-0.26c-0.31-0.17-0.59-0.17-0.94-0.08
		c0.02-0.01,0.04-0.05,0.05-0.04l0.29-0.3c0-0.38-0.53-0.44-0.85-0.51v-0.43c-0.37-0.08-0.15-0.01-0.6,0c0-0.68-0.17-0.92-0.17-1.53
		c-0.41-0.04-0.14,0.01-0.38-0.21c-0.02-0.02-0.07-0.07-0.09-0.08c-0.27-0.27,0-0.18-0.08-0.44c-0.06-0.22-0.22-0.2-0.47-0.2
		c-0.02-0.23-0.04-0.23-0.09-0.43c0.46-0.05,0.14-0.07,0.3-0.11c0.24-0.06,0.36,0.22,0.44-0.27l0.11-0.3c0-0.22-0.29-0.39-0.43-0.6
		c0.33-0.09,0.32-0.24,0.6-0.43c0.46,0.33,0.44,1.07,0.94,0.17c0.1-0.18,0.22-0.41,0.31-0.63c0.15-0.37,0.21-1.22,0.03-1.59
		c0.63,0,1.12,0.29,1.45-0.34c0.16,0.09,0.44,0.23,0.57,0.37c0.21,0.21,0.2,0.39,0.45,0.57c0.52-0.35,0.55-1.14,0.42-1.7
		c-0.25-1.12,0.09-0.44,0.09-1.45c0.47-0.04,0.83-0.04,0.94-0.27v-0.4c-0.06-0.24-0.22-0.59-0.48-1.07
		c-0.12-0.22-0.24-0.38-0.37-0.57c-0.14-0.21-0.29-0.4-0.43-0.6c0.52-0.78,1.19,0.05,1.19-1.11c0-1.03-0.88-1.76-1.02-2.3h-0.17
		c-0.08,0.3-0.03,0.19-0.26,0.34l-0.3-0.38c-0.54-0.48-1.49-0.83-2.17-0.99c0.11-0.23,0.08-0.09,0.09-0.43
		c0.33,0.09,0.25,0.14,0.34,0.51l0.17-0.43c0.67,0.05,0.79,0.1,0.42-0.6c1.07-0.57,0.41-0.38,0.34-1.19
		c-0.4-0.03-0.15,0.09-0.34-0.17c0.28-0.06,0.37-0.14,0.68-0.17c-0.13-0.19-0.01-0.11-0.26-0.17c0.09-0.34,0.14-0.2,0.17-0.3
		c0.04-0.1-0.06-0.07,0-0.21c0.45,0,0.48-0.08,0.85-0.09l-0.44-0.5c0.35-0.04,0.35-0.1,0.78-0.1c-0.16-0.24-0.15-0.18-0.34-0.34
		c-0.36-0.31-0.01,0.04-0.17-0.34l-0.85,0.08c-0.13-0.48-0.53-0.68-1.02-0.68c0.53-1,0.47-0.68,0.85-1.19
		c-0.41-0.61-1.55-0.12-2.01,0.13l-0.42,0.3c-0.23,0.12-0.26-0.11-0.3,0.34c-0.6-0.4-0.5-0.83-1.53-0.85
		c0.08-0.35-0.01-0.97-0.17-1.28c-0.42,0.11-0.22,0.26-0.85,0.26c-0.07-0.82-0.54-0.22-0.26-1.45c0.15,0.1,0.7,0.68,0.77,0.68
		c0.36,0,0.59-0.95,0.6-1.36c0.37,0.09,0.79,0.31,1.11,0.34c0-0.56-0.01-0.84-0.23-1.31c-0.08-0.17-0.2-0.24-0.2-0.31
		c0-0.66,0.72-0.02,0.5-0.83l-0.42-1.13c1.13-0.09,0.98-1.53,1.62-1.7v-0.25h-0.43c0.05-0.19,0.34-0.4,0.34-0.51
		c0-0.56-0.87-0.84-1.45-0.85c0.04-0.44,0.16-0.27,0.17-0.77c-0.59,0-0.87-0.15-1.28-0.43c0.25-0.53,0.37-0.67,1.04-0.75
		c0.58-0.07,0.76-0.13,0.12-1.09c-0.18-0.27-0.4-0.48-0.56-0.72c0.49-0.01,0.62-0.18,0.43-0.6c0.34-0.01,0.2,0.02,0.43-0.08
		c-0.34-1.47-1.33-1.65-2.52-1.99c-0.24-0.07-0.29-0.11-0.55-0.14c0.08-0.34,0.11-0.5-0.06-0.79c-0.11-0.18-0.17-0.27-0.36-0.32
		c0.18-0.28,0.22-0.12,0.25-0.51c-0.41-0.1-0.53-0.25-1.11-0.25c-0.52,0-0.51,0.19-0.51-0.43c0-0.16,0.43-1.05-0.51-0.51
		c-0.19,0.11-0.3,0.26-0.43,0.43c-0.07,0.1-0.09,0.13-0.18,0.24c-0.01,0.01-0.1,0.12-0.12,0.14c-0.5,0.56-1.16-0.64-1.57-0.64
		c-0.2,0-0.35,0.53-0.48,0.71c-0.1,0.14-0.04-0.02-0.1,0.16c-0.04,0.13-0.02,0.35-0.02,0.49c-0.34-0.18-0.85-0.56-1.28-0.6V59.1
		c0.19-0.04,0.2-0.07,0.43-0.08c-0.01-0.38-0.12-0.52-0.26-0.77c0.37-0.19,0.29-0.21,0.58-0.44c0.36-0.29,0.3-0.15,0.53-0.58
		c-0.32-0.15-0.71-0.26-1.19-0.26c0.16-0.68,0.07-0.68-0.6-0.68c0.02-0.9,0.68-1.21,0.68-1.88c0-0.39-0.39-0.27-0.6-0.17
		c0-0.78-0.24-0.9-0.25-1.53c-0.73,0.06-0.37,1.03-1.05,0.2c-0.21-0.25-0.45-0.57-0.82-0.52c-0.49,0.06,0.17,0.2-0.44,0.07
		c0.09-0.32,0.16-0.25,0.34-0.51c-0.31-0.17-0.53,0.01-0.85,0.09c-0.02-0.8-0.57-0.31-0.68,0.17c-0.44-0.21-0.48,0.12-0.59-0.34
		c-0.06-0.25,0.04-0.13-0.09-0.42c-0.09-0.2-0.09-0.05-0.17-0.34c0.47-0.04,0.32-0.16,0.68-0.25c0.07,0.3,0.21,0.6,0.43,0.77
		c0.28-0.15,0.26-0.06,0.34-0.43c0.35,0.01,0.4,0.09,0.61,0.24c0.23,0.16,0.47,0.27,0.75,0.27c0.13-0.27,0.17-0.43,0.17-0.85
		c0.11,0.06,0.16,0.08,0.27,0.16c0.22,0.15,0.05,0.11,0.33,0.18c0.16-0.34,0.17-0.78,0.17-1.19c0.38-0.01,0.4,0.03,0.43-0.34
		c0.23,0.12,0.16,0.07,0.36,0.24c0.28,0.24,0.01,0.15,0.41,0.19c0-0.69-0.18-1.03-0.51-1.53c0.23-0.12,0.25-0.16,0.6-0.17
		c-0.22-0.96-1.64-1.06-1.95-1.54c-0.01-0.02-0.02-0.04-0.03-0.06l-0.15-0.28h0.34c-0.06-0.78-1.31-0.98-1.88-0.85
		c0.24-0.51-0.52-0.68-0.94-0.68c0.8-1.09,1.62,0.07,1.36-1.02c0.23,0.11,0.09,0.08,0.43,0.09V43.8c0.15,0.07,0.38,0.17,0.6,0.17
		c0.29,0,0.26-0.14,0.51-0.25c0.07-0.03,0.14-0.03,0.25-0.09c-0.15-0.21-0.35-0.31-0.68-0.34l0.25-0.26c0.28-0.3,0.34-0.6,0.49-0.95
		c0.15-0.35,0.16-0.07,0.19-0.49c-1.06-0.25-1.15,0.54-1.79,0.6c0-0.34,0.03-0.35,0.09-0.6c-0.54,0.01-0.18,0.06-0.6,0.17
		c-0.55-0.48-0.45-0.8-1.52-0.5c-0.51,0.14-0.18-0.01-0.52-0.01c-0.29,0-0.48,0.29-0.68,0.43c0-0.39,0.09-0.72,0.08-0.93
		c-0.02-0.8-0.47-0.82-0.84-0.26l-0.5-0.26c-0.05-0.05-0.09-0.15-0.13-0.21c-0.27-0.4-0.41-0.23-0.65-0.55l1.28-0.43
		c-0.1-0.19-0.13-0.3-0.31-0.45c-0.28-0.23-0.23-0.08-0.54-0.23c0.14-0.07-0.16-0.09,0.26,0c-0.18-0.38,0.24-0.73,0.26-1.28h-0.68
		c0-0.98,0.69-0.8,0.25-1.45c1.04-0.28,0.04-1.18-0.93-0.76L376.94,35c0-0.03,0.06-0.07,0.06-0.05l0.55-0.47
		c-0.2-0.11-0.22-0.15-0.51-0.17c0.01-0.46,0.34-1.13,0.51-1.45c-0.24-0.11-0.17-0.08-0.51-0.08c0.07-0.32,0.43-0.69,0.04-0.65
		c-0.26,0.03-0.54,0.36-0.72,0.48c0-1.39-0.58-1.48-0.6-2.3c-0.56,0.05-0.78,0.66-0.89,1.15c-0.13,0.62-0.09,1,0.21,1.57h-0.51
		c0-0.58-0.07-1.27-0.6-1.62l-0.41,0.36c-0.66-0.97-0.58-0.5-1.13-0.94c-0.3-0.25-0.24-0.58-0.5-0.77
		c-0.24,0.17-0.33,0.45-0.34,0.85c-0.37-0.25-0.58-0.63-1.19-0.68l0.43-0.68c-0.63-0.3-1.4-0.04-1.96,0.26
		c-0.09-0.34-0.77-0.72-0.77-0.26c0,0.2,0.03,0.1,0.09,0.34c-0.44,0-0.83-0.13-1.08,0.03c-0.23,0.15-0.13,0.22-0.39,0.29
		c-0.3,0.08-0.26-0.05-0.57,0.11c-0.49-0.33-0.94-0.6-1.62-0.6c0.01,0.49,0.04,0.28,0.26,0.6c-0.34,0.18-0.48,0.08-0.51,0.51
		c0.34,0.09,0.52,0.26,0.6,0.6c-0.49,0.33-1.37,0.11-2,0.3c-0.33,0.1-0.36,0.11-0.39,0.46c0.23,0.02,0.23,0.04,0.43,0.09
		c-0.19,0.26-0.14,0.09-0.36,0.33c-0.17,0.19-0.33,0.41-0.33,0.61l0.51,0.09c0.11,0.23,0.23,0.3,0.26,0.6
		c-0.47,0.11-0.96,0.42-1.19,0.77l-1.45-0.26c0.03-0.38,0.34-0.77,0.34-0.85c0-0.7-1.61-1.02-2.3-1.02v0.34
		c-0.73,0-1.64,0.46-2.22,0.77c-0.08-0.22-0.05-0.09-0.08-0.17c-0.04-0.07-0.01,0.05-0.09-0.17c0.22-0.15,0.36-0.32,0.68-0.34
		c-0.03-0.38-0.07-0.34-0.43-0.43c0.03-0.33,0.09-0.27,0.09-0.68c-1.17-0.28-1.03,0.51-2.73,0.51c0.74-1.11,0.54-0.36,0.34-1.11
		c0.36-0.13,0.42-0.66,0.42-1.02l-1.02,0.26c-0.03-0.4-0.17-0.67-0.17-1.11c-0.35,0.01-0.3,0-0.5,0.18
		c-0.37,0.34-0.61,0.87-0.61,1.43c0,0.17,0.12,0.28,0.17,0.51c-1.14-0.03-0.61-0.19-1.53,0.43c-0.05-0.2-0.14-0.24-0.31-0.37
		c-0.96-0.71-0.3,0.46-1.04,0.28c-0.11-0.03-0.43-0.08-0.54-0.16c-0.1-0.07-0.21-0.29-0.25-0.44c1.14,0,1.14,0,0.34-1.19
		c0.24-0.13,0.47-0.27,0.77-0.34c-0.18-0.69-1.04-0.46-1.27-0.86c-0.23-0.39,0.07,0.18,0.08-0.51c-0.31-0.16-0.69-0.39-1.11-0.42
		c0.4-0.84-0.17-1.17-0.17-2.05c-0.37,0.03-0.15-0.01-0.43,0.17c0-0.35,0.03-0.28-0.09-0.51c-0.65-0.16-0.76,0.11-1.36,0.43
		c-0.05-0.21-0.09-0.34-0.17-0.51c-0.51,0.14-0.26,0.49-1.11,0.51c-0.2-0.85,0.29-0.83,0.34-1.45c-0.57-0.13-0.77-0.25-1.45-0.25
		c0.2-0.42,0.13-0.44-0.17-0.6c0.14-0.2,0.1-0.09,0.17-0.34c-1.07-0.51-1.67-0.18-2.57,0.41c-0.19,0.12-0.31,0.17-0.49,0.27
		c-0.04-0.5-0.46-0.43-0.85-0.43v-0.34c-0.53,0.04-0.98,0.41-1.02,0.94l-0.12-0.14c-0.24-0.23-0.39-0.27-0.48-0.63
		c-0.67,0.18-0.34,0.89-0.34,1.62c-0.28,0.06-1.28,0.1-1.28,0.34l0.28,0.83c0.08,0.11,0.14,0.13,0.24,0.28
		c-0.46,0.04-0.73,0.25-1.11,0.34c0.09-0.4,0.38-0.58-0.43-0.6l0.09-1.19c-0.65,0.01-0.5,0.38-1.02,0.43
		c-0.09-0.34-0.02-0.25-0.43-0.25c-0.08,0.31-0.01,0.23-0.34,0.25c-0.06-0.26-0.2-0.57-0.31-0.89c-0.14-0.42-0.14-0.55-0.63-0.56
		l-0.1,0.34c-0.2-0.14-0.74-0.57-0.99-0.63c-0.53-0.12,0.15,0.62-0.28,0.69c-0.11,0.02-0.77-0.15-1.02,0.1
		c-0.2,0.44,0.26,0.3-0.26,0.34v-0.43c-0.38,0.03-0.4,0.14-0.43,0.51c-0.51-0.27-0.55,0.08-0.34,0.51c-0.06,0.04-0.07,0.04-0.15,0.1
		l-0.14,0.11c-0.01,0.01-0.03,0.03-0.05,0.04c-0.34-0.12-0.21-0.24-0.68-0.26c0.01-0.37,0.06-0.26,0.08-0.6
		c0.74,0.06,0.8,0.35,0.73-0.41c-0.02-0.3,0.14-0.08-0.14-0.28l0.07-0.1c0.03,0,0.06,0.02,0.08,0.04c0.01,0.02,0.05,0.02,0.06,0.03
		c0.08,0.01,0.01,0.08,0.18,0c0.24-0.11,0.1-0.04,0.03-0.28c-0.01-0.02-0.02-0.04-0.02-0.07c-0.09-0.27-0.11-0.4-0.39-0.47
		c0.22-0.19,0.26-0.11,0.26-0.43l-0.51-0.09c0-0.33,0.03-0.35-0.09-0.6c-0.31,0.08-0.18,0.09-0.43,0.25
		c-0.06-0.25,0.01-0.12-0.17-0.25c-0.11,0.15-0.28,0.27-0.49,0.36c-0.31,0.14-0.41,0.08-0.45,0.49c-0.26-0.07-0.19,0-0.26-0.26H326
		v0.51c-0.26,0.02-0.16,0-0.34,0.09c0.03,0.33,0.08,0.27,0.08,0.68c-0.5-0.36-0.27-0.6-1.11-0.6c0.04,0.5,0.05,0.07,0.12,0.38
		c0.04,0.18-0.01,0.09-0.03,0.39c0.29,0.07,0.45,0.14,0.6,0.34c-0.42,0.2-0.3-0.2-0.94-0.26c0.04,0.52,0.14,0.21,0.09,0.85
		l-0.16-0.16c-0.16-0.29,0.08-0.41-0.35-0.52c0.47-0.89,0.18-0.51-0.26-0.51c-0.31,0-0.2-0.08-0.6-0.09c0.04,0.44,0.15,0.2-0.03,0.4
		c-0.18,0.19-0.19-0.05-0.31,0.37c-0.27-0.18-0.06-0.14-0.43-0.17v-0.51c-0.52,0.04-0.2,0.19-0.4-0.11
		c-0.08-0.12-0.16-0.37-0.39-0.36c-0.45,0.02,0.37,0.72-0.57,0.72c-0.01,0.48-0.25,0.57-0.52,0.26c0,0-0.15-0.23-0.16-0.26
		c-0.19,0.13-0.11,0.01-0.17,0.25c-0.51-0.12-0.33-0.21-0.85-0.08c0.08,0.31,0.09,0.18,0.25,0.43c-0.4,0.27-0.29,0.34-0.29,0.6
		c0,0.18-0.14,0.39,0.29,0.43c0.04,0.43-0.04,0.11,0.11,0.32c0.25,0.33,0.08-0.14,0.23,0.28c-0.35-0.03-0.19-0.09-0.51-0.09
		c-0.27,0,0.1,0.12-0.24,0.11c-0.33-0.01-0.04-0.14-0.33-0.07c-0.51,0.12,0.17,0.33-0.54,0.39c0.29-0.4,0.2,0.08,0.26-0.43
		c-0.19-0.16-0.42-0.04-0.6,0V26.1h-0.25c0-0.34-0.03-0.35-0.09-0.6c-0.48,0.13-0.28,0.43-0.51,0.43c-0.34,0-0.42-0.18-0.77-0.26
		c-0.06,0.14-0.02,0.04-0.05,0.17L316.21,26c0,0,0,0.02-0.01,0.04c-0.17-0.12,0.17,0-0.22-0.12c-0.29-0.09-0.41-0.07-0.63,0.04
		c0.07,0.27,0.3,0.43,0.6,0.51c-0.11,0.41-0.29,0.17-0.09,0.6h-0.51l0.12,0.54c0.02,0.14-0.08,0.26,0.48,0.31
		c-0.14,0.61-0.13,0.36-0.51,0.25c-0.14,0.2-0.1,0.09-0.17,0.34c-0.27-0.06-0.25-0.11-0.51-0.17c-0.06,0.22,0.03,0.1-0.17,0.17
		c0.01,0.49,0.04,0.28,0.25,0.6c-0.34,0.01-0.2-0.02-0.43,0.08c0.21,0.31,0.19,0.08,0.09,0.34c-0.18,0.07-0.35,0.04-0.58-0.1
		c-0.28-0.17-0.21-0.25-0.53-0.33v0.42c-0.21-0.09-0.18-0.05-0.42,0.09l0.06,0.11c0.11,0.29-0.03,0.19-0.06,0.57h0.42
		c-0.02,0.31-0.03,0.31-0.34,0.34c-0.02-0.26,0-0.16-0.09-0.34l-0.55-0.02c-0.12-0.19-0.11-0.24-0.49,0.01
		c-0.44,0.3-0.7,0.18-1.26,0.18c0.03,0.41,0.14,0.29,0.34,0.6c-0.5,0.12-0.42,0.28-0.62,0.66l-0.15,0.7
		c0.85-0.07,0.46,0.09,0.68,0.09c0.31,0,0.38-0.25,0.68-0.09c-0.09,0.22-0.33,0.14-0.43,0.51c-1.39,0-0.79-0.02-1.96,0.26
		c0.11,0.41,0.26,0.37,0.26,0.94c-1.56,0.75-4.07-0.62-5.28,1.19h0.34c-0.12,0.18-0.27,0.27-0.35,0.41
		c-0.14,0.25-0.05,0.39-0.33,0.54s-1.12-0.1-1.62-0.1c-0.17,0.25-0.17,0.11-0.25,0.43c0.26,0.01,0.31,0.04,0.51,0.08
		c-0.08,0.34-0.07,0.46,0,0.77c-0.43,0.29-1.17,0.7-1.45,1.11c0.3,0.08,0.26,0.05,0.34,0.34c-0.71,0.17-0.92,0.71-1.19,1.28h0.68
		c-0.09,0.18-0.12,0.2-0.17,0.43c0.35,0.24,0.57,0.26,1.02,0.26c0,0.41,0.03,0.42,0.17,0.68c-0.41,0.22-0.47,0.27-0.68,0.68
		c-0.56-0.3-0.82-0.42-1.45-0.08c0.2,0.27,0.14,0.07,0.34,0.34c-0.28,0.41-0.88,0.47-0.94,1.11c0.36-0.17,0.67-0.08,1.02,0
		c0,0.5-0.01,0.63,0.08,1.02h0.68c-0.07,0.29-0.14,0.45-0.34,0.6c0.06-0.27,0.09-0.13,0-0.34c-0.34,0-0.6,0.12-0.68,0.43
		c-0.32-0.08-0.11-0.09-0.43-0.17l-0.24,0.27c-0.33-0.17-0.48-0.18-0.79-0.1c0.09,0.34,0.32,0.39,0.51,0.68
		c-0.23,0.02-0.3,0.03-0.45,0.15c-0.28,0.21-0.25,0.53-0.4,0.79c-0.59,1.02,0.17,0.67,0.51,0.59v0.25c0.42-0.01,0.54-0.16,0.94-0.25
		c-0.14,0.39,0,0.01-0.17,0.25c-0.53,0.77,0.07,0.4-0.7,0.83c-0.15,0.09-0.43,0.43-0.35,0.61c0.09,0.2,0.46,0.02,0.8,0.02
		c-0.18,0.27-0.67,0.97,0,1.02c0,0.1-0.01,0.32,0.01,0.42c0.08,0.35,0.07,0.2,0.25,0.27c-0.14,0.2-0.27,0.27-0.27,0.45l0.02,0.11
		c0.02,0.2-0.37,0.14-0.49,0.08c-0.65-0.3-0.19,0.43-0.35,0.73c-0.13,0.24-0.23,0.1-0.27,0.58c-0.43,0-0.35,0-0.6,0.17
		c-0.09-0.41-0.26-1.12-0.6-1.36c-0.24,0.16-0.31,0.31-0.34,0.68h-0.17c-0.09-0.35-0.34-0.43-0.68-0.43
		c-0.11,0.24-0.08,0.17-0.08,0.51c-0.37,0.03-0.15-0.01-0.43,0.17c-0.27-0.41-0.47-0.16-0.51-0.68c-0.41,0-0.35,0.06-0.68,0.09
		c-0.22-0.41-0.52-0.59-1.02-0.6v0.34c-1.04,0-0.88-0.8-1.75-0.91c-0.26-0.03-0.14-0.11-0.23,0.07c-0.06,0.14,0.07,0.09,0.02,0.24
		c-0.12,0.35-0.34,0.35-0.48,0.72c-0.37,0.98-0.97,0.39-2.34,0.39c-0.19,0.28-0.22,0.12-0.26,0.51c0.43,0,0.35,0,0.6,0.17
		c-0.14,0.53-0.31,0.27,0,0.85c-0.47,0.31-1.64,0.89-1.79,1.45c0.35,0.03,0.35,0.04,0.43,0.34c-0.67,0.16-1.39,0.89-1.45,1.62
		c0.27-0.13,0.39-0.09,0.77-0.09c-0.09,0.39-0.31,0.48,0.04,0.72c0.29,0.19,0.71,0.21,1.07,0.21c0,0.44,0.09,0.51,0.17,0.85
		c-0.41,0.1-0.67,0.35-0.77,0.77c-0.55-0.15-0.9-0.68-1.79-0.09c0.27,0.37,0.6,0.3,0.09,0.69c-0.38,0.29-0.81,0.44-0.86,1.02
		c0.35-0.03,0.19-0.08,0.51-0.08c0.43,0,0.38,0.08,0.77,0.08c-0.11,0.47-0.02,0.93,0.09,1.36c0.35-0.08,0.4-0.09,0.85-0.09
		c-0.08,0.16-0.21,0.5-0.25,0.68c0.61,0.14,1.77,0.42,0.83,1.08c-0.3,0.21-0.54,0.59-0.57,0.96c-0.29-0.08-0.2-0.09-0.43-0.26
		c-0.29-0.21-0.63-0.26-0.94-0.43s-0.07-0.22-0.51-0.25c-0.24,1.05,0.29,1.3,0.68,2.04h-0.77c0.01,0.38,0.15,0.5,0.39,0.72
		l0.42,0.18c0.24,0.04,0.26,0,0.46-0.05l0.04,1.24c0.15,0.31,0.32,0.37,0.57,0.55c0.39,0.28-0.15,0.21,0.31,0.62
		c0.17,0.16,0.18,0.13,0.37,0.23c-0.49,0.74-0.8,0.57-1.42,0.31c-0.29-0.12-0.62-0.14-0.96-0.14c-0.25,0.47-0.11,0.42-0.6,0.68
		c0.12,0.16,0.18,0.14,0.26,0.34c-0.1,0.11,0.01-0.06-0.11,0.14c-0.04,0.06-0.09,0.16-0.12,0.22c-0.08,0.17-0.13,0.26-0.18,0.41
		c-0.13,0.35-0.18,0.64-0.27,1.01c-0.35-0.18-0.64-0.17-1.02-0.09c0.2,0.77,0.26-0.07,0.26,1.62c-0.73,0.02-0.64,0.36-0.96,0.75
		c-0.34,0.42-0.64,0.39-0.66,1.13c0.45,0,0.48-0.08,0.85-0.09c-0.03,0.33-0.09,0.27-0.09,0.68c0.2-0.11,0.22-0.15,0.51-0.17
		c0,0.6,0.03,0.78-0.17,1.19c0.27-0.06,0.37-0.14,0.68-0.17c-0.26,0.5-0.34,0.85-0.34,1.62c0.55-0.13,0.48-0.73,0.94-0.85
		c0,0.35-0.03,0.27,0.09,0.51c1.09-0.26,0.34-0.01,0.34,1.19c0.71,0,1.46-0.22,2.04-0.09l-0.1,0.85c0.52,0,1.04-0.16,1.35-0.37
		c0.35-0.24,0.54-0.59,0.89-0.82c-0.11,0.48-0.2,0.46-0.09,0.94c0.33-0.09,0.32-0.24,0.6-0.43l-0.09,0.94h-0.51
		c0.08,0.17,0.12,0.39,0.17,0.6c-0.26,0.07-0.19,0-0.26,0.25c-0.64,0-0.72-0.07-1.16,0.2c-0.59,0.36-0.5,0.37-0.33,0.52
		c5.99,2.73,10.11,6.81,12.38,12.26l0.02,0.06c0.82,2.09,1.42,5.09,1.81,9.01c0.33,3.35,0.52,7.36,0.56,12.03l0.1,0.01
		c-0.01,0.13-0.05,0.27-0.09,0.4c0,0.48,0,0.96,0,1.46v1.83l0.6-0.45l0.1,0.34c0.51-0.04,0.93-0.45,1.35-0.68
		c0.02,0.28,0.11,0.51,0.17,0.77c0.54-0.01,0.47-0.26,0.85-0.51l0.43,0.42c1.03,0.79,0.76-0.18,0.76-0.42
		c0.51,0.34,0.7,0.77,1.02,0.85c0.25-1.07,0.09-0.78,0.09-1.7h0.34c0-0.66-0.31-0.99-0.85-1.28c0.09-0.18,0.12-0.2,0.17-0.43
		c0.34,0.09,0.18,0.11,0.46,0.31c0.17,0.12,0.39,0.2,0.56,0.29c0.26-0.19,0.14,0.05,0.17-0.34c0.28,0.2,0.34,0.38,0.78,0.67
		l0.59,0.43c0.13,0.13,0.04,0.11,0.24,0.18c0.24-0.49,0.16-1.03,0.43-1.53l0.94,0.08c0.01-0.31,0.06-0.3,0.06-0.5
		c0-0.11-0.06-0.25-0.06-0.52c0.62,0,0.36-0.17,0.85,0.09c-0.01,0.35-0.09,0.32-0.09,0.51c0,0.37,0.18,0.48,0.26,0.77
		c0.4-0.11,0.45-0.57,0.94-0.68c0,0,3.61-1.01,3.92-2.98c0.31-1.98,0.1-0.45,0.17-0.77c-0.25-0.12-0.42-0.08-0.51-0.34
		c0.44-0.37,1.06,0.32,1.37,0.34c0.03-0.41,0.14-0.29,0.34-0.6c-0.14-0.26-0.27-0.45-0.43-0.68c0.47,0.11,0.29,0.18,0.51,0.6
		c0.27-0.2,0.07-0.14,0.34-0.34c0.38,0.18,0.8,0.17,1.36,0.17c-0.15-0.29-0.06-0.24-0.34-0.43c0.2-0.28,0.43,0.36,0.43-0.6
		c0.35-0.08,0.33-0.08,0.68,0c0,0.74-0.25,0.66,0.08,1.28l0.71-0.58c0.33-0.29,0.53-0.09,0.57-0.61h0.17
		c0.1,0.42,0.3,0.68,0.77,0.68c0.06-0.12,0.07-0.04,0.06-0.18c-0.01-0.18,0-0.06-0.06-0.16l0.17-0.04l0.02,0.02
		c0.22,0.22,0.56,0.23,0.89,0.16c0.22-0.05,0.12,0.06,0.19-0.22c0.24,0.07,0.96,0.52,0.45-0.18c-0.19-0.26-0.58-0.59-0.88-0.67
		v-0.34c0.32-0.07,0.24-0.14,0.6-0.17c-0.03-0.39-0.07-0.23-0.26-0.51l0.6-0.17c-0.05-0.54-0.27-0.64-0.65-0.89
		c-0.15-0.1-0.15-0.13-0.29-0.22c-0.58,0.01-0.62,0.22-1.19,0.09c0-0.34,0.03-0.34,0.09-0.6c0.68-0.33,0.5,0.01,0.45-0.7
		c-0.02-0.32,0.03-0.13,0.06-0.49c-0.22-0.14-0.27-0.14-0.34-0.43c0.48-0.13,0.76-0.69,1.53-0.17c0.26-0.19,0.14,0.06,0.17-0.34
		c0.16,0.09,0.16,0.07,0.32,0.19c0.3,0.25,0.49,0.39,0.62-0.11h0.17c0.02,0.28,0.04,0.33,0.25,0.43c0.34,0.16,0.11-0.05,0.5,0.1
		c0.52,0.2,0.25-0.04,0.4-0.48l0.12-0.22c0.2,0.11,0.22,0.15,0.51,0.17c0.05-0.19,0.06-0.2,0.09-0.43c0.4,0.29,0.1,0.5,0.85,0.68
		c0,0.51-0.01,0.9,0.51,1.02c-0.07,0.29-0.21,0.58,0.17,0.68c-0.22,0.33-0.32,0.49-0.42,0.94c0.14,0.06,0.04,0.02,0.17,0.05
		l0.13,0.03c0.01,0,0.02,0,0.04,0.01c0.01,0.26,0.17,0.85,0.25,1.02c0.3-0.08,0.19-0.03,0.34-0.26c0.02,0.01,0.05,0,0.05,0.03
		l0.11,0.06c0.16,0.07-0.18,0.03,0.26,0.08c0.15-0.22,0.14-0.17,0.24-0.45c0.08-0.23-0.02-0.04,0.09-0.25
		c0.05-0.09,0.11-0.13,0.18-0.24c0.24,0.12,0.7,0.23,1.02,0.26c0.02,0.24,0.14,1.28,0.48,1c0.01-0.01,0.03-0.03,0.04-0.04
		s0.03-0.04,0.04-0.05s0.02-0.04,0.04-0.05c0.13,0.53,0.31,0.61,0.43,1.11c0.3-0.08,0.13-0.06,0.32-0.2c0.28-0.2,0.27,0.18,0.5-0.16
		c0.11-0.15,0.1-0.21,0.11-0.41c0.48,0.23,0.51-0.18,0.51-0.68h0.17c0,0.51-0.05,0.98,0.51,0.68c0.03,0.4-0.09,0.15,0.17,0.34
		c0.02-0.01,0.04-0.05,0.05-0.04c0.01,0.02,0.04-0.03,0.05-0.04l0.31-0.2c0.17-0.14,0.17-0.19,0.36-0.32
		c0.25,0.17,0.11,0.17,0.43,0.26c0.11-0.48,0.12-0.32,0.47-0.55c0.41-0.28,0.13-0.22,0.81-0.22c-0.04-0.49-0.13-0.11-0.17-0.6
		c0.27,0.1,0.26,0.33,0.51,0.51c0.23-0.17,0.25-0.37,0.25-0.77c0.2,0.14,0.09,0.1,0.34,0.17c0.09-0.4,3.25-1.12,3.58-1.19v0.34
		c0.31-0.03,0.67-0.35,0.73-0.32l0.29,0.05c0.01,0,0.04,0.01,0.05,0.01c0.01,0,0.2,0.35,0.22-0.33h0.34l0.17-0.34
		c0.18,0.5,0.36,0.17,0.43,0.17c0.2,0,0.1,0.03,0.34,0.09c-0.04-0.44,0.04-0.81-0.42-0.94v-0.17c0.28-0.07,0.06,0.02,0.28-0.15
		c0.33-0.25,0.48-0.37,0.49,0.23c0.44-0.04,0.62-0.36,0.87-0.02c0.13,0.17,0.02,0.1-0.02,0.44l0.34,0.51
		c0.08-0.05,0.14-0.12,0.19-0.15l0.66-0.37c0.07,0.28,0.15,0.35,0.43,0.43v-0.34l0.24,0.18c0.01-0.69,0.04-0.26,0.2-0.59
		c0.12-0.26-0.14-0.27,0.24-0.19c-0.07-0.26-0.05-0.24-0.31-0.38L348.07,105.28z M367.76,29.7h0.34v0.09h-0.34V29.7z M321.49,111.16
		l0.02,0.03C321.51,111.18,321.48,111.17,321.49,111.16z M321.66,111.07l0.03,0.03C321.68,111.1,321.65,111.08,321.66,111.07z
		 M341.08,104.17l0.03,0.02C341.11,104.2,341.08,104.18,341.08,104.17z M290.13,79.97h-0.26c0.01-0.44-0.08-0.25,0.17-0.43
		C290.07,79.57,290.29,79.62,290.13,79.97z M285.19,71.28l-0.01,0.25c-0.33-0.02-0.26-0.03-0.41-0.25c0.03,0.01,0.18,0.05,0.2,0.05
		l0.12-0.01c0.01,0,0.04-0.02,0.05-0.02C285.15,71.3,285.17,71.29,285.19,71.28z M390.68,59.44c0.09-0.12,0.09-0.18,0.17,0.17
		l-0.09-0.09C390.47,59.23,391.02,59.58,390.68,59.44z M297.54,53.13c0.26,0.19,0.14-0.05,0.17,0.34c-0.06-0.07-0.06-0.02-0.11-0.14
		C297.53,53.17,297.57,53.2,297.54,53.13z M383.01,52.96l0.03,0.03C383.03,52.98,383,52.97,383.01,52.96z M300.95,49.98
		c0.01,0.14,0.46,1.02-0.08,1.02c-0.31,0-0.3-0.1-0.6-0.17C300.8,50.04,300.46,50.02,300.95,49.98z M299.4,50.76
		c-0.01-0.04,0.48-0.33,0.53-0.36l0.09,0.34c-0.03-0.01-0.15-0.23-0.52,0.09L299.4,50.76z M381.9,45.72
		c0.23-0.02,0.23-0.04,0.43-0.09C382.14,45.92,382.12,46.02,381.9,45.72z M301.46,45.38l0.03,0.03
		C301.49,45.4,301.45,45.39,301.46,45.38z M315.95,28.68c0.04,0.04-0.06,0.2,0.02,0v-0.01L315.95,28.68z M315.78,28.42l0.02,0.03
		C315.8,28.44,315.77,28.43,315.78,28.42z M328.22,23.99l0.03,0.02C328.24,24.01,328.21,24,328.22,23.99z"/>
	<path class="st2" d="M341.08,104.17l0.03,0.02C341.11,104.2,341.08,104.18,341.08,104.17z"/>
	<path class="st3" d="M350.63,105.11l-0.38,0.22c-0.4,0.38-0.83,0.51-0.9,0.8h-0.17c-0.1-0.36-0.04-0.13-0.24-0.27l-0.37-0.39
		c-0.02-0.02-0.08-0.05-0.1-0.06c-0.22-0.12-0.02-0.09-0.39-0.12l-0.56,0.22c0.26,0.14,0.24,0.11,0.31,0.38
		c-0.38-0.08-0.11-0.07-0.24,0.19c-0.16,0.33-0.19-0.1-0.2,0.59l-0.24-0.18v0.34c-0.28-0.07-0.35-0.15-0.43-0.42l-0.66,0.36
		c-0.05,0.03-0.11,0.09-0.19,0.15l-0.34-0.51c0.03-0.34,0.14-0.27,0.01-0.44c-0.25-0.34-0.43-0.02-0.87,0.02
		c-0.01-0.6-0.16-0.48-0.49-0.23c-0.22,0.17,0,0.07-0.28,0.15v0.17c0.46,0.12,0.39,0.5,0.42,0.94c-0.24-0.06-0.14-0.09-0.34-0.09
		c-0.06,0-0.25,0.33-0.43-0.17l-0.17,0.34h-0.34c0,0.09-0.01,0.16-0.02,0.22c-0.07,1.17-0.15,2.34-0.21,3.42
		c-0.44,8.26-3.09,11.73-3.16,12.51c-0.55-0.39-2.14-3.81-2.53-4.73c-0.75-1.78-1.21-3.66-1.56-5.83c-0.06-0.41-0.23-1.48-0.38-2.64
		c-0.01,0-0.01,0.01-0.01,0.01l-0.31,0.2c-0.01,0.01-0.04,0.05-0.05,0.04c-0.01-0.01-0.03,0.02-0.05,0.04
		c-0.26-0.19-0.14,0.05-0.17-0.34c-0.57,0.3-0.51-0.17-0.51-0.68h-0.17c0,0.5-0.03,0.91-0.51,0.68c-0.02,0.19-0.01,0.25-0.11,0.41
		c-0.23,0.34-0.22-0.04-0.5,0.16c-0.19,0.14-0.02,0.12-0.33,0.2c-0.03-0.14-0.07-0.24-0.11-0.33c0.02,0.22,0.04,0.43,0.06,0.65
		c0.42,4.42,1.71,10.68,3.26,13.91c0.73,1.53,2.09,4.57,1.7,6.62c-1.39,7.32-0.55,11.19-0.48,18.35l-0.05,2.31
		c-0.05,4.49-0.08,29.56-0.93,33.97c-0.11,0.55-0.44,1.47-0.44,1.94c0.38,0.1,2.1,1.38,4.46,1.6h1.35c0.6-0.06,1.22-0.19,1.87-0.43
		c0.56-0.21,1.35-0.8,1.69-0.9c0-2.12-2.31-34.71-2.56-39.55c-0.06-1.17-0.17-2.39-0.26-3.63l-0.2-3.78
		c-0.18-1.33,0.31-2.12,0.68-3.09c1.88-4.89,4.07-10.12,4.04-15.58l0.39-7.58c0.32-2.59,0.48-4.48,1.18-6.67
		c0.36-1.14,0.56-0.97,1.91-1.91c0.22-0.15,0.42-0.3,0.63-0.45C350.56,105.95,350.63,105.37,350.63,105.11"/>
</g>
</svg>
