<svg xmlns="http://www.w3.org/2000/svg" width="99.419" height="99.419" viewBox="0 0 99.419 99.419">
  <g id="Group_260" data-name="Group 260" transform="translate(-1281.58 -391.248)">
    <g id="Group_259" data-name="Group 259" transform="translate(1281.58 391.248)">
      <path id="Path_543" data-name="Path 543" d="M1298.455,423.4h42.4a1.942,1.942,0,0,0,0-3.884h-42.4a1.942,1.942,0,1,0,0,3.884Z" transform="translate(-1281.115 -390.368)" fill="#fff"/>
      <path id="Path_544" data-name="Path 544" d="M1308.16,412.857h22.388a1.942,1.942,0,1,0,0-3.883H1308.16a1.942,1.942,0,0,0,0,3.883Z" transform="translate(-1280.813 -390.696)" fill="#fff"/>
      <path id="Path_545" data-name="Path 545" d="M1298.455,433.949h42.4a1.942,1.942,0,0,0,0-3.884h-42.4a1.942,1.942,0,1,0,0,3.884Z" transform="translate(-1281.115 -390.04)" fill="#fff"/>
      <path id="Path_546" data-name="Path 546" d="M1302.953,454.745a2.379,2.379,0,0,1,2.556,2.142,1.942,1.942,0,0,0,3.884,0,6.1,6.1,0,0,0-4.5-5.744v-.27a1.942,1.942,0,1,0-3.883,0v.27a6.1,6.1,0,0,0-4.5,5.744,6.25,6.25,0,0,0,6.441,6.024,2.175,2.175,0,1,1-2.557,2.142,1.942,1.942,0,0,0-3.884,0,6.1,6.1,0,0,0,4.5,5.744v.27a1.942,1.942,0,1,0,3.883,0v-.27a6.094,6.094,0,0,0,4.5-5.744,6.25,6.25,0,0,0-6.44-6.025,2.175,2.175,0,1,1,0-4.282Z" transform="translate(-1281.115 -389.453)" fill="#fff"/>
      <path id="Path_547" data-name="Path 547" d="M1319.655,440.611h-21.2a1.942,1.942,0,1,0,0,3.883h21.2a1.942,1.942,0,0,0,0-3.883Z" transform="translate(-1281.115 -389.712)" fill="#fff"/>
      <path id="Path_548" data-name="Path 548" d="M1380.43,458.087l-22.344-22.343V393.19a1.942,1.942,0,0,0-1.942-1.942h-72.622a1.942,1.942,0,0,0-1.942,1.942v95.536a1.942,1.942,0,0,0,1.942,1.942h91.73a1.942,1.942,0,0,0,1.942-1.942V461.4h1.864a1.942,1.942,0,0,0,1.372-3.315Zm-94.967-62.955H1354.2v36.774a1.937,1.937,0,0,0-2.479.222l-25.959,25.959a1.941,1.941,0,0,0,1.372,3.315H1329v25.382h-43.538Zm60.838,91.652V469.946h13.592v16.838Zm27.009,0h-9.534V468a1.942,1.942,0,0,0-1.942-1.942h-17.475a1.942,1.942,0,0,0-1.943,1.942v18.78h-9.533V461.4h11.475a1.942,1.942,0,1,0,0-3.883h-12.535l21.273-21.273,21.272,21.273h-12.534a1.942,1.942,0,0,0,0,3.883h11.475v25.382Z" transform="translate(-1281.58 -391.248)" fill="#fff"/>
      <path id="Path_549" data-name="Path 549" d="M1351,455.519a1.942,1.942,0,1,0,1.373.569A1.953,1.953,0,0,0,1351,455.519Z" transform="translate(-1279.48 -389.248)" fill="#fff"/>
    </g>
  </g>
</svg>
