<svg xmlns="http://www.w3.org/2000/svg" width="104.71" height="100.148" viewBox="0 0 104.71 100.148">
  <g id="Group_271" data-name="Group 271" transform="translate(-1335.15 -668.53)">
    <g id="Group_262" data-name="Group 262" transform="translate(1343.938 729.846)">
      <g id="Group_261" data-name="Group 261">
        <path id="Path_550" data-name="Path 550" d="M1348.177,745.152a2.044,2.044,0,1,0,2.044,2.044A2.045,2.045,0,0,0,1348.177,745.152Z" transform="translate(-1346.132 -745.152)" fill="#fff"/>
      </g>
    </g>
    <g id="Group_264" data-name="Group 264" transform="translate(1335.15 721.671)">
      <g id="Group_263" data-name="Group 263">
        <path id="Path_551" data-name="Path 551" d="M1436.442,749.881a7.888,7.888,0,0,0-7.2-.963l-.052.02-19.314,7.577a8.16,8.16,0,0,0-8.093-9.316h-13.236a2.049,2.049,0,0,1-1-.263l-10.8-6.073a14.312,14.312,0,0,0-7.016-1.839H1356.2v-2.044a2.044,2.044,0,0,0-2.044-2.045h-16.963a2.045,2.045,0,0,0-2.045,2.045v36.788a2.044,2.044,0,0,0,2.045,2.044h16.963a2.043,2.043,0,0,0,2.044-2.044v-2.044h1.538l19.5,7.893a31.851,31.851,0,0,0,25.135-.533l.031-.014,32.5-15.452a7.879,7.879,0,0,0,1.538-13.738Zm-84.327,21.843h-12.876v-32.7h12.876Zm81.206-11.875c-.04.016-.079.033-.119.051l-32.537,15.47a27.758,27.758,0,0,1-21.894.457l-19.868-8.042a2.041,2.041,0,0,0-.767-.149H1356.2V743.111h13.524a10.227,10.227,0,0,1,5.011,1.314l10.8,6.073a6.136,6.136,0,0,0,3.008.788h13.235a4.085,4.085,0,0,1,2.141,7.565l-.015.006a2.107,2.107,0,0,0-.427.232,4.064,4.064,0,0,1-1.7.372H1381a6.138,6.138,0,0,0-6.131,6.131,2.044,2.044,0,1,0,4.088,0,2.046,2.046,0,0,1,2.044-2.044h20.777a8.138,8.138,0,0,0,3.906-1l24.965-9.795a3.791,3.791,0,0,1,2.671,7.095Z" transform="translate(-1335.15 -734.936)" fill="#fff"/>
      </g>
    </g>
    <g id="Group_266" data-name="Group 266" transform="translate(1343.938 738.021)">
      <g id="Group_265" data-name="Group 265">
        <path id="Path_552" data-name="Path 552" d="M1348.177,755.368a2.045,2.045,0,0,0-2.045,2.044v12.263a2.044,2.044,0,0,0,4.088,0V757.413A2.044,2.044,0,0,0,1348.177,755.368Z" transform="translate(-1346.132 -755.368)" fill="#fff"/>
      </g>
    </g>
    <g id="Group_268" data-name="Group 268" transform="translate(1379.247 668.53)">
      <g id="Group_267" data-name="Group 267">
        <path id="Path_553" data-name="Path 553" d="M1448.666,689.426l-.027-.022-24.174-19.462a6.123,6.123,0,0,0-7.838.014l-24.154,19.619-.025.02a6.131,6.131,0,0,0,5.624,10.593V727.8a2.044,2.044,0,0,0,2.044,2.045h40.876a2.045,2.045,0,0,0,2.044-2.045V700.02a6.128,6.128,0,0,0,5.631-10.594Zm-24.026,36.332h-8.175v-16.35h8.175Zm14.307,0h-10.219V707.365a2.044,2.044,0,0,0-2.044-2.045H1414.42a2.044,2.044,0,0,0-2.044,2.045v18.393h-10.219V697.51l18.409-14.894,18.38,14.733v28.409Zm7.364-30.314a2.052,2.052,0,0,1-2.884.257l-.028-.022L1421.839,678.4a2.043,2.043,0,0,0-2.564.006l-21.547,17.433-.031.026a2.044,2.044,0,0,1-2.634-3.127l24.152-19.616.026-.022a2.04,2.04,0,0,1,2.621,0l.027.022,24.17,19.459A2.048,2.048,0,0,1,1446.31,695.444Z" transform="translate(-1390.254 -668.53)" fill="#fff"/>
      </g>
    </g>
    <g id="Group_270" data-name="Group 270" transform="translate(1403.412 688.971)">
      <g id="Group_269" data-name="Group 269">
        <path id="Path_554" data-name="Path 554" d="M1426.584,694.073a6.131,6.131,0,1,0,6.131,6.131A6.139,6.139,0,0,0,1426.584,694.073Zm0,8.175a2.044,2.044,0,1,1,2.044-2.044A2.047,2.047,0,0,1,1426.584,702.248Z" transform="translate(-1420.453 -694.073)" fill="#fff"/>
      </g>
    </g>
  </g>
</svg>
