<svg xmlns="http://www.w3.org/2000/svg" width="98.574" height="98.574" viewBox="0 0 98.574 98.574">
  <g id="Group_258" data-name="Group 258" transform="translate(-1345.973 -108.093)">
    <path id="Path_539" data-name="Path 539" d="M1440.424,152.451h-5.734v-10.3a4.5,4.5,0,0,0-4.488-4.489h-5.369V133.7l-.814-.813v0L1412.031,120.9l-12.805-12.8h-40.109v18.072h-8.655a4.5,4.5,0,0,0-4.489,4.488v71.774h.01a4.2,4.2,0,0,0,4.2,4.24h73.535a4.171,4.171,0,0,0,4.025-2.979l16.8-46.063v-.291C1444.547,154.505,1442.812,152.451,1440.424,152.451Zm-10.222-11.5a1.2,1.2,0,0,1,1.2,1.2v10.3h-6.571v-11.5ZM1400.189,113.7l19.035,19.033h-19.035Zm-37.787-2.325h34.5v24.643h24.644v16.429h-54.658a4.189,4.189,0,0,0-.693.058,4.144,4.144,0,0,0-3.332,2.921l-.462,1.268V111.379Zm-13.143,19.274a1.2,1.2,0,0,1,1.2-1.2h8.655v36.2l-9.858,26.884Zm75.358,72.043a.927.927,0,0,1-.895.685h-73.535a.909.909,0,0,1-.736-.364.9.9,0,0,1-.2-.671l9.868-27.062v.009l6.834-18.736.043-.135a.93.93,0,0,1,.9-.685h73.535c.624,0,.783.9.824,1.346Z" fill="#fff"/>
    <path id="Path_540" data-name="Path 540" d="M1372.26,136.022h16.429a1.643,1.643,0,1,0,0-3.285H1372.26a1.643,1.643,0,1,0,0,3.285Z" fill="#fff"/>
    <path id="Path_541" data-name="Path 541" d="M1372.26,124.522h16.429a1.643,1.643,0,1,0,0-3.286H1372.26a1.643,1.643,0,1,0,0,3.286Z" fill="#fff"/>
    <path id="Path_542" data-name="Path 542" d="M1372.26,147.523h39.429a1.643,1.643,0,1,0,0-3.286H1372.26a1.643,1.643,0,1,0,0,3.286Z" fill="#fff"/>
  </g>
</svg>
