<svg xmlns="http://www.w3.org/2000/svg" width="52.099" height="52.1" viewBox="0 0 52.099 52.1"><path d="M369.311,481.439a26.05,26.05,0,1,1-26.05,26.05,26.049,26.049,0,0,1,26.05-26.05" transform="translate(-343.261 -481.439)" fill="#8fcb5d" fill-rule="evenodd"/><path d="M402.6,522.617a.487.487,0,1,0-.077.365.491.491,0,0,0,.077-.365" transform="translate(-374.659 -503.374)" fill="#5716a3"/><path d="M406.393,525.214a.487.487,0,1,0-.077.365.492.492,0,0,0,.077-.365" transform="translate(-376.699 -504.771)" fill="#5716a3"/><path d="M410.187,527.81a.487.487,0,1,0-.077.365.5.5,0,0,0,.077-.365" transform="translate(-378.74 -506.168)" fill="#5716a3"/><path d="M413.981,530.407a.487.487,0,0,0-.88-.184.486.486,0,0,0,.491.753.487.487,0,0,0,.389-.568" transform="translate(-380.78 -507.565)" fill="#5716a3"/><path d="M417.774,533a.487.487,0,1,0-.077.365.494.494,0,0,0,.077-.365" transform="translate(-382.821 -508.961)" fill="#5716a3"/><path d="M411.112,518.319a.487.487,0,1,0-.077.366.492.492,0,0,0,.077-.366" transform="translate(-379.237 -501.063)" fill="#5716a3"/><path d="M414.906,520.917a.487.487,0,1,0-.077.365.492.492,0,0,0,.077-.365" transform="translate(-381.278 -502.459)" fill="#5716a3"/><path d="M418.7,523.513a.486.486,0,1,0-.077.365.5.5,0,0,0,.077-.365" transform="translate(-383.318 -503.856)" fill="#5716a3"/><path d="M401.674,532.108a.486.486,0,1,0-.077.365.491.491,0,0,0,.077-.365" transform="translate(-374.161 -508.479)" fill="#5716a3"/><path d="M405.467,534.7a.489.489,0,0,0-.2-.311.485.485,0,0,0-.677.127.487.487,0,1,0,.88.185" transform="translate(-376.201 -509.876)" fill="#5716a3"/><path d="M409.261,537.3a.487.487,0,1,0-.077.365.5.5,0,0,0,.077-.365" transform="translate(-378.242 -511.272)" fill="#5716a3"/><path d="M406.64,520.446a.487.487,0,0,0-.568-.389.487.487,0,1,0,.568.389" transform="translate(-376.832 -502.207)" fill="#5716a3"/><path d="M410.433,523.043a.486.486,0,1,0-.077.365.49.49,0,0,0,.077-.365" transform="translate(-378.872 -503.603)" fill="#5716a3"/><path d="M414.226,525.639a.486.486,0,1,0-.077.365.49.49,0,0,0,.077-.365" transform="translate(-380.912 -505)" fill="#5716a3"/><path d="M418.02,528.236a.487.487,0,1,0-.077.365.491.491,0,0,0,.077-.365" transform="translate(-382.953 -506.397)" fill="#5716a3"/><path d="M402.038,527.168a.487.487,0,1,0-.077.365.492.492,0,0,0,.077-.365" transform="translate(-374.356 -505.822)" fill="#5716a3"/><path d="M405.831,529.765a.487.487,0,1,0-.753.492.489.489,0,0,0,.365.077.486.486,0,0,0,.389-.568" transform="translate(-376.397 -507.219)" fill="#5716a3"/><path d="M409.625,532.362a.486.486,0,1,0-.077.365.49.49,0,0,0,.077-.365" transform="translate(-378.437 -508.616)" fill="#5716a3"/><path d="M413.418,534.959a.486.486,0,1,0-.077.365.489.489,0,0,0,.077-.365" transform="translate(-380.478 -510.012)" fill="#5716a3"/><path d="M386.624,528.97a1.277,1.277,0,0,0-.313-.305l-1.728-1.183a1.306,1.306,0,0,0-.4-.182,12.81,12.81,0,0,0,1.5-4,7.284,7.284,0,0,0,.688.858,18.1,18.1,0,0,1-.81,2.357.483.483,0,0,0-.022.33.947.947,0,0,0,.377.53,1.019,1.019,0,0,0,.641.172.488.488,0,0,0,.314-.147,13.02,13.02,0,0,1,1.855-1.615,7.114,7.114,0,0,0,1.085.347,12.874,12.874,0,0,0-3.184,2.839m-2.095.9-1.344-.92.4-.581a.328.328,0,0,1,.45-.085l1.728,1.183a.328.328,0,0,1,.085.45l-3.413,4.986-2.262-1.549,2.465-3.6,1.345.92a.487.487,0,1,0,.549-.8Zm-2.824,6.5-2.639-1.806a.323.323,0,1,1,.365-.534l2.639,1.807a.323.323,0,1,1-.365.533Zm5.77-11.26c.091.062.183.121.276.178q-.491.38-1,.855c.13-.346.283-.782.421-1.253C387.273,524.966,387.373,525.04,387.475,525.111Zm14.769-10.293a9.6,9.6,0,0,0-10.519-7.2,8.347,8.347,0,0,0-5.686,3.6,10.174,10.174,0,0,0-.9,1.622.487.487,0,0,0,.891.394,9.106,9.106,0,0,1,.811-1.465c2.457-3.59,7.168-4.34,10.959-1.745s4.8,7.258,2.339,10.847a10.969,10.969,0,0,1-5.677,4.051,7.37,7.37,0,0,1-6.438-.616c-2.085-1.427-3.188-4.346-2.879-7.617a.487.487,0,0,0-.969-.092,11.243,11.243,0,0,0,.543,4.794c.005.014.818,2.4-2.349,7.026L379.233,533a1.3,1.3,0,0,0-.716,2.365l2.64,1.806a1.3,1.3,0,0,0,1.946-1.523l3.138-4.585c2.683-3.781,4.774-4.568,5.638-4.726a10.526,10.526,0,0,0,2.874-.488,11.968,11.968,0,0,0,6.193-4.431A8.346,8.346,0,0,0,402.245,514.817Z" transform="translate(-361.921 -495.468)" fill="#5716a3"/><path d="M392.866,522.721c.058-.263.125-.526.2-.782a.487.487,0,1,0-.933-.276c-.082.278-.155.563-.218.849a.474.474,0,0,0,.371.579.485.485,0,0,0,.58-.371" transform="translate(-369.424 -502.887)" fill="#5716a3"/><path d="M403.192,525.29a4.928,4.928,0,0,1-7.033-4.814,9.132,9.132,0,0,1,1.414-5.626,5.643,5.643,0,0,1,3.807-2.433,6.859,6.859,0,0,1,7.435,5.089,5.645,5.645,0,0,1-.891,4.429,9.134,9.134,0,0,1-4.733,3.354m3.409-12.524c-3.409-2.333-7.635-1.674-9.831,1.534a10.132,10.132,0,0,0-1.582,6.244,5.885,5.885,0,0,0,8.292,5.676,10.136,10.136,0,0,0,5.249-3.734C410.924,519.278,410.01,515.1,406.6,512.766Z" transform="translate(-371.178 -497.54)" fill="#5716a3"/><path d="M379.872,512.179a1.974,1.974,0,1,0,.576,1.393,1.966,1.966,0,0,0-.576-1.393m-1.393-1.54a2.938,2.938,0,1,1-2.074.861A2.927,2.927,0,0,1,378.479,510.639Z" transform="translate(-360.626 -497.145)" fill="#5716a3"/></svg>