<svg xmlns="http://www.w3.org/2000/svg" width="62" height="62" viewBox="0 0 62 62"><g transform="translate(-725 -990)"><circle cx="31" cy="31" r="31" transform="translate(725 990)" fill="#8fcb5d"/><path d="M24.63,24.642l-5.2-5.891h1.994a1.479,1.479,0,0,0,1.353-.85,1.435,1.435,0,0,0-.214-1.566l-5.087-5.917h1.881a1.475,1.475,0,0,0,1.358-.886,1.449,1.449,0,0,0-.276-1.568L13.259.314a1.072,1.072,0,0,0-1.518,0L4.561,7.963a1.45,1.45,0,0,0-.276,1.568,1.476,1.476,0,0,0,1.359.886H7.525L2.438,16.336A1.437,1.437,0,0,0,2.225,17.9a1.479,1.479,0,0,0,1.353.85H5.572L.37,24.642a1.439,1.439,0,0,0-.232,1.579,1.51,1.51,0,0,0,1.368.863h8.91v1.592L8.445,31.827a1.042,1.042,0,0,0,.932,1.508h6.248a1.042,1.042,0,0,0,.932-1.508l-1.972-3.151V27.084h8.91a1.51,1.51,0,0,0,1.368-.863A1.439,1.439,0,0,0,24.63,24.642Z" transform="translate(743 1003.667)" fill="none" stroke="#5716a3" stroke-width="1.7"/></g></svg>