<svg xmlns="http://www.w3.org/2000/svg" width="52.099" height="52.099" viewBox="0 0 52.099 52.099"><path d="M225.25,914.922a26.05,26.05,0,1,1-26.05,26.05,26.049,26.049,0,0,1,26.05-26.05" transform="translate(-199.2 -914.922)" fill="#8fcb5d" fill-rule="evenodd"/><path d="M249.806,963.929l-10.14,8.292-10.14-8.292a7.458,7.458,0,0,1-.661-10.93,7.016,7.016,0,0,1,10.072,0l.338.347a.55.55,0,0,0,.783,0L240.4,953a7.015,7.015,0,0,1,10.071,0A7.457,7.457,0,0,1,249.806,963.929Zm3.81-6.539a8.544,8.544,0,0,0-2.366-5.152,8.113,8.113,0,0,0-11.584-.055,8.113,8.113,0,0,0-11.584.055,8.555,8.555,0,0,0,.752,12.537l10.486,8.575a.546.546,0,0,0,.691,0l10.486-8.575A8.519,8.519,0,0,0,253.616,957.39Z" transform="translate(-213.455 -933.67)" fill="#5716a3"/><path d="M253.73,977.674a1.253,1.253,0,0,1-.979.321l-2.671-.269a2.264,2.264,0,0,0-.475,0l-2.671.269a1.269,1.269,0,0,1-1.4-1.262,4.306,4.306,0,0,1,8.611,0A1.255,1.255,0,0,1,253.73,977.674Zm-3.887-6.34a5.4,5.4,0,0,0-5.4,5.4,2.362,2.362,0,0,0,2.6,2.35l2.671-.27a1.314,1.314,0,0,1,.256,0l2.671.27a2.362,2.362,0,0,0,2.6-2.35A5.4,5.4,0,0,0,249.843,971.334Z" transform="translate(-223.536 -945.265)" fill="#5716a3"/><path d="M267.023,970.167a.8.8,0,1,1,.8-.8.8.8,0,0,1-.8.8m0-2.691a1.892,1.892,0,1,0,1.892,1.892A1.894,1.894,0,0,0,267.023,967.476Z" transform="translate(-234.663 -943.19)" fill="#5716a3"/><path d="M240.425,970.167a.8.8,0,1,1,.8-.8.8.8,0,0,1-.8.8m1.892-.8a1.892,1.892,0,1,0-1.892,1.892A1.894,1.894,0,0,0,242.317,969.368Z" transform="translate(-220.362 -943.19)" fill="#5716a3"/><path d="M258.914,960.811a1.1,1.1,0,1,1-1.1,1.1A1.1,1.1,0,0,1,258.914,960.811Zm0,3.288a2.19,2.19,0,1,0-2.19-2.19A2.193,2.193,0,0,0,258.914,964.1Z" transform="translate(-230.141 -939.023)" fill="#5716a3"/><path d="M247.852,960.811a1.1,1.1,0,1,1-1.1,1.1,1.1,1.1,0,0,1,1.1-1.1m0,3.288a2.19,2.19,0,1,0-2.19-2.19A2.192,2.192,0,0,0,247.852,964.1Z" transform="translate(-224.191 -939.023)" fill="#5716a3"/></svg>