<svg xmlns="http://www.w3.org/2000/svg" width="62" height="62" viewBox="0 0 62 62"><path d="M1418.988,893.37a31,31,0,1,1-31,31,31,31,0,0,1,31-31" transform="translate(-1387.988 -893.37)" fill="#8fcb5d" fill-rule="evenodd"/><path d="M1440.517,945.485h-2.44V932.043a2.139,2.139,0,0,0,1.83-2.113v-5.8a.61.61,0,0,0-.611-.61h-.808l-2.286-5.643a.61.61,0,0,0-.566-.382h-21.885a.61.61,0,0,0-.562.375l-2.36,5.649h-.813a.609.609,0,0,0-.609.61v5.8a2.138,2.138,0,0,0,1.829,2.113v13.442h-4.88a.61.61,0,0,0,0,1.22h34.161a.61.61,0,1,0,0-1.22m-26.358-26.765h21.068l1.946,4.8h-25.02Zm-3.533,6.024h28.061v1.22h-28.061Zm24.4,2.44v2.746a.915.915,0,0,1-.914.914h-.61a.915.915,0,0,1-.915-.914v-2.746Zm-3.66,0v2.746a.915.915,0,0,1-.915.914h-.61a.915.915,0,0,1-.915-.914v-2.746Zm-3.66,0v2.746a.915.915,0,0,1-.915.914h-.61a.915.915,0,0,1-.915-.914v-2.746Zm-3.66,0v2.746a.915.915,0,0,1-.915.914h-.61a.916.916,0,0,1-.916-.914v-2.746Zm-3.66,0v2.746a.916.916,0,0,1-.916.914h-.61a.916.916,0,0,1-.916-.914v-2.746Zm-3.661,0v2.746a.915.915,0,0,1-.915.914h-.61a.915.915,0,0,1-.914-.914v-2.746Zm-5.185,3.66a.915.915,0,0,1-.915-.914v-2.746h2.44v2.746a.915.915,0,0,1-.914.914Zm10.675,14.641H1414.9V934.5h7.319Zm14.641,0h-13.42V933.894a.61.61,0,0,0-.61-.61h-8.54a.61.61,0,0,0-.611.61v11.591h-1.22V932.043a1.8,1.8,0,0,1,2.745.022h.61a2.13,2.13,0,0,1,3.05,0h.61a2.13,2.13,0,0,1,3.05,0h.61a2.13,2.13,0,0,1,3.05,0h.61a2.13,2.13,0,0,1,3.05,0h.61a2.129,2.129,0,0,1,3.05,0h.61a1.8,1.8,0,0,1,2.745-.022Zm.3-14.641a.915.915,0,0,1-.914-.914v-2.746h2.44v2.746a.916.916,0,0,1-.915.914Z" transform="translate(-1393.413 -901.002)" fill="#5716a3"/><path d="M1463.143,961.18h-.61a.61.61,0,1,0,0,1.22h.61a.61.61,0,0,0,0-1.22" transform="translate(-1412.873 -916.209)" fill="#5716a3"/><path d="M1429.208,949.754a.61.61,0,0,0-.61.61v1.22a.61.61,0,1,0,1.219,0v-1.22a.609.609,0,0,0-.609-.61" transform="translate(-1401.666 -912.333)" fill="#5716a3"/><path d="M1445.29,942.137h-10.369a.61.61,0,0,0-.611.61v6.71a.61.61,0,0,0,.611.611h10.369a.61.61,0,0,0,.611-.611v-6.71a.61.61,0,0,0-.611-.61m-.609,6.71h-9.15v-5.49h9.15Z" transform="translate(-1403.366 -909.653)" fill="#5716a3"/></svg>