<svg xmlns="http://www.w3.org/2000/svg" width="62" height="62" viewBox="0 0 62 62"><g transform="translate(-725 -655)"><circle cx="31" cy="31" r="31" transform="translate(725 655)" fill="#8fcb5d"/><g transform="translate(738.378 672.757)"><g transform="translate(-2.25 -5.068)" fill="none" stroke-linecap="round"><path d="M34.071,14.625h-.03a1.631,1.631,0,0,0-1.628,1.628.166.166,0,0,1-.164.164H5.7a.166.166,0,0,1-.164-.164,1.631,1.631,0,0,0-1.628-1.628h-.03A1.631,1.631,0,0,0,2.25,16.253V29.721a1.631,1.631,0,0,0,1.628,1.628h.03a1.631,1.631,0,0,0,1.628-1.628v-.463a.3.3,0,0,1,.3-.3H32.114a.3.3,0,0,1,.3.3v.463a1.631,1.631,0,0,0,1.628,1.628h.03A1.631,1.631,0,0,0,35.7,29.721V16.253A1.631,1.631,0,0,0,34.071,14.625Z" stroke="none"/><path d="M 33.99812316894531 16.89732360839844 C 33.73519134521484 17.60853576660156 33.05024719238281 18.11686897277832 32.24878311157227 18.11686897277832 L 5.699333190917969 18.11686897277832 C 4.897880554199219 18.11686897277832 4.212936401367188 17.60853576660156 3.950004577636719 16.89732360839844 L 3.950004577636719 28.5902042388916 C 4.225574493408203 27.81580924987793 4.965953826904297 27.25990867614746 5.833724975585938 27.25990867614746 L 32.11439514160156 27.25990867614746 C 32.98217010498047 27.25990867614746 33.72255325317383 27.81580924987793 33.99812316894531 28.5902042388916 L 33.99812316894531 16.89732360839844 M 3.877605438232422 14.62499809265137 L 3.907474517822266 14.62499809265137 C 4.80340576171875 14.62499809265137 5.535083770751953 15.3566780090332 5.535083770751953 16.25260734558105 C 5.535083770751953 16.34219741821289 5.609745025634766 16.41686820983887 5.699333190917969 16.41686820983887 L 32.24878311157227 16.41686820983887 C 32.33837509155273 16.41686820983887 32.41304397583008 16.34219741821289 32.41304397583008 16.25260734558105 C 32.41304397583008 15.3566780090332 33.14471435546875 14.62499809265137 34.04064559936523 14.62499809265137 L 34.07051467895508 14.62499809265137 C 34.9664421081543 14.62499809265137 35.69812393188477 15.3566780090332 35.69812393188477 16.25260734558105 L 35.69812393188477 29.72145843505859 C 35.69812393188477 30.61738777160645 34.96645355224609 31.34905815124512 34.07051467895508 31.34905815124512 L 34.04064559936523 31.34905815124512 C 33.14472198486328 31.34905815124512 32.41304397583008 30.61738777160645 32.41304397583008 29.72145843505859 L 32.41304397583008 29.25855827331543 C 32.41304397583008 29.09429740905762 32.27865600585938 28.95990753173828 32.11439514160156 28.95990753173828 L 5.833724975585938 28.95990753173828 C 5.669475555419922 28.95990753173828 5.535083770751953 29.09429740905762 5.535083770751953 29.25855827331543 L 5.535083770751953 29.72144889831543 C 5.535083770751953 30.61737823486328 4.80340576171875 31.34905815124512 3.907474517822266 31.34905815124512 L 3.877605438232422 31.34905815124512 C 2.981674194335938 31.34905815124512 2.250003814697266 30.61737823486328 2.250003814697266 29.72144889831543 L 2.250003814697266 16.25260734558105 C 2.250003814697266 15.3566780090332 2.981674194335938 14.62499809265137 3.877605438232422 14.62499809265137 Z" stroke="none" fill="#5716a3"/></g><g transform="translate(-2.059 -5.625)" fill="none" stroke-linecap="round"><path d="M5.941,15.63h1.68a.3.3,0,0,0,.3-.3V14.36a1.2,1.2,0,0,1,1.195-1.195h7.279a1.2,1.2,0,0,1,1.195,1.195v.971a.3.3,0,0,0,.3.3h1.792a.3.3,0,0,0,.3-.3V14.36a1.2,1.2,0,0,1,1.195-1.195h7.279a1.2,1.2,0,0,1,1.195,1.195v.971a.3.3,0,0,0,.3.3h1.68a.6.6,0,0,0,.6-.6V8.014a2.4,2.4,0,0,0-2.389-2.389H7.733A2.4,2.4,0,0,0,5.344,8.014v7.018A.6.6,0,0,0,5.941,15.63Z" stroke="none"/><path d="M 18.78273010253906 12.72778987884521 C 19.30471992492676 11.96629428863525 20.18095779418945 11.4657564163208 21.17187690734863 11.4657564163208 L 28.45132637023926 11.4657564163208 C 29.26193237304688 11.4657564163208 29.99573135375977 11.80063247680664 30.52170562744141 12.33937168121338 L 30.52170562744141 8.014156341552734 C 30.52170562744141 7.64059591293335 30.20611572265625 7.324995994567871 29.83255577087402 7.324995994567871 L 7.732896327972412 7.324995994567871 C 7.359336376190186 7.324995994567871 7.043746471405029 7.64059591293335 7.043746471405029 8.014156341552734 L 7.043746471405029 12.33938121795654 C 7.569719791412354 11.80064105987549 8.303524971008301 11.4657564163208 9.114126205444336 11.4657564163208 L 16.39357566833496 11.4657564163208 C 17.38450241088867 11.4657564163208 18.2607421875 11.96629428863525 18.78273010253906 12.72778987884521 M 31.62441635131836 15.62957572937012 L 29.94454574584961 15.62957572937012 C 29.78028678894043 15.62957572937012 29.64590644836426 15.49518585205078 29.64590644836426 15.33092594146729 L 29.64590644836426 14.36033630371094 C 29.64590644836426 13.70331573486328 29.10833549499512 13.16575622558594 28.45132637023926 13.16575622558594 L 21.17187690734863 13.16575622558594 C 20.51486587524414 13.16575622558594 19.9773063659668 13.70331573486328 19.9773063659668 14.36033630371094 L 19.9773063659668 15.33092594146729 C 19.9773063659668 15.49518585205078 19.84291648864746 15.62957572937012 19.67865562438965 15.62957572937012 L 17.88679695129395 15.62957572937012 C 17.7225456237793 15.62957572937012 17.58815574645996 15.49518585205078 17.58815574645996 15.33092594146729 L 17.58815574645996 14.36033630371094 C 17.58815574645996 13.70331573486328 17.05059623718262 13.16575622558594 16.39357566833496 13.16575622558594 L 9.114126205444336 13.16575622558594 C 8.45711612701416 13.16575622558594 7.919556140899658 13.70331573486328 7.919556140899658 14.36033630371094 L 7.919556140899658 15.33092594146729 C 7.919556140899658 15.49518585205078 7.785166263580322 15.62957572937012 7.620906352996826 15.62957572937012 L 5.941036224365234 15.62957572937012 C 5.612526416778564 15.62957572937012 5.343746185302734 15.36079597473145 5.343746185302734 15.03228569030762 L 5.343746185302734 8.014156341552734 C 5.343746185302734 6.700116157531738 6.418866157531738 5.624996185302734 7.732896327972412 5.624996185302734 L 29.83255577087402 5.624996185302734 C 31.14658546447754 5.624996185302734 32.22170639038086 6.700116157531738 32.22170639038086 8.014156341552734 L 32.22170639038086 15.03228569030762 C 32.22170639038086 15.36079597473145 31.95292663574219 15.62957572937012 31.62441635131836 15.62957572937012 Z" stroke="none" fill="#5716a3"/></g></g></g></svg>