<svg xmlns="http://www.w3.org/2000/svg" width="113.192" height="74.807" viewBox="0 0 113.192 74.807"><g transform="translate(0)"><path d="M191,1357.994q0-7.893-2.44-12.272-1.794-3.229-6.028-3.229-4.02,0-6.279,4.126t-2.261,11.446q0,7.249,2.4,11.3a7.451,7.451,0,0,0,6.71,4.055,5.357,5.357,0,0,0,4.88-2.511q3.014-4.737,3.014-12.917m6.53.072a16.78,16.78,0,0,1-4.234,11.662,13.618,13.618,0,0,1-10.549,4.7,14.291,14.291,0,0,1-10.908-4.7,16.456,16.456,0,0,1-4.377-11.662,17.123,17.123,0,0,1,4.27-11.913,13.752,13.752,0,0,1,10.656-4.736,14.008,14.008,0,0,1,10.8,4.773A16.991,16.991,0,0,1,197.525,1358.066Z" transform="translate(-167.457 -1323.381)" fill="#8fcb5d" fill-rule="evenodd"/><path d="M279.258,1382.085a17.215,17.215,0,0,1-11.109,3.614,12.479,12.479,0,0,1-8.377-2.7,8.919,8.919,0,0,1-3.167-7.14q0-5.922,4.427-8.272a47.7,47.7,0,0,0,7.073-.784,47.767,47.767,0,0,1,7.161-.784q8.505,0,8.506,7.227a10.948,10.948,0,0,1-4.514,8.838m-9.156-54.812q6.965,0,6.965,12.625,0,12.365-6.531,12.365-7.229,0-7.227-13.235Q263.309,1327.273,270.1,1327.273Zm14.323,35.177q-3-2.785-8.316-2.786a39.132,39.132,0,0,0-6.531.61,45.323,45.323,0,0,1-6.7.783q-5.485,0-5.486-4.528a4.489,4.489,0,0,1,1.481-3.221,4.58,4.58,0,0,1,3.309-1.48,6.807,6.807,0,0,1,1.48.348,23.61,23.61,0,0,0,5.747,1.306,13.987,13.987,0,0,0,10.188-4.005,13.332,13.332,0,0,0,4.092-9.927,28.009,28.009,0,0,0-.435-4.092q-.436-2.7-.435-2.961a3.356,3.356,0,0,1,.958-2.221,2.706,2.706,0,0,1,2-1.088q1.218,0,1.219,1.132a3.778,3.778,0,0,1-.261,1.175,3.73,3.73,0,0,0-.262,1.089,2.07,2.07,0,0,0,.108.651c.069-.068.137-.136.209-.2a10.844,10.844,0,0,1,6.423-2.573q-.434-3.62-4.911-3.625-4.094,0-6.879,4.092a18.718,18.718,0,0,0-5.181-3.831,14.8,14.8,0,0,0-5.791-.958q-6.531,0-10.536,3.788a13.192,13.192,0,0,0-4.005,10.057,13.045,13.045,0,0,0,5.225,10.8q-8.012,2.439-8.011,8.708,0,5.049,6.183,7.488a20.366,20.366,0,0,0-6.1,2.177,8.384,8.384,0,0,0-3.831,7.489,9.319,9.319,0,0,0,4.136,8.054q4.134,2.916,11.363,2.916,9.752,0,16.152-4.963t6.4-12.452A10.05,10.05,0,0,0,284.425,1362.451Z" transform="translate(-224.162 -1312.807)" fill="#5716a3" fill-rule="evenodd"/><path d="M394.609,1468.661a2.494,2.494,0,0,1-2.617,1.947c-1.967,0-2.959-1.492-2.959-3.351,0-1.787.993-3.4,2.992-3.4a2.391,2.391,0,0,1,2.587,1.984h-.872a1.661,1.661,0,0,0-1.75-1.257c-1.451,0-2.044,1.319-2.044,2.649,0,1.29.564,2.65,2.082,2.65a1.688,1.688,0,0,0,1.705-1.22Z" transform="translate(-320.829 -1408.13)" fill="#5716a3" fill-rule="evenodd"/><path d="M410.844,1465.128h.827v4.794h-.827Zm0-2.147h.827v1.034h-.827Z" transform="translate(-335.926 -1407.526)" fill="#5716a3" fill-rule="evenodd"/><path d="M421.933,1473.352c0,.466.006,1.114.01,1.4h-.805a7.156,7.156,0,0,1-.031-.719,1.425,1.425,0,0,1-1.452.832c-.808,0-1.583-.4-1.583-1.755v-3.152h.821v2.975c0,.63.2,1.211.993,1.211.882,0,1.222-.488,1.222-1.686v-2.5h.827Z" transform="translate(-340.929 -1412.353)" fill="#5716a3" fill-rule="evenodd"/><path d="M435.022,1467.548c0,1.158.55,1.784,1.3,1.784,1.12,0,1.367-.827,1.367-1.878s-.223-1.738-1.3-1.738c-.846,0-1.368.67-1.368,1.833m3.465-4.568v5.586c0,.45,0,.892.009,1.354h-.8c-.022-.127-.038-.494-.042-.68a1.5,1.5,0,0,1-1.507.794c-1.232,0-1.99-1-1.99-2.46s.817-2.56,2.143-2.56c.848,0,1.226.343,1.354.613v-2.646Z" transform="translate(-352.067 -1407.525)" fill="#5716a3" fill-rule="evenodd"/><path d="M454.645,1472.156h-.776c-.955,0-1.467.264-1.467.94a.842.842,0,0,0,.933.861c1.155,0,1.31-.777,1.31-1.648Zm.808,1.292a7.434,7.434,0,0,0,.066,1.045h-.792a2.672,2.672,0,0,1-.078-.627,1.5,1.5,0,0,1-1.48.741,1.45,1.45,0,0,1-1.613-1.465c0-1.07.84-1.559,2.265-1.559h.818v-.409c0-.422-.135-.938-1.032-.938-.8,0-.936.4-1.023.772h-.8c.063-.661.472-1.424,1.85-1.421,1.172,0,1.82.48,1.82,1.571Z" transform="translate(-364.107 -1412.098)" fill="#5716a3" fill-rule="evenodd"/><path d="M468.594,1467.548c0,1.158.551,1.784,1.3,1.784,1.12,0,1.367-.827,1.367-1.878s-.223-1.738-1.3-1.738c-.845,0-1.368.67-1.368,1.833m3.465-4.568v5.586c0,.45,0,.892.01,1.354h-.8a6.653,6.653,0,0,1-.041-.68,1.5,1.5,0,0,1-1.508.794c-1.233,0-1.99-1-1.99-2.46s.817-2.56,2.143-2.56c.848,0,1.226.343,1.355.613v-2.646Z" transform="translate(-375.306 -1407.525)" fill="#5716a3" fill-rule="evenodd"/><path d="M389.2,1495.68c0,1.485-.585,2.014-1.685,2.014a3.271,3.271,0,0,1-.694-.067v-.727a3.968,3.968,0,0,0,.609.044c.792,0,.9-.586.9-1.233v-4.688h.871Z" transform="translate(-319.301 -1426.936)" fill="#5716a3" fill-rule="evenodd"/><path d="M400.993,1499.018h-.776c-.956,0-1.467.264-1.467.94a.842.842,0,0,0,.933.861c1.154,0,1.31-.777,1.31-1.647Zm.808,1.291a7.492,7.492,0,0,0,.066,1.046h-.791a2.636,2.636,0,0,1-.079-.628,1.5,1.5,0,0,1-1.48.741,1.449,1.449,0,0,1-1.612-1.464c0-1.07.84-1.559,2.265-1.559h.818v-.409c0-.422-.135-.939-1.032-.939-.8,0-.936.4-1.023.772h-.8c.064-.661.472-1.424,1.85-1.421,1.171,0,1.82.481,1.82,1.57Z" transform="translate(-326.97 -1430.691)" fill="#5716a3" fill-rule="evenodd"/><path d="M415.191,1497.864c0-.67-.006-1.047-.01-1.3h.811c.013.135.026.511.026.979a1.7,1.7,0,0,1,1.614-1.092v.825a1.526,1.526,0,0,0-1.614,1.755v2.327h-.828Z" transform="translate(-338.928 -1430.691)" fill="#5716a3" fill-rule="evenodd"/><path d="M425.539,1494.41c0,1.158.551,1.784,1.3,1.784,1.121,0,1.367-.827,1.367-1.878s-.222-1.738-1.3-1.738c-.845,0-1.368.67-1.368,1.833m3.466-4.568v5.586c0,.45,0,.892.01,1.354h-.8c-.022-.127-.038-.494-.042-.68a1.5,1.5,0,0,1-1.508.794c-1.232,0-1.99-1-1.99-2.459s.817-2.561,2.142-2.561c.849,0,1.226.343,1.355.612v-2.646Z" transform="translate(-345.503 -1426.119)" fill="#5716a3" fill-rule="evenodd"/><path d="M443.307,1491.776h.828v4.793h-.828Zm2.227-2.242-1.449,1.45H443.3l1.212-1.45Z" transform="translate(-358.394 -1425.906)" fill="#5716a3" fill-rule="evenodd"/><path d="M450.584,1497.769c0-.416,0-.836-.009-1.208h.8c.022.141.035.645.032.787a1.51,1.51,0,0,1,1.509-.9c.9,0,1.6.55,1.6,1.824v3.083H453.7v-2.977c0-.724-.283-1.212-1.015-1.212-.9,0-1.268.688-1.268,1.652v2.538h-.828Z" transform="translate(-363.428 -1430.691)" fill="#5716a3" fill-rule="evenodd"/><path d="M380.7,1362.731v-5.239q-5.306,1.221-7.6,3.194a6.6,6.6,0,0,0-2.3,5.274,5.456,5.456,0,0,0,1.308,3.768,4.216,4.216,0,0,0,3.29,1.471q3.041,0,4.88-3.445.424-.788.425-5.023m12.63,7.606q0,1.221-2.535,2.547a10.528,10.528,0,0,1-4.89,1.327q-4.928,0-5.141-5.1a8.9,8.9,0,0,1-8.424,5.311,7.216,7.216,0,0,1-5.069-1.83,6.082,6.082,0,0,1-2-4.7q0-5.883,7.039-9.329a38.923,38.923,0,0,1,8.39-2.3v-1.794q0-6.314-.646-8.325a4.894,4.894,0,0,0-5.166-3.659,6.464,6.464,0,0,0-4.2,1.364A4.247,4.247,0,0,0,369,1347.3q0,.575.878.574a2.023,2.023,0,0,1,1.578.861,2.988,2.988,0,0,1,.7,1.938q0,3.159-3.125,3.157a3.573,3.573,0,0,1-2.7-1.113,3.928,3.928,0,0,1-1.065-2.834,7.632,7.632,0,0,1,2.655-5.813q2.941-2.653,8.181-2.655,7.893,0,9.687,4.306.646,1.651.646,6.531v13.419q0,3.3.072,3.875.358,2.584,2.081,2.584a4.241,4.241,0,0,0,3.3-1.436q.716-.788,1.076-.789C393.211,1369.906,393.331,1370.051,393.331,1370.337Z" transform="translate(-304.382 -1323.381)" fill="#8fcb5d" fill-rule="evenodd"/><path d="M380.7,1362.731v-5.239q-5.306,1.221-7.6,3.194a6.6,6.6,0,0,0-2.3,5.274,5.456,5.456,0,0,0,1.308,3.768,4.216,4.216,0,0,0,3.29,1.471q3.041,0,4.88-3.445.424-.788.425-5.023m12.63,7.606q0,1.221-2.535,2.547a10.528,10.528,0,0,1-4.89,1.327q-4.928,0-5.141-5.1a8.9,8.9,0,0,1-8.424,5.311,7.216,7.216,0,0,1-5.069-1.83,6.082,6.082,0,0,1-2-4.7q0-5.883,7.039-9.329a38.923,38.923,0,0,1,8.39-2.3v-1.794q0-6.314-.646-8.325a4.894,4.894,0,0,0-5.166-3.659,6.464,6.464,0,0,0-4.2,1.364A4.247,4.247,0,0,0,369,1347.3q0,.575.878.574a2.023,2.023,0,0,1,1.578.861,2.988,2.988,0,0,1,.7,1.938q0,3.159-3.125,3.157a3.573,3.573,0,0,1-2.7-1.113,3.928,3.928,0,0,1-1.065-2.834,7.632,7.632,0,0,1,2.655-5.813q2.941-2.653,8.181-2.655,7.893,0,9.687,4.306.646,1.651.646,6.531v13.419q0,3.3.072,3.875.358,2.584,2.081,2.584a4.241,4.241,0,0,0,3.3-1.436q.716-.788,1.076-.789C393.211,1369.906,393.331,1370.051,393.331,1370.337Z" transform="translate(-304.382 -1323.381)" fill="#8fcb5d" fill-rule="evenodd"/><path d="M438.528,1307.695c.11.008.052,0,.117.036a.3.3,0,0,1,.032.02l.112.118c.058.042.042-.026.071.082h.051c.023-.086.151-.127.271-.24l.112-.067c0,.11-.046.409.089.324.088-.055.014-.059.14-.07,0,0,.862-.805,1.1-.714.27.105.179-.03.319-.069l.064-.033.055.074c.091-.023.029-.023.124-.048.029.109.075.072.2.1.03-.066.018-.05,0-.128.11-.023.029-.01.153,0,0-.135,0-.038.026-.076.028.106.04.069.1.126s.03.03.053.1a.967.967,0,0,1,.09.242c.008.108-.032.069-.042.194.08.033.029-.021.069.084a.892.892,0,0,1,.032.12.884.884,0,0,0,.085-.03c.083-.006.065.059.122-.069l.049-.106a.29.29,0,0,0,.2.051c.006.072.025.23.084.207.031-.012,0,0,.044-.028a3.513,3.513,0,0,0,.589.082c.1-.019.408-.233.38-.285.07.025.053,0,.077.1.106-.028.066-.094.179-.153a.865.865,0,0,1-.051-.2c0-.082.045-.045,0-.129-.03-.06-.045-.059-.106-.075.056-.076.07-.021.1-.1.183.043.219.1.153-.178.034-.019.095-.1.127-.1.089,0,.382.187.4.05a.28.28,0,0,1-.009-.122c0-.011.014.012.022-.081.149.013.1.078.207.126.094.041.113-.024.251-.024.1,0,.01-.008.077.026-.039.147-.153.11-.153.357a1.4,1.4,0,0,0,.179-.025c0,.157-.054.266.085.167.084-.06-.028.022.042-.039.088.024.068.051.1.051.074,0,.069-.051.23-.051.02.077,0,.056.077.077-.039.144-.089.044-.1.2h.2a1.008,1.008,0,0,0-.077.306c.143,0,.187-.051.255-.051.1,0,.048.017.153.026-.008.1-.023.091-.06.172-.146.316.164.042.235.074s-.019.154-.022.264h.1c-.1.18-.2.124-.2.383,0,.132.087.028.2.026-.057.243-.017.146.026.306h.076c.014-.06.122.263.1.51l.152.029c-.069.1-.1.045-.1.2.107.009.276.042.383.051a.6.6,0,0,0-.025.128c.168,0,.33-.159.353.023a.589.589,0,0,0,.055.258c.072-.049.113-.141.179-.2.22.059.083.133.383-.026.018.075,0,.037.051.077a.37.37,0,0,1,.128-.051c-.06.113-.071.166.051.255.027-.067.06-.043.143-.062a.3.3,0,0,0,.138-.065.628.628,0,0,0,.357.127v-.229a.283.283,0,0,0,.179.051,1.264,1.264,0,0,0,.026-.2c.106-.059.1,0,.053-.184-.029-.128-.013-.018.006-.089.044-.155-.041-.2.093-.238a.59.59,0,0,0,.015.216c.032.072.16.049.26.147.063.062.045.072.134.1a.938.938,0,0,0,.051-.179c.081.054.018.042.127.051a.785.785,0,0,0,.051-.23c.04-.02-.047-.026.077,0,0-.2-.1-.253-.1-.357,0-.061.041-.075.076-.128l.03.021a.377.377,0,0,0-.055.183.527.527,0,0,0,.153-.026.943.943,0,0,0,.051.23.2.2,0,0,0,.154-.153c.342.181.21.1.383-.025a.378.378,0,0,1,.051.128h.076c.057-.242.059.033.051-.332h.128c-.012-.146-.192-.243-.332-.255l-.023-.1c-.054-.1-.006.057-.053-.075a.806.806,0,0,1,.255-.025c.1-.15.021-.078.179-.153,0-.068-.029-.236,0-.26.038-.039.038,0,.132,0-.011-.135-.012-.026-.031-.117-.012-.06,0-.016.005-.112.182.015.163-.014.236.043.046.035.02.028.087.068.05.031.068.039.111.068l-.025.255c0,.1-.008.009.025.076.116-.031.059-.068.2-.1l.026.1.152-.029.062.3c.031.116.08.138.219.138.042-.178.153-.133.153-.358.082.055.018.042.127.051.01-.112.032-.085,0-.2a.641.641,0,0,0-.1-.184l.1-.081a.769.769,0,0,1,.054.183c.076-.006.073-.012.118-.062,0,0,.006-.01.011-.015.028.1.022.048.083.121s.024.064.07.16c.133-.036.092-.089.174-.158.1-.086.171-.02.184-.174.043.029.129.179.178.179s.083-.034.153-.051c-.025.106-.04.1,0,.179.184-.1.128-.262.18-.357l.039-.062c.026-.118.005-.033-.015-.065l.057-.005c.052.012-.013,0,.046.005,0-.016,0-.063,0-.076-.022-.144.021.067-.009-.042a.122.122,0,0,0-.008-.018.072.072,0,0,0-.008-.017l.229.153c.05-.213.169-.492-.127-.561.07-.125-.091-.149.1-.153.017.2.3.443.23.153a.96.96,0,0,1,.134.1c.071.066.036.074.147.083a1.375,1.375,0,0,0-.006-.25c-.072-.327.006-.059.006-.184,0-.089-.124-.16-.2-.178.037-.138.3-.255-.051-.255-.088,0-.253.126-.383-.051.1-.024.077-.007.1-.076a.37.37,0,0,0-.281-.026s.012-.015.014-.011l.088-.091c0-.113-.159-.131-.255-.153v-.128c-.11-.023-.044,0-.179,0,0-.2-.051-.276-.051-.459-.122-.013-.042,0-.115-.063l-.027-.025c-.08-.08,0-.052-.025-.133-.019-.065-.066-.059-.14-.06a.545.545,0,0,0-.026-.127c.138-.015.043-.021.091-.032.072-.017.108.065.131-.082l.033-.09c0-.065-.087-.118-.128-.178.1-.027.1-.072.179-.128.137.1.13.319.28.05a2,2,0,0,0,.093-.187.794.794,0,0,0,.01-.476c.189,0,.334.087.434-.1a.8.8,0,0,1,.171.109c.062.062.059.116.135.171a.487.487,0,0,0,.126-.509c-.075-.334.027-.131.027-.435.141-.011.247-.013.28-.08v-.12a1.51,1.51,0,0,0-.144-.319c-.037-.067-.073-.114-.111-.17s-.087-.119-.128-.179c.157-.235.357.014.357-.331,0-.308-.263-.527-.306-.689h-.051c-.024.089-.009.057-.076.1l-.092-.112a1.631,1.631,0,0,0-.648-.3c.033-.068.023-.027.026-.128.1.026.076.041.1.153l.051-.127c.2.016.238.029.128-.179.32-.169.123-.113.1-.357-.119-.01-.045.027-.1-.051a1.154,1.154,0,0,1,.2-.052c-.039-.056,0-.031-.077-.051.027-.1.041-.06.051-.089s-.019-.022,0-.064c.136,0,.143-.023.255-.026l-.133-.148a1.137,1.137,0,0,1,.235-.031c-.049-.073-.046-.053-.1-.1-.107-.092,0,.014-.05-.1l-.256.026a.283.283,0,0,0-.306-.2,1.282,1.282,0,0,1,.255-.357c-.122-.182-.464-.036-.6.038l-.126.09c-.069.037-.079-.032-.09.1-.181-.121-.151-.248-.459-.255a.7.7,0,0,0-.051-.383c-.125.033-.065.077-.255.077-.02-.245-.163-.066-.076-.434.046.031.21.2.229.2.109,0,.176-.286.179-.409a3.138,3.138,0,0,0,.332.1.762.762,0,0,0-.068-.391c-.024-.05-.059-.073-.059-.094,0-.2.216-.006.15-.249l-.125-.338c.338-.028.294-.459.485-.511v-.076h-.128c.015-.057.1-.121.1-.153,0-.167-.26-.251-.433-.255.011-.132.048-.08.051-.23a.587.587,0,0,1-.383-.128.307.307,0,0,1,.31-.226c.175-.022.227-.038.037-.324-.054-.082-.121-.144-.168-.215.147,0,.187-.055.127-.179.1,0,.06.007.128-.025-.1-.44-.4-.494-.755-.6a.626.626,0,0,0-.164-.041.256.256,0,0,0-.018-.237.164.164,0,0,0-.109-.094c.055-.083.067-.035.077-.153a1,1,0,0,0-.332-.076c-.154,0-.153.057-.153-.128,0-.049.13-.315-.153-.153a.4.4,0,0,0-.128.128c-.022.03-.028.04-.055.073l-.035.041c-.149.167-.348-.19-.471-.19-.061,0-.106.16-.144.213s-.012,0-.029.048a.612.612,0,0,0-.006.147,1.176,1.176,0,0,0-.382-.179v-.051a.567.567,0,0,1,.127-.026.414.414,0,0,0-.077-.229.7.7,0,0,0,.175-.132c.107-.085.089-.046.157-.175a.821.821,0,0,0-.357-.076c.047-.2.021-.2-.179-.2.006-.269.2-.364.2-.562,0-.117-.116-.081-.179-.051,0-.233-.072-.271-.076-.459-.219.018-.11.309-.314.058-.061-.075-.134-.17-.245-.157-.146.018.051.06-.131.022.026-.1.05-.074.1-.153-.093-.052-.159,0-.255.026-.005-.241-.17-.095-.2.051-.131-.063-.143.035-.178-.1-.019-.076.012-.039-.027-.126-.027-.061-.027-.015-.051-.1.141-.012.1-.048.2-.076a.394.394,0,0,0,.127.229c.085-.044.077-.018.1-.127a.246.246,0,0,1,.183.072.4.4,0,0,0,.225.082.484.484,0,0,0,.051-.255.591.591,0,0,1,.08.047c.065.045.014.032.1.054a.852.852,0,0,0,.051-.357c.113,0,.119.008.128-.1a.332.332,0,0,1,.107.072c.084.07,0,.046.122.056a.709.709,0,0,0-.153-.459.276.276,0,0,1,.179-.051c-.068-.288-.491-.319-.585-.462l-.008-.017-.046-.082h.1c-.019-.233-.393-.294-.561-.255.07-.153-.157-.2-.28-.2.238-.325.484.021.408-.306.067.033.027.024.127.026v-.077a.445.445,0,0,0,.179.051c.087,0,.077-.043.154-.076a.753.753,0,0,0,.076-.026.253.253,0,0,0-.2-.1l.075-.079a.866.866,0,0,0,.148-.286c.046-.106.048-.02.058-.146-.316-.074-.345.163-.536.178a.5.5,0,0,1,.026-.178c-.162,0-.053.018-.179.051-.166-.144-.133-.239-.457-.148-.153.043-.055,0-.155,0s-.143.086-.2.128c0-.116.026-.216.024-.28-.008-.24-.14-.245-.252-.078l-.151-.079a.437.437,0,0,1-.039-.063c-.08-.119-.124-.069-.193-.164l.383-.128a.352.352,0,0,0-.094-.135c-.083-.07-.07-.025-.161-.068.041-.02-.047-.026.076,0-.052-.113.073-.218.077-.383h-.2c0-.293.206-.24.076-.433.311-.083.011-.353-.279-.227l-.134.053c0-.009.017-.02.019-.015l.164-.142a.277.277,0,0,0-.153-.051,1.206,1.206,0,0,1,.153-.434c-.071-.034-.049-.026-.153-.026.022-.1.129-.207.012-.193-.078.009-.163.107-.216.142,0-.417-.173-.443-.179-.688-.169.014-.235.2-.267.345a.6.6,0,0,0,.063.471h-.153a.551.551,0,0,0-.179-.485l-.123.107c-.2-.291-.173-.15-.339-.283-.091-.074-.071-.174-.15-.232a.3.3,0,0,0-.1.255c-.11-.074-.172-.189-.357-.2l.128-.2a.68.68,0,0,0-.587.076c-.027-.1-.229-.216-.229-.076,0,.058.008.03.026.1-.131,0-.25-.04-.322.008s-.04.066-.118.088-.078-.013-.172.032a.818.818,0,0,0-.485-.179c0,.146.013.084.076.179-.1.055-.142.025-.153.153a.22.22,0,0,1,.178.178c-.146.1-.411.033-.6.091-.1.031-.108.034-.117.139a.568.568,0,0,1,.128.026c-.057.077-.042.027-.107.1a.314.314,0,0,0-.1.183l.153.026c.032.069.069.09.076.178a.625.625,0,0,0-.357.229l-.433-.076a1.006,1.006,0,0,1,.1-.255c0-.21-.481-.306-.689-.306v.1a1.653,1.653,0,0,0-.664.229c-.023-.065-.014-.028-.025-.051s0,.013-.026-.051a.383.383,0,0,1,.2-.1c-.01-.113-.022-.1-.127-.127a1.3,1.3,0,0,0,.025-.2c-.349-.083-.309.153-.816.153.222-.332.161-.109.1-.331.109-.04.128-.2.128-.306l-.306.077a3.17,3.17,0,0,1-.051-.332c-.1,0-.091,0-.149.055a.6.6,0,0,0-.183.429c0,.049.035.083.051.153-.34-.008-.182-.058-.459.128-.016-.06-.041-.072-.094-.111-.286-.214-.09.139-.31.085a.717.717,0,0,1-.161-.047.286.286,0,0,1-.073-.131c.342,0,.34,0,.1-.357a.975.975,0,0,1,.229-.1c-.056-.207-.311-.137-.381-.257s.019.054.024-.151a.9.9,0,0,0-.332-.127c.12-.252-.051-.35-.051-.612-.11.009-.046,0-.128.051,0-.1.009-.082-.025-.153-.195-.047-.229.033-.408.128a.7.7,0,0,0-.051-.153c-.153.041-.078.147-.332.153-.06-.253.087-.249.1-.434a1.438,1.438,0,0,0-.434-.076c.061-.126.04-.131-.051-.178.041-.061.031-.027.051-.1-.319-.153-.5-.055-.77.123a1.54,1.54,0,0,1-.149.081c-.012-.149-.137-.128-.255-.128v-.1a.319.319,0,0,0-.306.281l-.036-.04c-.073-.068-.118-.082-.143-.189-.2.054-.1.267-.1.484-.082.019-.383.03-.383.1l.082.248c.023.034.041.038.071.084a1.867,1.867,0,0,0-.332.1c.028-.12.114-.174-.127-.179l.026-.357c-.194,0-.149.114-.306.127-.027-.1-.007-.074-.128-.076-.024.092,0,.068-.1.076-.019-.079-.06-.17-.092-.265-.042-.126-.042-.166-.189-.168l-.029.1a1.433,1.433,0,0,0-.295-.188c-.159-.035.046.184-.085.208-.034.006-.231-.044-.306.032-.061.131.078.089-.076.1v-.128c-.114.01-.119.043-.128.153-.152-.08-.164.024-.1.153-.017.011-.02.012-.046.031l-.042.034-.014.012c-.1-.036-.063-.073-.2-.076a1.422,1.422,0,0,1,.025-.178c.222.018.238.105.219-.122-.007-.089.041-.024-.04-.083l.021-.029a.025.025,0,0,1,.023.013c0,.007.014.007.019.008.023,0,0,.024.053,0,.071-.033.03-.011.008-.085l-.007-.019c-.027-.081-.034-.12-.117-.142.066-.057.076-.034.076-.128l-.153-.026c0-.1.01-.106-.026-.178-.093.024-.054.027-.128.076-.018-.074,0-.037-.051-.076a.365.365,0,0,1-.146.109c-.095.042-.124.022-.135.146-.077-.02-.056,0-.076-.077h-.076v.153c-.079.006-.049,0-.1.026a1.289,1.289,0,0,1,.026.2c-.149-.109-.082-.178-.332-.178.012.148.016.02.035.113.011.054,0,.028-.01.117a.261.261,0,0,1,.178.1c-.126.059-.091-.061-.28-.076.013.156.041.065.026.255l-.048-.048c-.046-.087.023-.121-.106-.156.141-.267.054-.153-.077-.153-.093,0-.06-.023-.179-.026.011.132.045.06-.01.118s-.058-.013-.091.112c-.082-.055-.018-.042-.128-.051v-.153c-.156.013-.06.058-.12-.032-.024-.036-.049-.112-.116-.108-.135.007.11.216-.172.216,0,.145-.076.169-.155.078l-.049-.078c-.056.039-.031,0-.051.076-.151-.035-.1-.062-.255-.026.025.094.027.054.077.128-.121.08-.087.1-.088.178,0,.054-.043.117.088.128.011.13-.013.033.033.094.075.1.023-.041.069.084-.1-.009-.057-.026-.153-.026-.081,0,.031.037-.072.033s-.012-.043-.1-.022c-.152.037.051.1-.16.117.087-.12.06.022.076-.128-.057-.048-.124-.012-.178,0V1284h-.077a.526.526,0,0,0-.025-.179c-.143.038-.085.128-.153.128-.1,0-.127-.052-.23-.077-.019.042,0,.013-.014.051l-.009.04a.1.1,0,0,1,0,.011c-.052-.036.051,0-.066-.036a.207.207,0,0,0-.189.011.228.228,0,0,0,.179.153c-.033.123-.087.05-.026.178h-.153l.036.163c.007.041-.024.078.142.092-.043.182-.039.107-.153.076-.04.06-.03.026-.051.1-.079-.019-.074-.033-.153-.051-.018.067.01.029-.051.051,0,.146.013.084.077.179-.1,0-.06-.008-.128.026.062.093.058.023.025.1a.186.186,0,0,1-.174-.029c-.085-.05-.064-.073-.158-.1v.127c-.063-.026-.053-.014-.127.026l.018.033c.034.087-.009.056-.018.172h.127c-.008.093-.008.094-.1.1-.006-.079,0-.048-.025-.1l-.166-.007c-.035-.056-.031-.073-.146,0-.132.088-.211.054-.378.054.01.123.042.088.1.179-.151.035-.127.084-.184.2l-.045.21c.255-.021.138.026.2.026.094,0,.113-.076.2-.026-.026.065-.1.041-.127.153a1.317,1.317,0,0,0-.587.077c.033.124.077.111.077.281-.468.225-1.218-.187-1.582.357h.1c-.036.055-.08.081-.106.124-.042.073-.015.117-.1.16s-.335-.029-.486-.029c-.05.074-.051.034-.077.127a.551.551,0,0,1,.153.026.393.393,0,0,0,0,.23,1.775,1.775,0,0,0-.434.332c.088.024.079.014.1.1-.214.049-.276.213-.357.382h.2a.367.367,0,0,0-.051.127.451.451,0,0,0,.306.077.293.293,0,0,0,.051.2.358.358,0,0,0-.2.2.369.369,0,0,0-.433-.025c.059.081.042.021.1.1-.083.125-.264.14-.281.332a.425.425,0,0,1,.307,0,1.039,1.039,0,0,0,.025.306h.2a.266.266,0,0,1-.1.179c.017-.082.026-.04,0-.1-.1,0-.18.035-.2.128-.095-.025-.033-.026-.128-.051l-.071.082a.279.279,0,0,0-.235-.031c.027.1.094.116.153.2a.2.2,0,0,0-.135.044c-.084.063-.074.158-.119.238-.176.306.052.2.152.177v.077a1.073,1.073,0,0,0,.28-.077c-.042.117,0,0-.051.076-.16.23.02.119-.211.248-.046.026-.13.128-.1.181s.138.005.239.005c-.053.08-.2.289,0,.306a.784.784,0,0,0,0,.124c.025.1.02.061.074.08-.04.06-.082.081-.081.134l.005.034c0,.061-.112.041-.147.025-.194-.09-.056.128-.1.219-.038.073-.07.028-.082.175-.128,0-.1,0-.179.051a.792.792,0,0,0-.179-.408c-.073.049-.092.092-.1.2h-.051c-.028-.1-.1-.128-.2-.128-.034.071-.025.05-.025.153-.11.009-.046,0-.128.051-.082-.122-.14-.047-.153-.2a1.245,1.245,0,0,0-.2.026.314.314,0,0,0-.306-.179v.1c-.313,0-.264-.24-.523-.273-.077-.009-.043-.032-.069.022s.022.027,0,.072c-.036.1-.1.1-.142.214-.111.292-.29.117-.7.117-.056.084-.067.036-.077.153.128,0,.1,0,.179.052-.042.158-.093.08,0,.255-.141.093-.491.267-.536.433.1.009.1.013.127.1a.613.613,0,0,0-.434.485.431.431,0,0,1,.23-.025c-.027.117-.094.145.013.217a.6.6,0,0,0,.32.064.769.769,0,0,0,.051.255.286.286,0,0,0-.23.229c-.163-.044-.27-.2-.535-.026.08.111.179.091.026.206-.114.087-.242.131-.256.3.1-.009.057-.026.153-.026.128,0,.114.023.229.026a.9.9,0,0,0,.026.408.825.825,0,0,1,.255-.025,1.33,1.33,0,0,0-.077.2c.183.043.529.127.248.325a.416.416,0,0,0-.171.288c-.086-.023-.06-.028-.128-.077a2.164,2.164,0,0,0-.28-.128c-.092-.049-.022-.064-.154-.076-.073.313.086.388.2.613h-.23a.251.251,0,0,0,.116.215l.127.054a.259.259,0,0,0,.139-.014l.01.371c.044.093.1.111.17.165.115.085-.044.065.092.187a.34.34,0,0,0,.111.069c-.148.221-.239.17-.426.094a.748.748,0,0,0-.288-.043c-.075.141-.033.127-.179.2.035.048.055.043.077.1-.029.033,0-.017-.034.043-.012.019-.025.047-.035.067a1.209,1.209,0,0,0-.056.123,2.2,2.2,0,0,0-.08.3.4.4,0,0,0-.306-.026c.061.23.076-.021.076.485-.217,0-.192.107-.287.223s-.192.116-.2.338c.136,0,.143-.023.256-.026a1.218,1.218,0,0,0-.026.2.282.282,0,0,1,.153-.051.66.66,0,0,1-.051.357,1.093,1.093,0,0,1,.2-.052.884.884,0,0,0-.1.485c.164-.038.144-.219.28-.255,0,.1-.008.082.026.153.327-.076.1,0,.1.357a3.206,3.206,0,0,1,.612-.026l-.03.254a.752.752,0,0,0,.4-.111c.106-.072.162-.176.265-.245-.034.144-.059.138-.025.281.1-.027.095-.072.178-.128l-.025.281h-.153a.948.948,0,0,1,.051.178c-.077.02-.056,0-.077.077-.191,0-.215-.02-.347.061-.178.109-.149.111-.1.155a6.915,6.915,0,0,1,3.707,3.67l.007.017a10.636,10.636,0,0,1,.541,2.7q.148,1.506.166,3.6l.029,0a.49.49,0,0,1-.028.121q0,.215,0,.436v.547l.18-.135.029.1a1.127,1.127,0,0,0,.4-.2,1.575,1.575,0,0,0,.051.229c.161,0,.141-.077.255-.153l.13.124c.308.238.227-.052.227-.124.153.1.211.229.306.255a1.214,1.214,0,0,0,.026-.511h.1a.4.4,0,0,0-.256-.383.362.362,0,0,0,.051-.128c.1.028.055.034.138.092a1.5,1.5,0,0,0,.168.087c.079-.058.042.016.051-.1a2.3,2.3,0,0,0,.234.2l.178.128c.039.039.013.033.073.055.071-.148.048-.308.127-.459l.281.026c0-.094.018-.089.016-.149a1.328,1.328,0,0,1-.016-.156c.185,0,.108-.052.255.025,0,.106-.026.1-.026.153,0,.11.054.143.077.229.12-.031.135-.17.281-.2,0,0,1.081-.3,1.173-.893s.029-.135.051-.229c-.075-.036-.125-.025-.153-.1.132-.11.318.095.408.1.01-.123.042-.088.1-.179a2.179,2.179,0,0,0-.128-.2c.14.033.087.054.153.179.081-.06.021-.043.1-.1a.932.932,0,0,0,.408.051c-.045-.085-.019-.071-.1-.127.059-.082.128.107.128-.179a.291.291,0,0,1,.2,0c0,.221-.073.2.026.383l.211-.174c.1-.088.159-.027.172-.183h.051c.029.125.09.2.229.2.017-.036.021-.011.018-.054s0-.019-.018-.048l.051-.013.005.005a.284.284,0,0,0,.268.047c.066-.015.036.019.058-.065.07.019.289.155.135-.055a.6.6,0,0,0-.263-.2v-.1c.095-.022.072-.042.179-.051-.01-.118-.02-.07-.076-.153l.179-.051c-.014-.163-.08-.191-.193-.265-.044-.029-.047-.039-.088-.066-.174,0-.186.065-.357.026a.529.529,0,0,1,.025-.179c.2-.1.149,0,.134-.209-.006-.1.01-.04.019-.147-.065-.043-.079-.043-.1-.128.144-.038.228-.205.459-.051.079-.058.042.016.051-.1a.38.38,0,0,1,.1.058c.091.073.146.117.186-.032h.051c.007.083.013.1.076.13.1.048.031-.016.151.03.157.06.075-.011.121-.143l.035-.067a.28.28,0,0,0,.153.051.575.575,0,0,0,.025-.127c.12.088.03.152.255.2,0,.153,0,.27.153.306-.021.089-.062.175.05.2a.7.7,0,0,0-.127.281c.041.019.013.005.051.014l.04.009.011,0a1.145,1.145,0,0,0,.076.306c.089-.024.058-.01.1-.076.006,0,.014,0,.016.009l.033.017c.048.02-.053.01.078.024a.365.365,0,0,0,.071-.133c.025-.069-.006-.012.027-.074.014-.026.033-.04.055-.073a1.037,1.037,0,0,0,.306.076c.006.073.041.384.143.3a.162.162,0,0,0,.012-.013l.012-.015.012-.016c.037.16.093.182.128.332.091-.024.04-.018.1-.059.084-.06.08.055.15-.049a.187.187,0,0,0,.034-.121c.145.069.154-.054.154-.2h.051c0,.153-.016.293.153.2.01.118-.027.044.051.1,0,0,.012-.016.014-.011s.011-.009.014-.011l.092-.061a1,1,0,0,1,.109-.1c.074.05.034.052.128.077.034-.144.036-.095.141-.165.123-.083.04-.065.241-.065-.012-.146-.039-.032-.051-.178.082.03.079.1.153.153.069-.051.076-.11.076-.229.061.041.026.031.1.051.028-.119.974-.335,1.072-.357v.1c.093-.008.2-.106.218-.1l.086.014.014,0s.061.105.065-.1h.1l.051-.1c.054.149.109.051.128.051.058,0,.03.009.1.026-.011-.132.011-.244-.127-.281v-.051c.083-.022.017.007.083-.044.1-.075.142-.11.146.069.132-.011.184-.107.259,0,.038.051,0,.03,0,.133l.1.153c.024-.016.043-.035.057-.043l.2-.11a.141.141,0,0,0,.127.127v-.1l.074.055c0-.208.012-.079.06-.178.037-.077-.043-.08.071-.056-.021-.078-.015-.071-.092-.112Zm5.893-22.629h.1v.026h-.1Zm-13.852,24.389.008.007S430.566,1309.457,430.569,1309.455Zm.051-.026.007.008S430.618,1309.432,430.62,1309.429Zm5.816-2.066.007.007S436.434,1307.366,436.437,1307.363Zm-15.256-7.245H421.1c0-.131-.023-.074.051-.127C421.165,1300,421.228,1300.013,421.181,1300.118Zm-1.479-2.6,0,.075c-.1-.007-.08-.01-.124-.075.008,0,.055.015.061.015l.035,0,.015-.006Zm31.581-3.546c.027-.036.026-.055.051.051l-.026-.026C451.223,1293.909,451.386,1294.012,451.284,1293.97Zm-27.883-1.888c.078.057.041-.016.051.1-.017-.02-.017-.008-.033-.043S423.41,1292.1,423.4,1292.082Zm25.587-.051.007.007S448.985,1292.034,448.988,1292.031Zm-24.567-.893c0,.041.138.306-.026.306-.093,0-.089-.03-.178-.051C424.376,1291.156,424.275,1291.151,424.421,1291.138Zm-.464.234a1.262,1.262,0,0,1,.157-.106l.028.1c-.009,0-.046-.069-.156.027Zm24.7-1.509a.606.606,0,0,0,.128-.026C448.727,1289.922,448.722,1289.952,448.656,1289.863Zm-24.081-.1.007.007S424.572,1289.763,424.575,1289.761Zm4.336-5c.013.013-.017.059,0,0h0Zm-.051-.077.008.008S428.857,1284.687,428.86,1284.684Zm3.725-1.326.008.007S432.582,1283.36,432.584,1283.358Z" transform="translate(-341.28 -1282.822)" fill="#5716a3" fill-rule="evenodd"/><path d="M446.658,1286.271h.1v.026h-.1Zm-13.852,24.389.008.008S432.8,1310.662,432.806,1310.659Zm.051-.025.007.008S432.855,1310.636,432.857,1310.634Zm5.816-2.066.007.007S438.671,1308.57,438.674,1308.567Zm-15.256-7.245h-.077c0-.131-.023-.073.051-.127C423.4,1301.2,423.466,1301.217,423.418,1301.322Zm-1.479-2.6,0,.075c-.1-.008-.08-.01-.124-.075.008,0,.055.015.061.015l.035,0,.015-.006Zm31.581-3.546c.027-.036.026-.056.051.05l-.026-.026C453.46,1295.113,453.623,1295.216,453.521,1295.174Zm-27.883-1.888c.078.057.041-.016.051.1-.017-.02-.017-.008-.033-.043S425.647,1293.306,425.638,1293.286Zm25.587-.051.007.008S451.223,1293.238,451.225,1293.235Zm-24.567-.893c0,.042.138.306-.026.306-.093,0-.089-.03-.179-.051C426.613,1292.36,426.512,1292.355,426.658,1292.343Zm-.464.234a1.23,1.23,0,0,1,.157-.106l.028.1c-.009,0-.046-.069-.156.027Zm24.7-1.509a.607.607,0,0,0,.128-.026C450.964,1291.127,450.959,1291.156,450.893,1291.067Zm-24.081-.1.007.007S426.809,1290.967,426.812,1290.965Zm4.336-5c.013.013-.017.06,0,0h0Zm-.051-.077.008.008S431.094,1285.891,431.1,1285.888Zm3.725-1.326.008.007S434.819,1284.564,434.821,1284.562Z" transform="translate(-343.518 -1284.026)" fill="#5716a3" fill-rule="evenodd"/><path d="M473.583,1363.46l-.112.067c-.119.112-.248.153-.271.24h-.051c-.029-.107-.013-.04-.071-.082l-.112-.117a.25.25,0,0,0-.032-.02c-.065-.036-.007-.027-.117-.036l-.168.066c.076.041.07.034.092.112-.114-.023-.034-.021-.071.056-.048.1-.056-.03-.06.177l-.074-.054v.1a.142.142,0,0,1-.127-.127l-.2.109c-.014.009-.033.028-.057.044l-.1-.153c.008-.1.042-.082,0-.134-.075-.1-.127-.005-.259.006,0-.18-.048-.146-.146-.07-.066.052,0,.022-.083.044v.052c.139.037.116.148.127.28-.072-.016-.043-.025-.1-.025-.019,0-.074.1-.128-.051l-.051.1h-.1a.582.582,0,0,1,0,.066c-.022.351-.046.7-.063,1.025a9.425,9.425,0,0,1-.945,3.745,7.25,7.25,0,0,1-.757-1.417,7.412,7.412,0,0,1-.468-1.744c-.02-.122-.069-.442-.112-.792l0,0-.092.061s-.012.016-.014.011-.01.007-.014.011c-.078-.057-.041.017-.051-.1-.169.089-.153-.051-.153-.2h-.051c0,.15-.009.273-.154.2a.187.187,0,0,1-.034.121c-.07.1-.066-.011-.15.049-.057.041-.007.035-.1.059a.637.637,0,0,0-.033-.1c.006.065.012.13.018.2a14.906,14.906,0,0,0,.974,4.166,3.905,3.905,0,0,1,.509,1.981,23.323,23.323,0,0,0-.146,5.492l-.014.692c-.014,1.343-.025,8.85-.277,10.169a4.615,4.615,0,0,0-.131.582,3.662,3.662,0,0,0,1.336.478h.4a2.151,2.151,0,0,0,.559-.13c.168-.063.405-.241.507-.269,0-.635-.69-10.392-.766-11.84-.018-.35-.05-.716-.078-1.088l-.06-1.134a1.65,1.65,0,0,1,.2-.926,13.132,13.132,0,0,0,1.21-4.665l.117-2.27a10.611,10.611,0,0,1,.352-2c.108-.342.167-.292.573-.573l.19-.135a.984.984,0,0,1-.014-.314" transform="translate(-375.569 -1338.639)" fill="#3d8f1a"/></g></svg>