<svg xmlns="http://www.w3.org/2000/svg" viewBox="0 0 60 60"><defs><style>.cls-1{fill:#8fcb5d;fill-rule:evenodd;}.cls-2{fill:#5704a4;}</style></defs><title>icon-pig</title><g id="Capa_2" data-name="Capa 2"><g id="Capa_1-2" data-name="Capa 1"><path class="cls-1" d="M30,0A30,30,0,1,1,0,30,30,30,0,0,1,30,0"/><path class="cls-2" d="M45.19,33.13a.62.62,0,0,0-.67-.58.63.63,0,0,0-.59.67h0c0,.36,0,.73,0,1.1A14.2,14.2,0,1,1,17.7,26.84a.54.54,0,0,0,.09-.26l1-8.81,6.05,3a.66.66,0,0,0,.48,0,14.29,14.29,0,0,1,8.82,0,.62.62,0,0,0,.48,0l6.05-3,1,8.81a.58.58,0,0,0,.09.26,14.35,14.35,0,0,1,1.62,3.7.62.62,0,0,0,.78.44.64.64,0,0,0,.44-.78A15.52,15.52,0,0,0,43,26.3l-1.13-9.57a.64.64,0,0,0-.72-.54.45.45,0,0,0-.19,0l-6.63,3.32a15.35,15.35,0,0,0-9.1,0l-6.63-3.32a.64.64,0,0,0-.85.3.7.7,0,0,0-.06.19L16.56,26.3a15.44,15.44,0,0,0-.59,15l0,.12,3.07,8a.63.63,0,0,0,.59.41h2a.62.62,0,0,0,.6-.45l.39-1.27a15.45,15.45,0,0,0,14.19,0l.39,1.27a.64.64,0,0,0,.6.45h2a.64.64,0,0,0,.59-.41l3.1-8s0-.05,0-.08a15.42,15.42,0,0,0,1.64-6.92c0-.41,0-.8,0-1.2m-24,15.39H20.09l-1.26-3.28a15.56,15.56,0,0,0,2.73,2.18Zm18.24,0H38.33L38,47.43a15,15,0,0,0,2.72-2.18Z"/><path class="cls-2" d="M40.71,24.24l-.52-4.42a.65.65,0,0,0-.72-.55.6.6,0,0,0-.19.06l-3.64,1.82a.64.64,0,0,0,0,1.1l4.16,2.6a.64.64,0,0,0,.33.1.63.63,0,0,0,.63-.64v-.07m-3.49-2.46L39,20.87l.26,2.21Z"/><path class="cls-2" d="M23.9,21.15l-3.64-1.82a.64.64,0,0,0-.85.3.6.6,0,0,0-.06.19l-.52,4.42a.65.65,0,0,0,.57.7.7.7,0,0,0,.4-.09L24,22.25a.62.62,0,0,0,.2-.87.56.56,0,0,0-.25-.23m-3.66,1.93.26-2.22,1.83.91Z"/><path class="cls-2" d="M35.84,27a2,2,0,0,0-2,2,.63.63,0,1,0,1.26,0,.72.72,0,0,1,1.44,0,.63.63,0,1,0,1.26,0h0a2,2,0,0,0-2-2"/><path class="cls-2" d="M23.7,27a2,2,0,0,0-2,2,.64.64,0,0,0,.66.61.63.63,0,0,0,.61-.61.72.72,0,0,1,1.43,0,.64.64,0,0,0,.63.64.64.64,0,0,0,.64-.64,2,2,0,0,0-2-2"/><path class="cls-2" d="M29.77,29.65c-2.58,0-4.68,1.65-4.68,3.67S27.19,37,29.77,37s4.68-1.64,4.68-3.66-2.1-3.67-4.68-3.67m0,6.07c-1.88,0-3.41-1.08-3.41-2.4s1.53-2.4,3.41-2.4,3.41,1.08,3.41,2.4S31.65,35.72,29.77,35.72Z"/><path class="cls-2" d="M27.43,33.11a.63.63,0,1,0,.64,1.08.61.61,0,0,0-.15-1.13.64.64,0,0,0-.49,0"/><path class="cls-2" d="M32.2,33.17a.63.63,0,1,0,.08.89.72.72,0,0,0,.11-.19.64.64,0,0,0-.19-.7"/><path class="cls-2" d="M36.36,36.83a.63.63,0,0,0-.88-.17,10.17,10.17,0,0,1-11.42,0,.63.63,0,0,0-.88.17.62.62,0,0,0,.17.87,11.41,11.41,0,0,0,12.85,0,.62.62,0,0,0,.16-.87h0"/><path class="cls-2" d="M29.77,6.92a5.83,5.83,0,1,0,5.83,5.83,5.83,5.83,0,0,0-5.83-5.83m0,10.4a4.57,4.57,0,1,1,4.57-4.57A4.57,4.57,0,0,1,29.77,17.32Z"/><path class="cls-2" d="M30.45,12.12H29.09a0,0,0,0,1,0,0h0V10.73a0,0,0,0,1,0,0h1.35s0,0,0,0h0a.63.63,0,0,0,1.26,0,1.32,1.32,0,0,0-1.31-1.31h0v0a.63.63,0,0,0-1.26,0v0h-.05a1.31,1.31,0,0,0-1.3,1.31v1.35a1.31,1.31,0,0,0,1.3,1.31h1.35a0,0,0,0,1,0,0h0v1.35a0,0,0,0,1,0,0H29.09a0,0,0,0,1,0,0,.63.63,0,1,0-1.26,0,1.3,1.3,0,0,0,1.3,1.3h0v.05a.63.63,0,0,0,.66.6.62.62,0,0,0,.61-.6v-.05h0a1.31,1.31,0,0,0,1.31-1.3V13.43a1.31,1.31,0,0,0-1.31-1.31"/><path class="cls-2" d="M49.32,26.28h-.71v-.72a.62.62,0,0,0-.64-.62.64.64,0,0,0-.63.62v.72h-.71a.64.64,0,0,0-.05,1.27h.76v.71a.64.64,0,0,0,.64.63.63.63,0,0,0,.63-.63v-.71h.71a.64.64,0,0,0,0-1.27"/><path class="cls-2" d="M41.24,9.42h-.72V8.71a.63.63,0,0,0-1.26,0v.71h-.72a.64.64,0,0,0-.63.64.63.63,0,0,0,.63.63h.71v.72a.64.64,0,0,0,.64.63.63.63,0,0,0,.63-.63v-.72h.72a.63.63,0,0,0,.63-.63.64.64,0,0,0-.63-.64"/><path class="cls-2" d="M12.92,22.24H12.2v-.72a.63.63,0,0,0-.63-.63.64.64,0,0,0-.64.63v.72h-.71a.63.63,0,0,0,0,1.26h.71v.72a.64.64,0,0,0,.64.63.63.63,0,0,0,.63-.63V23.5h.72a.62.62,0,0,0,.62-.63.63.63,0,0,0-.62-.63"/></g></g></svg>