<svg xmlns="http://www.w3.org/2000/svg" width="52.099" height="52.099" viewBox="0 0 52.099 52.099"><path d="M85.871,776.526a26.05,26.05,0,1,1-26.049,26.049,26.049,26.049,0,0,1,26.049-26.049" transform="translate(-59.822 -776.526)" fill="#8fcb5d" fill-rule="evenodd"/><path d="M111.7,798.489a1.633,1.633,0,0,0-2.589.925l-.593,2.579a18.051,18.051,0,0,0-6.5-.469,1.61,1.61,0,0,0-.159-.381,1.931,1.931,0,0,0-2.42-.7,1.822,1.822,0,0,0-3.64,0,10.91,10.91,0,0,0-2.42,5.6,1.814,1.814,0,0,0,1.6.87,2.2,2.2,0,0,0,.819-.163,1.987,1.987,0,0,0,1.442,1.7c.055.583.122,1.2.205,1.85v.015a26.093,26.093,0,0,0,1.18,5.442,37.444,37.444,0,0,1,2.1,10.044c-1.7.482-2.677,1.3-2.677,2.285,0,1.768,3.084,2.721,5.986,2.721s5.985-.953,5.985-2.721c0-.984-.974-1.8-2.677-2.285a37.443,37.443,0,0,1,2.1-10.038c1.47-3.918,1.659-11.293,1.667-11.605v-.014c0-.736-.609-1.323-1.564-1.763l.625-2.714a.545.545,0,0,1,.863-.309l4.641,3.586a.544.544,0,1,0,.665-.861Zm-7.663,4.014a14.7,14.7,0,0,1,4.238.544l-.534,2.321a15.727,15.727,0,0,1-3.7.4,17.882,17.882,0,0,1-2.014-.123,1.993,1.993,0,0,0-.761-2.055,2.157,2.157,0,0,0,.707-.961A17.464,17.464,0,0,1,104.039,802.5Zm3.473,8.724.4-1.753c1.034.275,1.59.613,1.62.812l-.005.036C109.435,810.578,108.729,810.954,107.512,811.227Zm-8.962-.9-.006-.049c.073-.376,2-1.246,5.5-1.246a17.359,17.359,0,0,1,2.811.214l-.5,2.184a17.786,17.786,0,0,1-2.309.144C100.725,811.574,98.728,810.774,98.55,810.328Zm11.136-1.319a6.21,6.21,0,0,0-1.527-.593l.5-2.177a6.491,6.491,0,0,0,1.3-.548C109.9,806.57,109.821,807.743,109.686,809.009Zm-2.592-.82a18.653,18.653,0,0,0-3.056-.244,12.511,12.511,0,0,0-5.645,1.067c-.024-.233-.047-.457-.067-.68a2.041,2.041,0,0,0,1.117-1.578,2.221,2.221,0,0,0,.816.164,1.949,1.949,0,0,0,.983-.266,18.279,18.279,0,0,0,2.8.205,17.971,17.971,0,0,0,3.435-.319Zm-10.087-3.572a1.212,1.212,0,0,1-.582-1.043,1.2,1.2,0,1,1,2.394,0l.544-.008-.544.045a1.213,1.213,0,0,1-.626,1.03A1.158,1.158,0,0,1,97.007,804.617Zm2.211.637-.01-.022a2.292,2.292,0,0,0,.628-1.088,1.874,1.874,0,0,1,.616.2.786.786,0,1,1-.758,1.323A1.962,1.962,0,0,1,99.218,805.254Zm1.7-3.567a.9.9,0,0,1-.464,1.147,1.892,1.892,0,0,1-.62.206,2.286,2.286,0,0,0-.628-1.092l.009-.02a1.939,1.939,0,0,1,.474-.412A.906.906,0,0,1,100.922,801.687Zm-3.3-1.9a.892.892,0,0,1,.761.98,1.9,1.9,0,0,1-.12.63l0,.011a2.351,2.351,0,0,0-1.275,0l0-.008a1.894,1.894,0,0,1-.121-.633A.893.893,0,0,1,97.623,799.783Zm-3.3,1.9a.905.905,0,0,1,1.226-.172,2.014,2.014,0,0,1,.478.418l.009.018a2.3,2.3,0,0,0-.628,1.091,1.783,1.783,0,0,1-.616-.2A.9.9,0,0,1,94.323,801.687Zm0,3.809a.907.907,0,0,1,.472-1.152,1.827,1.827,0,0,1,.612-.2,2.288,2.288,0,0,0,.629,1.092l-.009.021a1.929,1.929,0,0,1-.474.412A.906.906,0,0,1,94.323,805.5Zm2.538.926a1.9,1.9,0,0,1,.12-.631l0-.007a2.229,2.229,0,0,0,1.272,0,1.949,1.949,0,0,1,.127.636.785.785,0,1,1-1.522,0Zm9.359,20.538a3.084,3.084,0,0,1-2.182.574,3.3,3.3,0,0,1-2.177-.544,27.9,27.9,0,0,0-.232-3.226,3.29,3.29,0,0,0,4.819,0,27.276,27.276,0,0,0-.228,3.2Zm2.715,1.118c0,.666-1.908,1.633-4.9,1.633s-4.9-.966-4.9-1.633c0-.341.562-.816,1.633-1.165v.077c0,1.122,1.692,1.632,3.265,1.632s3.264-.511,3.264-1.632v-.077C108.374,827.262,108.936,827.736,108.936,828.078Zm-2.086-6.906c-.6,1.574-1.668,2.554-2.811,2.554s-2.21-.972-2.807-2.54v-.006a35.4,35.4,0,0,0-1.578-5.807,20.244,20.244,0,0,1-.884-3.579,13.781,13.781,0,0,0,5.271.87,20.012,20.012,0,0,0,2.051-.1l-1.132,4.909a.546.546,0,0,0,.408.653.581.581,0,0,0,.122.013.544.544,0,0,0,.53-.423l1.223-5.312a8.743,8.743,0,0,0,2.068-.6,20.106,20.106,0,0,1-.884,3.579A35.443,35.443,0,0,0,106.85,821.171Zm3.174-17.035c0,.23-.371.55-1.075.847l.352-1.531C109.774,803.7,110.024,803.947,110.024,804.136Z" transform="translate(-77.759 -788.156)" fill="#5716a3"/></svg>