<svg xmlns="http://www.w3.org/2000/svg" width="60.009" height="60.01" viewBox="0 0 60.009 60.01"><path d="M144.594,781.3a30,30,0,1,1-30,30,30,30,0,0,1,30-30" transform="translate(-114.589 -781.301)" fill="#8fcb5d" fill-rule="evenodd"/><path d="M158.059,822.444a1.266,1.266,0,1,1-1.265-1.266,1.267,1.267,0,0,1,1.265,1.266m-3.8,0a2.532,2.532,0,1,0,2.532-2.532A2.534,2.534,0,0,0,154.262,822.444Z" transform="translate(-132.535 -798.767)" fill="#5716a3"/><path d="M158.432,817.619a.633.633,0,0,0,.6.422h2.6a.64.64,0,0,0,.448-.185l1.451-1.452,1.452,1.452a.632.632,0,0,0,.894,0l1.452-1.452,1.451,1.452a.634.634,0,0,0,.9,0l1.451-1.452,2.729,2.729-2.878,1.44H159.028a.633.633,0,0,0-.6.422,5.064,5.064,0,1,1,0-3.376Zm-11.105,1.688a6.33,6.33,0,0,0,12.132,2.532h11.666a.635.635,0,0,0,.283-.067l3.8-1.9a.633.633,0,0,0,.164-1.014l-3.8-3.8a.632.632,0,0,0-.895,0l-1.451,1.451-1.451-1.451a.634.634,0,0,0-.9,0l-1.451,1.451-1.452-1.451a.634.634,0,0,0-.9,0l-1.713,1.713h-1.91a6.33,6.33,0,0,0-12.132,2.532Z" transform="translate(-129.398 -795.63)" fill="#5716a3"/><path d="M185.115,851.923a.633.633,0,1,0-.633.632.633.633,0,0,0,.633-.632" transform="translate(-145.919 -812.961)" fill="#5716a3"/><path d="M143.5,850.323h-2.532v-8.228H143.5ZM165.933,839.4l-3.623,2.4a2.544,2.544,0,0,0-2.2-1.291h-3.081a1.26,1.26,0,0,1-.837-.308l-.446-.392a6.343,6.343,0,0,0-8.362,0l-.958.843-1.661,1.174v-.367a.633.633,0,0,0-.633-.633h-3.8a.633.633,0,0,0-.632.633v9.494a.633.633,0,0,0,.632.633h3.8a.633.633,0,0,0,.633-.633v-1.582h1.99l10.923,2.2a.64.64,0,0,0,.5-.111l4.416-3.249a.633.633,0,0,0-.75-1.02l-4.191,3.082-10.711-2.159a.6.6,0,0,0-.125-.013h-2.053v-4.728a23.325,23.325,0,0,0,3.455-2.617,5.073,5.073,0,0,1,6.69,0l.446.393a2.528,2.528,0,0,0,1.673.623h3.081a1.266,1.266,0,1,1,0,2.532h-7.6a.633.633,0,1,0,0,1.266h7.6a2.53,2.53,0,0,0,2.53-2.471l3.993-2.65a3.156,3.156,0,0,1,3.917.339l-4.118,3.029a.633.633,0,1,0,.75,1.02l4.668-3.434a.632.632,0,0,0,.141-.876A4.421,4.421,0,0,0,165.933,839.4Z" transform="translate(-125.948 -807.057)" fill="#5716a3"/></svg>