<svg xmlns="http://www.w3.org/2000/svg" width="52.099" height="52.099" viewBox="0 0 52.099 52.099"><g transform="translate(-312.409 -2014)"><path d="M225.249,340.5A26.05,26.05,0,1,1,199.2,366.545,26.05,26.05,0,0,1,225.249,340.5" transform="translate(113.209 1673.504)" fill="#8fcb5d" fill-rule="evenodd"/><path d="M253.257,378.587h-1.835v-.319c0-1.672,0-3.343,0-5.015a3.709,3.709,0,0,0-7.372-.726,4.435,4.435,0,0,0-.049.63q0,7.328,0,14.659v.156a11.238,11.238,0,0,1,1.184-.406,3.576,3.576,0,0,1,2.777.445c.163.1.323.212.488.311a1.857,1.857,0,0,0,2.1-.017,4.3,4.3,0,0,1,1.987-.817c.126-.011.251-.013.411-.021,0,.591,0,1.158-.007,1.724,0,.046-.105.125-.164.128a1.95,1.95,0,0,0-1.011.4,3.876,3.876,0,0,1-2.01.745,3.76,3.76,0,0,1-2.3-.59,2.539,2.539,0,0,0-1.267-.554,2.027,2.027,0,0,0-1.3.343,3.952,3.952,0,0,1-2.1.8,3.77,3.77,0,0,1-2.3-.59,2.531,2.531,0,0,0-1.267-.553,2.03,2.03,0,0,0-1.3.343,3.964,3.964,0,0,1-2.1.8,3.781,3.781,0,0,1-2.305-.589,2.529,2.529,0,0,0-1.266-.555,2.017,2.017,0,0,0-1.3.343,3.922,3.922,0,0,1-2.159.8,3.757,3.757,0,0,1-2.134-.515,2.591,2.591,0,0,0-1.579-.632v-1.844a3.473,3.473,0,0,1,1.935.526c.165.1.324.208.488.309a1.879,1.879,0,0,0,2.151-.007,4.176,4.176,0,0,1,2.208-.83,3.73,3.73,0,0,1,2.061.48,1.711,1.711,0,0,0,.165.072v-.347q0-7.192,0-14.384a5.85,5.85,0,0,1,.867-3.165,5.584,5.584,0,0,1,8.454-1.141l.273.255c.353-.275.67-.568,1.029-.8A5.524,5.524,0,0,1,253,371.433c.119.372.177.765.262,1.148Zm-11.1-.853v-.354c0-1.295.006-2.59,0-3.885a6.392,6.392,0,0,1,.406-2.482.308.308,0,0,0-.038-.262,3.573,3.573,0,0,0-3.428-1.328,3.692,3.692,0,0,0-3.194,3.785c0,1.414,0,2.828,0,4.243v.282Zm-6.246,5.206h6.221V379.6H235.91Zm6.228,1.884h-6.224v3.852c.407-.233.767-.423,1.11-.639a3.778,3.778,0,0,1,2.853-.482,5.3,5.3,0,0,1,1.65.793,6.531,6.531,0,0,0,.61.281Z" transform="translate(99.303 1659.463)" fill="#5716a3"/><path d="M225.39,421.934v-1.847a3.462,3.462,0,0,1,1.94.529c.141.086.28.175.419.265a1.932,1.932,0,0,0,2.269,0,4.247,4.247,0,0,1,1.859-.774,3.749,3.749,0,0,1,2.526.555,2.637,2.637,0,0,0,1.291.569,2.037,2.037,0,0,0,1.325-.361,3.963,3.963,0,0,1,2.135-.794,3.906,3.906,0,0,1,2.5.761,1.94,1.94,0,0,0,1.012.392,1.989,1.989,0,0,0,1.325-.358,3.974,3.974,0,0,1,2.106-.794,3.932,3.932,0,0,1,2.555.772,1.953,1.953,0,0,0,2.264.046,4.01,4.01,0,0,1,1.964-.8c.118-.009.235-.013.4-.022v1.328c0,.457-.011.426-.43.572a4.612,4.612,0,0,0-.973.5,3.633,3.633,0,0,1-3.111.455,4.964,4.964,0,0,1-1.246-.623,1.957,1.957,0,0,0-2.361.01,3.8,3.8,0,0,1-3.55.559,4.809,4.809,0,0,1-1.064-.567,1.944,1.944,0,0,0-2.361.007,3.7,3.7,0,0,1-3.18.658,6.421,6.421,0,0,1-1.549-.742,2.006,2.006,0,0,0-1.689-.209,3.547,3.547,0,0,0-.813.454,3.7,3.7,0,0,1-3.112.459,4.144,4.144,0,0,1-1-.455,2.416,2.416,0,0,0-1.457-.545" transform="translate(99.123 1631.371)" fill="#5716a3"/></g></svg>