<svg xmlns="http://www.w3.org/2000/svg" width="52.099" height="52.099" viewBox="0 0 52.099 52.099"><path d="M225.249,774.023a26.049,26.049,0,1,1-26.049,26.05,26.05,26.05,0,0,1,26.049-26.05" transform="translate(-199.2 -774.023)" fill="#8fcb5d" fill-rule="evenodd"/><path d="M251.087,798.883H230.523a2.573,2.573,0,0,0-2.57,2.57v24.676a1.542,1.542,0,0,0,1.542,1.543h22.62a1.542,1.542,0,0,0,1.543-1.543V801.453a2.573,2.573,0,0,0-2.571-2.57m-20.563,1.028h20.563a1.543,1.543,0,0,1,1.543,1.543v3.6H228.981v-3.6A1.542,1.542,0,0,1,230.523,799.911Zm21.592,26.733H229.5a.514.514,0,0,1-.514-.515V806.08h23.648v20.05A.514.514,0,0,1,252.115,826.644Z" transform="translate(-214.666 -787.395)" fill="#5716a3"/><path d="M232.917,806.417h6.169a.514.514,0,0,0,.514-.514v-2.056a.514.514,0,0,0-.514-.514h-6.169a.514.514,0,0,0-.514.514V805.9a.514.514,0,0,0,.514.514m.514-2.057h5.141v1.029h-5.141Z" transform="translate(-217.059 -789.788)" fill="#5716a3"/><path d="M265.1,806.417a1.543,1.543,0,1,0-1.542-1.543,1.542,1.542,0,0,0,1.542,1.543m0-2.057a.514.514,0,1,1-.514.514A.514.514,0,0,1,265.1,804.36Z" transform="translate(-233.816 -789.788)" fill="#5716a3"/><path d="M272.969,806.586H274a.514.514,0,0,0,0-1.029h-1.029a.514.514,0,0,0,0,1.029" transform="translate(-238.602 -790.984)" fill="#5716a3"/><path d="M246.19,818.908a8.225,8.225,0,1,0,8.226,8.225,8.225,8.225,0,0,0-8.226-8.225m0,15.422a7.2,7.2,0,1,1,7.2-7.2A7.2,7.2,0,0,1,246.19,834.33Z" transform="translate(-220.051 -798.166)" fill="#5716a3"/><path d="M247.986,822.244a6.677,6.677,0,0,0-6.18,9.217c0,.01,0,.021,0,.031s.014.02.019.032a6.678,6.678,0,0,0,12.606-.869l.007-.026a6.658,6.658,0,0,0-6.456-8.386m0,1.028a5.64,5.64,0,0,1,5.518,6.879,7.849,7.849,0,0,0-.788.308,4.675,4.675,0,0,1-2.159.525,3.474,3.474,0,0,1-1.827-.464,4.5,4.5,0,0,0-2.286-.565,13.514,13.514,0,0,0-3.833.72,5.65,5.65,0,0,1,5.375-7.4Zm0,11.311a5.66,5.66,0,0,1-4.968-2.957,12.226,12.226,0,0,1,3.426-.642,3.463,3.463,0,0,1,1.826.462,4.485,4.485,0,0,0,2.287.565,5.539,5.539,0,0,0,2.49-.575A5.657,5.657,0,0,1,247.986,834.583Z" transform="translate(-221.846 -799.96)" fill="#5716a3"/></svg>