<svg xmlns="http://www.w3.org/2000/svg" width="52.099" height="52.099" viewBox="0 0 52.099 52.099"><path d="M85.871,340.5a26.05,26.05,0,1,1-26.049,26.049A26.05,26.05,0,0,1,85.871,340.5" transform="translate(-59.822 -340.496)" fill="#8fcb5d" fill-rule="evenodd"/><path d="M113.476,383.373v-6.254a.544.544,0,0,0-.544-.544h-1.087a8.167,8.167,0,0,0-8.157,8.157.544.544,0,0,0,.543.544h1.983l-1.841,5.982h-3.949V390.17a.544.544,0,0,0-.543-.543H98.249V383.1h4.35a.544.544,0,0,0,.544-.543v-1.632a.544.544,0,0,0-.544-.544H97.161V368.417h13.6a.544.544,0,0,0,.195-1.051l-14.14-5.439a.546.546,0,0,0-.39,0l-14.14,5.439a.544.544,0,0,0,.2,1.051h13.6v11.964H90.635a.544.544,0,0,0-.544.544v1.632a.544.544,0,0,0,.544.543h4.35v6.526H93.354a.543.543,0,0,0-.543.543v1.087H88.861l-1.841-5.982H89a.544.544,0,0,0,.544-.544,8.167,8.167,0,0,0-8.157-8.157H80.3a.544.544,0,0,0-.543.544v6.254a1.9,1.9,0,0,0,1.9,1.9h.624l-1.842,5.982H80.3a.544.544,0,0,0,0,1.088h32.629a.544.544,0,0,0,0-1.088h-.141l-1.842-5.982h.624a1.9,1.9,0,0,0,1.9-1.9m-31.814.815a.816.816,0,0,1-.816-.815v-5.71h.544a7.08,7.08,0,0,1,7.049,6.526Zm-.079,7.069,1.841-5.982h2.459l1.842,5.982Zm3.825-23.928,11.21-4.312,11.211,4.312Zm5.772,14.14h10.876v.544H91.179Zm5.982,8.158H96.073V383.1h1.088Zm2.176,1.631H93.9v-.543h5.438Zm12.316,0h-6.142l1.841-5.982h2.46Zm-6.857-7.069a7.081,7.081,0,0,1,7.05-6.526h.543v5.71a.815.815,0,0,1-.815.815Z" transform="translate(-70.546 -352.004)" fill="#5716a3"/></svg>