<svg xmlns="http://www.w3.org/2000/svg" width="52.099" height="52.099" viewBox="0 0 52.099 52.099"><g transform="translate(-312.409 -2081)"><path d="M225.249,481.683A26.05,26.05,0,1,1,199.2,507.732a26.049,26.049,0,0,1,26.049-26.049" transform="translate(113.209 1599.317)" fill="#8fcb5d" fill-rule="evenodd"/><path d="M250.742,518.135h-.609V515.7a1.828,1.828,0,0,0-2.439-1.724v-2.543a1.83,1.83,0,0,0-1.829-1.829h-1.219a1.831,1.831,0,0,0-1.829,1.829v6.7h-1.933a1.828,1.828,0,0,0-2.33-1.115l-.068.026a1.827,1.827,0,0,0-2.241-1.285,1.91,1.91,0,0,0-.2.066,1.827,1.827,0,0,0-2.984-.882,1.827,1.827,0,0,0-3.047,1.362v.609h-.61a1.833,1.833,0,0,0-1.724,1.219h-1.934v-6.7a1.831,1.831,0,0,0-1.829-1.829H222.7a1.831,1.831,0,0,0-1.829,1.829v2.543a1.828,1.828,0,0,0-2.438,1.724v2.438h-.61a1.832,1.832,0,0,0-1.829,1.83v1.219a1.832,1.832,0,0,0,1.829,1.829h.61v2.438a1.826,1.826,0,0,0,2.438,1.723v2.543a1.831,1.831,0,0,0,1.829,1.828h1.219a1.83,1.83,0,0,0,1.829-1.828v-6.7h1.829v1.829a.61.61,0,0,0,.1.338l2.336,3.5v9.569a.609.609,0,0,0,.61.609h8.534a.609.609,0,0,0,.609-.609V528.6l1.188-3.563a.6.6,0,0,0,.032-.193v-1.829h1.828v6.7a1.831,1.831,0,0,0,1.829,1.828h1.219a1.83,1.83,0,0,0,1.829-1.828v-2.543a1.828,1.828,0,0,0,2.439-1.723v-2.438h.609a1.831,1.831,0,0,0,1.829-1.829v-1.219a1.831,1.831,0,0,0-1.829-1.83m-11.581,0a.611.611,0,0,1,.609.61v2.439a.61.61,0,0,1-1.219,0v-2.439A.611.611,0,0,1,239.161,518.135Zm-2.439-1.219a.611.611,0,0,1,.61.61v3.657a.609.609,0,0,1-1.219,0v-3.657A.611.611,0,0,1,236.723,516.916Zm-2.439-1.219a.611.611,0,0,1,.61.61v4.876a.61.61,0,0,1-1.219,0v-4.876A.61.61,0,0,1,234.284,515.7Zm-1.828,5.486a.609.609,0,0,1-1.219,0v-.61h.609a1.825,1.825,0,0,0,.61-.1Zm-1.219-4.876a.609.609,0,1,1,1.219,0v.609h-1.219Zm-13.41,5.485a.611.611,0,0,1-.61-.609v-1.219a.611.611,0,0,1,.61-.61h.61v2.438Zm2.438,4.267a.612.612,0,0,1-.61-.61V515.7a.61.61,0,0,1,1.22,0v9.753A.61.61,0,0,1,220.265,526.06Zm4.267,3.657a.61.61,0,0,1-.61.61H222.7a.609.609,0,0,1-.609-.61V511.431a.61.61,0,0,1,.609-.61h1.219a.61.61,0,0,1,.61.61Zm1.219-10.362h1.829v2.438h-1.829Zm14.019,5.387-1.187,3.563a.611.611,0,0,0-.032.193v9.143h-7.314v-7.315h1.828a.61.61,0,1,0,0-1.219h-1.828V528.5a.612.612,0,0,0-.1-.338l-2.336-3.5v-5.911a.611.611,0,0,1,.61-.61h3.048v.61a.61.61,0,0,1-.61.61h-1.219a.609.609,0,0,0-.61.61V522.4a.609.609,0,0,0,.61.609,3.051,3.051,0,0,1,3.048,3.048.61.61,0,1,0,1.219,0,4.251,4.251,0,0,0-1.285-3.048h6.161Zm1.115-2.949a1.807,1.807,0,0,0,.1-.609v-1.829h1.828v2.438Zm5.59,7.924a.609.609,0,0,1-.61.61h-1.219a.611.611,0,0,1-.61-.61V511.431a.611.611,0,0,1,.61-.61h1.219a.61.61,0,0,1,.61.61Zm2.439-4.267a.61.61,0,0,1-1.22,0V515.7a.61.61,0,0,1,1.22,0Zm2.438-4.267a.61.61,0,0,1-.61.609h-.609v-2.438h.609a.61.61,0,0,1,.61.61Z" transform="translate(104.174 1582.398)" fill="#5716a3"/></g></svg>