<svg xmlns="http://www.w3.org/2000/svg" width="52.099" height="52.099" viewBox="0 0 52.099 52.099"><g transform="translate(-535.983 -2014)"><path d="M369.311,340.5a26.05,26.05,0,1,1-26.05,26.049,26.049,26.049,0,0,1,26.05-26.049" transform="translate(192.722 1673.504)" fill="#8fcb5d" fill-rule="evenodd"/><path d="M396.33,393.266h-7.12V389.89a5.045,5.045,0,0,0,3.734-2.653,4.937,4.937,0,0,0,2.747-1.757,5.634,5.634,0,0,0,1.2-3.5,5.484,5.484,0,0,0-2.577-4.708,5.97,5.97,0,0,0-5.742-5.863,5.44,5.44,0,0,0-2.758.758.55.55,0,0,0,.56.947,4.328,4.328,0,0,1,2.2-.606,4.9,4.9,0,0,1,4.651,5.094.551.551,0,0,0,.3.489,4.337,4.337,0,0,1,2.268,3.887,4.2,4.2,0,0,1-3.309,4.23.549.549,0,0,0-.406.3,4,4,0,0,1-2.871,2.266V383.91l2.706-2.489a.55.55,0,1,0-.744-.81l-1.962,1.8v-3.671a.55.55,0,0,0-1.1,0V385.4l-1.962-1.8a.55.55,0,0,0-.744.81l2.706,2.488V388.8a3.98,3.98,0,0,1-3.054-2.324.551.551,0,0,0-.383-.3,4.2,4.2,0,0,1-3.149-4.2,4.331,4.331,0,0,1,2.123-3.81.551.551,0,0,0,.281-.486c0-.015,0-.03,0-.046a.237.237,0,0,1,0-.025,5.376,5.376,0,0,1,.978-3.13.55.55,0,1,0-.9-.636,6.443,6.443,0,0,0-1.177,3.534,5.46,5.46,0,0,0-2.4,4.6,5.33,5.33,0,0,0,3.757,5.211,5.027,5.027,0,0,0,3.929,2.721v3.357h-.349a3.478,3.478,0,0,0-2.434-3.114,864.792,864.792,0,0,1-5.42-4.347,3.245,3.245,0,0,0-2.829,1.649,3.36,3.36,0,0,0-2.721,1.577,2.755,2.755,0,0,0-2.379-1.8v-1.446a4.851,4.851,0,0,0,3.567-2.539,4.749,4.749,0,0,0,2.633-1.688,5.413,5.413,0,0,0,1.158-3.369,5.273,5.273,0,0,0-2.468-4.521,5.74,5.74,0,0,0-5.52-5.624,5.225,5.225,0,0,0-3.138,1.052.55.55,0,0,0,.657.882,4.131,4.131,0,0,1,2.482-.834A4.667,4.667,0,0,1,375.776,374a.549.549,0,0,0,.3.49,4.131,4.131,0,0,1,2.158,3.7,3.994,3.994,0,0,1-3.148,4.027.55.55,0,0,0-.406.3,3.811,3.811,0,0,1-2.7,2.152v-4.62l2.584-2.375a.55.55,0,0,0-.744-.81l-1.84,1.691v-3.461a.55.55,0,1,0-1.1,0v6.319l-1.839-1.691a.55.55,0,1,0-.744.81l2.583,2.376v1.788a3.791,3.791,0,0,1-2.88-2.208.55.55,0,0,0-.383-.3,4,4,0,0,1-3-4,4.121,4.121,0,0,1,2.021-3.627.551.551,0,0,0,.28-.486c0-.015,0-.03,0-.045s0-.015,0-.024a5.242,5.242,0,0,1,.372-1.955,5.089,5.089,0,0,1,.252-.535.55.55,0,0,0-.966-.526,6.4,6.4,0,0,0-.307.652,6.3,6.3,0,0,0-.447,2.129,5.255,5.255,0,0,0-2.3,4.417,5.129,5.129,0,0,0,3.6,5.009,4.837,4.837,0,0,0,3.754,2.606v1.573a2.733,2.733,0,0,0-1.448,1.184,2.809,2.809,0,0,0-2.623,2.363,3.539,3.539,0,0,0-1.987,2.343h-.75a.55.55,0,1,0,0,1.1H396.33a.55.55,0,1,0,0-1.1m-30.358,0a2.442,2.442,0,0,1,1.517-1.429.549.549,0,0,0,.38-.506,1.718,1.718,0,0,1,1.726-1.676c.038,0,.079,0,.129.005a.551.551,0,0,0,.548-.336,1.638,1.638,0,0,1,3.142.5.55.55,0,0,0,.506.506,1.611,1.611,0,0,1,.432.095h0l.075.03.016.007.069.031.023.013c.032.016.062.033.092.051l.049.03.036.024.054.038.029.022.062.051.018.015a1.717,1.717,0,0,1,.152.154l.013.015c.02.024.039.048.058.073l.011.014a1.5,1.5,0,0,1,.116.183l.014.026c.013.024.024.048.036.073l.012.028c.015.032.027.065.04.1v0a.552.552,0,0,0,.4.351c.049.011.1.023.145.038l.046.015c.031.011.063.021.094.034l.052.023c.027.012.055.024.081.037s.036.018.053.028.051.027.075.043l.052.032c.023.015.047.031.07.048s.032.024.049.036.045.036.066.055l.045.038c.022.02.044.042.065.063s.025.025.037.038.047.053.07.079l.025.03c.03.038.059.076.086.116.006.008.01.017.015.025.021.032.041.063.06.1l.024.046c.015.027.029.055.042.082s.015.035.023.053.023.053.033.081.013.038.02.056.018.055.025.082.011.039.016.059.013.056.019.085.008.04.011.06a.272.272,0,0,1,0,.029Zm12.272,0h0l0-.016q-.009-.1-.025-.2l0-.012c-.011-.065-.025-.13-.04-.2l0-.008c-.015-.063-.033-.126-.053-.188l-.006-.021c-.02-.06-.041-.119-.065-.177,0-.009-.007-.018-.01-.026-.023-.057-.049-.113-.076-.169l-.013-.025q-.042-.082-.087-.162l-.015-.024c-.031-.053-.064-.106-.1-.157,0-.007-.009-.012-.013-.018-.037-.053-.074-.1-.114-.154l-.007-.009c-.042-.052-.085-.1-.13-.152l0,0c-.044-.048-.091-.094-.139-.14a.068.068,0,0,0-.012-.012c-.046-.043-.094-.085-.142-.125l-.019-.016c-.049-.039-.1-.076-.149-.112l-.023-.016c-.051-.036-.1-.069-.155-.1l-.024-.015c-.054-.032-.109-.061-.164-.09l-.023-.012c-.057-.029-.115-.055-.175-.08l-.016-.006c-.062-.025-.126-.049-.19-.07h0l-.009-.016c-.022-.045-.045-.089-.07-.132l-.039-.065c-.016-.026-.032-.052-.049-.078l-.049-.073c-.015-.02-.03-.042-.045-.061s-.038-.051-.058-.076l-.036-.043c-.046-.055-.1-.11-.146-.161l-.026-.027c-.025-.025-.051-.049-.077-.073l-.045-.041-.076-.064-.056-.045c-.024-.018-.048-.037-.073-.055s-.07-.049-.105-.073l-.028-.019a2.259,2.259,0,0,1,1.945-1.107c.05,0,.1,0,.17.007a.549.549,0,0,0,.548-.336,2.15,2.15,0,0,1,4.126.663.551.551,0,0,0,.505.506,2.151,2.151,0,0,1,1.853,1.411.55.55,0,0,0,.4.35,2.37,2.37,0,0,1,1.851,2.114Z" transform="translate(181.826 1658.957)" fill="#5716a3"/></g></svg>