<svg xmlns="http://www.w3.org/2000/svg" width="52.099" height="52.099" viewBox="0 0 52.099 52.099"><path d="M85.871,914.385a26.05,26.05,0,1,1-26.049,26.049,26.049,26.049,0,0,1,26.049-26.049" transform="translate(-59.822 -914.385)" fill="#8fcb5d" fill-rule="evenodd"/><path d="M113.446,954.672h-27a.468.468,0,0,0-.465.464v1.332a.468.468,0,0,0,.465.465h27a.468.468,0,0,0,.465-.465v-1.332a.468.468,0,0,0-.465-.464m-1.774,3.131H88.221v8.391a.467.467,0,0,0,.465.464h22.522a.467.467,0,0,0,.464-.464Zm-17.681-7.887H88.738a.52.52,0,0,0-.517.518V953.8h6.288v-3.369a.511.511,0,0,0-.153-.365A.516.516,0,0,0,93.992,949.916Zm-3.637,1.6a.435.435,0,1,1,0-.869h2.02a.435.435,0,1,1,0,.869Zm17.162,0a.435.435,0,0,1,0-.869h2.022a.435.435,0,0,1,0,.869Zm-3.067-3.57a2.267,2.267,0,0,0-2.031,2.251v3.61h2.094v-1.05a.434.434,0,1,1,.869,0v1.05h6.289v-3.369a.521.521,0,0,0-.517-.518H105.9a.522.522,0,0,0-.518.518v.641a.434.434,0,1,1-.869,0v-.641a1.391,1.391,0,0,1,1.386-1.386h2.9a2.3,2.3,0,0,0-.631-.69,2.23,2.23,0,0,0-1.087-.416,2.822,2.822,0,0,1-2.636,0Zm-11.645,0a2.256,2.256,0,0,0-1.087.414,2.3,2.3,0,0,0-.63.692h2.9a1.387,1.387,0,0,1,1.386,1.386V953.8h2.1v-3.611a2.271,2.271,0,0,0-2.03-2.251,2.823,2.823,0,0,1-2.638,0Zm10.993-4.485a1.436,1.436,0,0,0,1.145-.347.434.434,0,0,1,.611.044,2.242,2.242,0,0,0,2.184.654v-.956a.914.914,0,0,0-.911-.911H104.71a.914.914,0,0,0-.911.911Zm3.94,1.227a3.113,3.113,0,0,1-2.562-.682,2.336,2.336,0,0,1-1.378.327v1.1a1.97,1.97,0,0,0,3.94,0Zm-11.645-.621H92.153v1.367a1.97,1.97,0,0,0,3.941,0Zm-3.941-.869h3.941V941.94H93.065a.917.917,0,0,0-.912.911ZM86.446,953.8h.906v-3.369a1.39,1.39,0,0,1,1.386-1.386h1.388a3.172,3.172,0,0,1,1.086-1.393,3.08,3.08,0,0,1,.743-.4,2.829,2.829,0,0,1-.67-1.828v-2.578a1.786,1.786,0,0,1,1.781-1.781h3.464a.437.437,0,0,1,.436.436v3.922a2.828,2.828,0,0,1-.671,1.828,3.163,3.163,0,0,1,1.186.785,3.12,3.12,0,0,1,.862,2.15V953.8h3.208v-3.611a3.145,3.145,0,0,1,2.049-2.935,2.829,2.829,0,0,1-.671-1.828v-2.578a1.784,1.784,0,0,1,1.781-1.781h2.117a1.785,1.785,0,0,1,1.781,1.781v2.578a2.831,2.831,0,0,1-.67,1.828,3.058,3.058,0,0,1,.746.4,3.175,3.175,0,0,1,1.084,1.393h1.388a1.39,1.39,0,0,1,1.386,1.386V953.8h.9a1.337,1.337,0,0,1,1.334,1.334v1.332a1.337,1.337,0,0,1-1.334,1.334h-.9v8.391a1.337,1.337,0,0,1-1.334,1.335H88.686a1.337,1.337,0,0,1-1.334-1.335V957.8h-.906a1.337,1.337,0,0,1-1.335-1.334v-1.332A1.337,1.337,0,0,1,86.446,953.8Z" transform="translate(-73.424 -928.739)" fill="#5716a3"/></svg>