<svg xmlns="http://www.w3.org/2000/svg" width="52.099" height="52.099" viewBox="0 0 52.099 52.099"><path d="M85.871,481.683a26.05,26.05,0,1,1-26.049,26.049,26.049,26.049,0,0,1,26.049-26.049" transform="translate(-59.822 -481.683)" fill="#8fcb5d" fill-rule="evenodd"/><path d="M112.9,536.351a1.947,1.947,0,0,0-1.945,1.945v1.575a1.229,1.229,0,0,0,1.227,1.228h1.436a1.229,1.229,0,0,0,1.227-1.228V538.3a1.948,1.948,0,0,0-1.946-1.945m1,3.521a.282.282,0,0,1-.281.282h-1.436a.282.282,0,0,1-.281-.282V538.3a1,1,0,1,1,2,0Z" transform="translate(-87.325 -515.088)" fill="#5716a3"/><path d="M112.9,551.862a1.947,1.947,0,0,0-1.945,1.946v1.577a1.228,1.228,0,0,0,1.227,1.226h1.436a1.228,1.228,0,0,0,1.227-1.226v-1.577a1.948,1.948,0,0,0-1.946-1.946m1,3.522a.281.281,0,0,1-.281.281h-1.436a.281.281,0,0,1-.281-.281v-1.577a1,1,0,0,1,2,0Z" transform="translate(-87.325 -523.431)" fill="#5716a3"/><path d="M114.61,525.97h-1.216l-4.016-9.406a.474.474,0,0,0-.871.372l4.139,9.693a.472.472,0,0,0,.435.287h1.529a.334.334,0,0,1,.333.334v2.42a.334.334,0,0,1-.333.333h-2.861a1.543,1.543,0,0,1-1.42-.937l-5.533-12.96a.474.474,0,0,0-.435-.287h-1.769v-3.087h3.1a1.54,1.54,0,0,1,1.419.938l.8,1.868a.473.473,0,1,0,.87-.372l-.8-1.869a2.485,2.485,0,0,0-2.289-1.513h-3.1v-1.453a1.283,1.283,0,0,0,.975-1.243v-1.5a1.282,1.282,0,0,0-1.007-1.25,4.519,4.519,0,0,0-4.019-4.066v-3.158a.473.473,0,0,0-.947,0v3.158a4.52,4.52,0,0,0-4.017,4.049,1.28,1.28,0,0,0-1.109,1.267v1.5a1.283,1.283,0,0,0,.976,1.243v1.453h-.92v-.816a1.375,1.375,0,1,0-2.749,0v.816H86.338v-.816a1.375,1.375,0,0,0-2.75,0v18.607a1.375,1.375,0,1,0,2.75,0v-.844h3.436v.844a1.375,1.375,0,1,0,2.749,0V518.926a.473.473,0,0,0-.946,0v10.651a.428.428,0,0,1-.856,0V510.969a.428.428,0,0,1,.856,0v6.442a.473.473,0,0,0,.946,0v-.646h.919v12.905a1.282,1.282,0,0,0,1.281,1.28h6.588a1.282,1.282,0,0,0,1.281-1.28V516.766h1.456l5.411,12.672a2.486,2.486,0,0,0,2.29,1.513h2.861a1.281,1.281,0,0,0,1.279-1.28v-2.42a1.281,1.281,0,0,0-1.279-1.281m-29.219,3.606a.428.428,0,0,1-.856,0V510.969a.428.428,0,0,1,.856,0Zm.946-16.844h3.436v1.72H86.338Zm3.436,15.054H86.338v-1.72h3.436Zm0-2.667H86.338V523.4h3.436Zm0-2.666H86.338v-1.721h3.436Zm0-2.667H86.338v-1.72h3.436Zm0-2.666H86.338V515.4h3.436ZM98.067,503.2a3.573,3.573,0,0,1,3.538,3.115H94.529A3.572,3.572,0,0,1,98.067,503.2Zm-4.624,12.623h-.92v-3.087h.92Zm8.2,10.688h-1.4a.474.474,0,0,0,0,.947h1.4v2.216a.334.334,0,0,1-.333.333c-6.985,0-6.605,0-6.656-.007a.333.333,0,0,1-.266-.326v-2.216h4.259a.474.474,0,0,0,0-.947H94.389V510.37h7.256Zm.641-17.085H93.747a.333.333,0,0,1-.334-.334v-1.5a.334.334,0,0,1,.334-.333h8.539a.334.334,0,0,1,.334.333v1.5A.334.334,0,0,1,102.286,509.423Z" transform="translate(-72.605 -490.806)" fill="#5716a3"/></svg>