<svg xmlns="http://www.w3.org/2000/svg" width="62" height="62" viewBox="0 0 62 62"><path d="M1032.588,893.37a31,31,0,1,1-31,31,31,31,0,0,1,31-31" transform="translate(-1001.588 -893.37)" fill="#8fcb5d" fill-rule="evenodd"/><path d="M1042.409,916.885a10.664,10.664,0,1,1-10.663,10.664,10.676,10.676,0,0,1,10.663-10.664m-12.3,10.664a12.3,12.3,0,1,0,12.3-12.3A12.317,12.317,0,0,0,1030.106,927.548Z" transform="translate(-1011.046 -900.624)" fill="#5716a3"/><path d="M1042.7,927.875a.819.819,0,0,0,.612-.444l1.452-2.905,1.454,2.905a.817.817,0,0,0,.611.444l3.212.484-2.314,2.28a.822.822,0,0,0-.233.719l.532,3.2-2.883-1.5a.826.826,0,0,0-.756,0l-2.883,1.5.533-3.2a.821.821,0,0,0-.234-.719l-2.314-2.28Zm-5.532.5,3.179,3.133-.731,4.4a.82.82,0,0,0,1.187.863l3.96-2.057,3.962,2.057a.821.821,0,0,0,1.188-.863l-.732-4.4,3.18-3.133a.821.821,0,0,0-.455-1.4l-4.412-.664-2-3.993a.82.82,0,0,0-1.467,0l-2,3.993-4.412.664a.82.82,0,0,0-.453,1.4Z" transform="translate(-1013.405 -902.905)" fill="#5716a3"/><path d="M1049.295,911.051a.82.82,0,1,1-.821-.821.821.821,0,0,1,.821.821" transform="translate(-1017.114 -899.052)" fill="#5716a3"/><path d="M1049.213,944.614a.819.819,0,0,0-.939.529l-1.612,4.542-4.61-8.1a15.62,15.62,0,0,0,7.789-2.917l3.911,6.893Zm-14.521,5.071-1.613-4.542a.82.82,0,0,0-.94-.529l-4.537.942,3.911-6.893a15.623,15.623,0,0,0,7.789,2.917Zm2.118-38.73a15.587,15.587,0,0,0-6.588,26.658l-4.942,8.709a.82.82,0,0,0,.88,1.208l5.612-1.165,1.973,5.558a.82.82,0,0,0,1.485.131l5.445-9.574,5.446,9.574a.821.821,0,0,0,.713.414c.024,0,.048,0,.073,0a.821.821,0,0,0,.7-.542l1.972-5.558,5.612,1.165a.82.82,0,0,0,.88-1.208l-4.941-8.709a15.587,15.587,0,0,0-6.589-26.658.82.82,0,0,0-.406,1.59,13.944,13.944,0,1,1-6.92,0,.82.82,0,1,0-.406-1.59Z" transform="translate(-1009.312 -898.657)" fill="#5716a3"/></svg>