<svg xmlns="http://www.w3.org/2000/svg" width="96.137" height="96.137" viewBox="0 0 96.137 96.137"><g transform="translate(-2209.855 -1421.522)"><path d="M2257.924,1421.522a48.069,48.069,0,1,1-48.069,48.069,48.068,48.068,0,0,1,48.069-48.069" fill="#8fcb5d" fill-rule="evenodd"/><g transform="translate(2231.635 1447.006)"><path d="M2335.786,1561.125a1.107,1.107,0,0,1-1.105,1.1h-1.4a1.3,1.3,0,0,0-1.3,1.3v2.9a1.106,1.106,0,0,1-1.1,1.1h-.8a1.106,1.106,0,0,1-1.1-1.1v-2.9a1.3,1.3,0,0,0-1.3-1.3H2308.47a1.3,1.3,0,0,0-1.3,1.3v2.9a1.106,1.106,0,0,1-1.105,1.1h-.8a1.106,1.106,0,0,1-1.1-1.1v-2.9a1.3,1.3,0,0,0-1.3-1.3H2301.2a1.107,1.107,0,0,1-1.1-1.1v-10.2a1.107,1.107,0,0,1,1.1-1.1h.881a1.294,1.294,0,0,0,1.247-.946l2.56-9.126a43.648,43.648,0,0,1,11.818-1.543,47.581,47.581,0,0,1,12.16,1.572l2.552,9.1a1.3,1.3,0,0,0,1.248.946h1.013a1.107,1.107,0,0,1,1.105,1.1Zm-1.106-13.9-2.515-8.859a1.3,1.3,0,0,0-.9-.9,50.151,50.151,0,0,0-13.56-1.859,43.445,43.445,0,0,0-13.306,1.885,1.3,1.3,0,0,0-.817.872l-2.485,8.861a3.7,3.7,0,0,0-3.594,3.693v10.2a3.7,3.7,0,0,0,3.7,3.7h.371v1.606a3.7,3.7,0,0,0,3.7,3.7h.8a3.7,3.7,0,0,0,3.7-3.7v-1.6h16.615v1.606a3.7,3.7,0,0,0,3.7,3.7h.8a3.7,3.7,0,0,0,3.7-3.7v-1.6h.1a3.7,3.7,0,0,0,3.7-3.7v-10.2A3.7,3.7,0,0,0,2334.68,1547.224Z" transform="translate(-2291.601 -1525.058)" fill="#5716a3"/><path d="M2315.327,1593.618a1.406,1.406,0,1,1,1.406-1.4,1.406,1.406,0,0,1-1.406,1.4m0-5.4a4,4,0,1,0,4,4A4,4,0,0,0,2315.327,1588.215Z" transform="translate(-2301.059 -1561.048)" fill="#5716a3"/><path d="M2391.337,1593.618a1.406,1.406,0,1,1,1.406-1.4,1.406,1.406,0,0,1-1.406,1.4m0-5.4a4,4,0,1,0,4,4A4,4,0,0,0,2391.337,1588.215Z" transform="translate(-2353.06 -1561.048)" fill="#5716a3"/><path d="M2325.579,1552.387a41.522,41.522,0,0,1,9.122-1.006,35.917,35.917,0,0,1,8.607,1l.925,3.959h-19.577Zm-2.556,6.544h22.843a1.295,1.295,0,0,0,1.262-1.589l-1.475-6.312a1.3,1.3,0,0,0-.919-.955,38.1,38.1,0,0,0-10.033-1.284,41.8,41.8,0,0,0-10.563,1.289,1.3,1.3,0,0,0-.9.951l-1.473,6.313a1.293,1.293,0,0,0,1.262,1.587Z" transform="translate(-2308.171 -1534.076)" fill="#5716a3"/><path d="M2330.658,1515.541l-25.575-13.336-25.576,13.336a1.3,1.3,0,1,0,1.2,2.3l24.379-12.712,24.377,12.713a1.3,1.3,0,0,0,1.2-2.3" transform="translate(-2278.81 -1502.205)" fill="#5716a3"/></g></g></svg>