<svg xmlns="http://www.w3.org/2000/svg" width="62" height="62" viewBox="0 0 62 62"><g transform="translate(-725 -746)"><circle cx="31" cy="31" r="31" transform="translate(725 746)" fill="#8fcb5d"/><g transform="translate(737.487 757.305)" fill="none"><path d="M33.267,15.749l-.852-2.131L30.9,9.839A8.453,8.453,0,0,0,23.017,4.5H13.385A8.453,8.453,0,0,0,5.5,9.839L3.988,13.618l-.852,2.131A4.843,4.843,0,0,0,0,20.274v3.64a4.814,4.814,0,0,0,1.213,3.18v4.1A2.427,2.427,0,0,0,3.64,33.622H6.067a2.427,2.427,0,0,0,2.427-2.427V28.768H27.908v2.427a2.427,2.427,0,0,0,2.427,2.427h2.427a2.427,2.427,0,0,0,2.427-2.427v-4.1a4.811,4.811,0,0,0,1.213-3.18v-3.64A4.843,4.843,0,0,0,33.267,15.749ZM10.005,11.642a3.641,3.641,0,0,1,3.38-2.288h9.631a3.641,3.641,0,0,1,3.38,2.288l1.511,3.779H8.494l1.511-3.779ZM6.067,23.9A2.289,2.289,0,0,1,3.64,21.48a2.289,2.289,0,0,1,2.427-2.419c1.456,0,3.64,2.177,3.64,3.629S7.523,23.9,6.067,23.9Zm24.268,0c-1.456,0-3.64.242-3.64-1.21s2.184-3.629,3.64-3.629a2.289,2.289,0,0,1,2.427,2.419A2.289,2.289,0,0,1,30.335,23.9Z" stroke="none"/><path d="M 13.38541603088379 6.19999885559082 C 10.59124565124512 6.19999885559082 8.115196228027344 7.876239776611328 7.077445983886719 10.47031021118164 L 5.565975189208984 14.24936866760254 L 4.713556289672852 16.38041877746582 L 4.436515808105469 17.07301902770996 L 3.739265441894531 17.33809852600098 C 2.500453948974609 17.80906867980957 1.699996948242188 18.96159934997559 1.699996948242188 20.27431869506836 L 1.699996948242188 23.9145393371582 C 1.699996948242188 24.86769866943359 2.131504058837891 25.56155967712402 2.493495941162109 25.97579956054688 L 2.913406372070312 26.4563102722168 L 2.913406372070312 27.09444046020508 L 2.913406372070312 31.19499969482422 C 2.913406372070312 31.59576988220215 3.239456176757812 31.92181968688965 3.640224456787109 31.92181968688965 L 6.067045211791992 31.92181968688965 C 6.467815399169922 31.92181968688965 6.793865203857422 31.59576988220215 6.793865203857422 31.19499969482422 L 6.793865203857422 28.76817893981934 L 6.793865203857422 27.06818008422852 L 8.493865966796875 27.06818008422852 L 27.90840530395508 27.06818008422852 L 29.60840606689453 27.06818008422852 L 29.60840606689453 28.76817893981934 L 29.60840606689453 31.19499969482422 C 29.60840606689453 31.59576988220215 29.93445587158203 31.92181968688965 30.33522605895996 31.92181968688965 L 32.76204681396484 31.92181968688965 C 33.16280364990234 31.92181968688965 33.48885726928711 31.59576988220215 33.48885726928711 31.19499969482422 L 33.48885726928711 27.09444046020508 L 33.48885726928711 26.45586967468262 L 33.90926361083984 25.9752197265625 C 34.27103424072266 25.56161880493164 34.70227432250977 24.86837005615234 34.70227432250977 23.9145393371582 L 34.70227432250977 20.27431869506836 C 34.70227432250977 18.96159934997559 33.90181732177734 17.80906867980957 32.66299438476562 17.33809852600098 L 31.96573638916016 17.0730094909668 L 31.68870544433594 16.38041877746582 L 30.83627510070801 14.24931907653809 L 29.32487487792969 10.47042846679688 C 28.28707504272461 7.876239776611328 25.81102561950684 6.19999885559082 23.01685523986816 6.19999885559082 L 13.38541603088379 6.19999885559082 M 30.41926574707031 17.12067985534668 L 27.90840530395508 17.12067985534668 L 8.493865966796875 17.12067985534668 L 5.983005523681641 17.12067985534668 L 6.915435791015625 14.78936958312988 L 8.426965713500977 11.01015853881836 C 8.824935913085938 10.0155086517334 9.504236221313477 9.172319412231445 10.39143562316895 8.571720123291016 C 11.2786750793457 7.971109390258789 12.3139762878418 7.65363883972168 13.38541603088379 7.65363883972168 L 23.01685523986816 7.65363883972168 C 24.08829498291016 7.65363883972168 25.12359619140625 7.971109390258789 26.01083564758301 8.571720123291016 C 26.89803695678711 9.172319412231445 27.57733535766602 10.0155086517334 27.97538566589355 11.0103588104248 L 29.48683547973633 14.78936958312988 L 30.41926574707031 17.12067985534668 M 7.250104904174805 25.61449813842773 C 7.023164749145508 25.61449813842773 6.803794860839844 25.61032867431641 6.591646194458008 25.60630035400391 C 6.40440559387207 25.60273933410645 6.227544784545898 25.59938049316406 6.067045211791992 25.59938049316406 C 3.675804138183594 25.59938049316406 1.940227508544922 23.86698913574219 1.940227508544922 21.48013877868652 C 1.940227508544922 19.09329986572266 3.675804138183594 17.36090850830078 6.067045211791992 17.36090850830078 C 7.686845779418945 17.36090850830078 9.100706100463867 18.59601974487305 9.633396148681641 19.12704849243164 C 10.16674613952637 19.65872955322266 11.40727615356445 21.07022857666016 11.40727615356445 22.68975830078125 C 11.40727615356445 23.89300918579102 10.70482635498047 24.87072944641113 9.528215408325195 25.30514907836914 C 8.789896011352539 25.57774925231934 7.962295532226562 25.61449813842773 7.250104904174805 25.61449813842773 M 29.15216445922852 25.61449813842773 C 28.43992614746094 25.61449813842773 27.61229705810547 25.57774925231934 26.8740348815918 25.30518913269043 C 25.69743537902832 24.87078857421875 24.9949951171875 23.89305877685547 24.9949951171875 22.68975830078125 C 24.9949951171875 21.07022857666016 26.23552703857422 19.65872955322266 26.76887512207031 19.12704849243164 C 27.30156517028809 18.59601974487305 28.71542549133301 17.36090850830078 30.33522605895996 17.36090850830078 C 32.72646713256836 17.36090850830078 34.46204376220703 19.09329986572266 34.46204376220703 21.48013877868652 C 34.46204376220703 23.86698913574219 32.72646713256836 25.59938049316406 30.33522605895996 25.59938049316406 C 30.17476654052734 25.59938049316406 29.99788665771484 25.60273933410645 29.81061553955078 25.60630035400391 C 29.59844589233398 25.61032867431641 29.37905502319336 25.61449813842773 29.15216445922852 25.61449813842773 M 13.38541603088379 4.5 L 23.01685523986816 4.5 C 26.51070594787598 4.5 29.60566520690918 6.595409393310547 30.90325546264648 9.838998794555664 L 32.41470718383789 13.61800956726074 L 33.26711654663086 15.74905967712402 C 35.09633636474609 16.44448852539062 36.40227508544922 18.20089912414551 36.40227508544922 20.27431869506836 L 36.40227508544922 23.9145393371582 C 36.40227508544922 25.13781929016113 35.93510437011719 26.24126052856445 35.1888542175293 27.09444046020508 L 35.1888542175293 31.19499969482422 C 35.1888542175293 32.53506088256836 34.10209655761719 33.62181854248047 32.76204681396484 33.62181854248047 L 30.33522605895996 33.62181854248047 C 28.99516677856445 33.62181854248047 27.90840530395508 32.53506088256836 27.90840530395508 31.19499969482422 L 27.90840530395508 28.76817893981934 L 8.493865966796875 28.76817893981934 L 8.493865966796875 31.19499969482422 C 8.493865966796875 32.53506088256836 7.407106399536133 33.62181854248047 6.067045211791992 33.62181854248047 L 3.640224456787109 33.62181854248047 C 2.300167083740234 33.62181854248047 1.213405609130859 32.53506088256836 1.213405609130859 31.19499969482422 L 1.213405609130859 27.09444046020508 C 0.4671669006347656 26.24049949645996 -3.814697265625e-06 25.13705825805664 -3.814697265625e-06 23.9145393371582 L -3.814697265625e-06 20.27431869506836 C -3.814697265625e-06 18.20089912414551 1.305927276611328 16.44448852539062 3.135147094726562 15.74905967712402 L 3.987564086914062 13.61800956726074 L 5.499015808105469 9.838998794555664 C 6.796606063842773 6.595409393310547 9.892314910888672 4.5 13.38541603088379 4.5 Z M 27.90840530395508 15.42067909240723 L 26.3969554901123 11.64166831970215 C 25.84409523010254 10.2598991394043 24.50554656982422 9.353639602661133 23.01685523986816 9.353639602661133 L 13.38541603088379 9.353639602661133 C 11.89671516418457 9.353639602661133 10.55817604064941 10.2598991394043 10.00531578063965 11.64166831970215 L 8.493865966796875 15.42067909240723 L 27.90840530395508 15.42067909240723 Z M 7.250106811523438 23.91449928283691 C 8.478683471679688 23.91449928283691 9.707275390625 23.77841567993164 9.707275390625 22.68975830078125 C 9.707275390625 21.23822021484375 7.523136138916016 19.06090927124023 6.067045211791992 19.06090927124023 C 4.610956192016602 19.06090927124023 3.640224456787109 20.02859878540039 3.640224456787109 21.48013877868652 C 3.640224456787109 22.93167877197266 4.610956192016602 23.89937973022461 6.067045211791992 23.89937973022461 C 6.431068420410156 23.89937973022461 6.840581893920898 23.91449928283691 7.250106811523438 23.91449928283691 Z M 29.15216445922852 23.91449928283691 C 29.56159019470215 23.91449928283691 29.97129249572754 23.89937973022461 30.33522605895996 23.89937973022461 C 31.79131507873535 23.89937973022461 32.76204681396484 22.93167877197266 32.76204681396484 21.48013877868652 C 32.76204681396484 20.02859878540039 31.79131507873535 19.06090927124023 30.33522605895996 19.06090927124023 C 28.87913513183594 19.06090927124023 26.69499588012695 21.23822021484375 26.69499588012695 22.68975830078125 C 26.69499588012695 23.77850341796875 27.92348670959473 23.91449928283691 29.15216445922852 23.91449928283691 Z" stroke="none" fill="#56209f"/></g></g></svg>