<svg xmlns="http://www.w3.org/2000/svg" width="52.099" height="52.099" viewBox="0 0 52.099 52.099"><path d="M369.312,774.475a26.05,26.05,0,1,1-26.05,26.049,26.049,26.049,0,0,1,26.05-26.049" transform="translate(-343.262 -774.475)" fill="#8fcb5d" fill-rule="evenodd"/><path d="M403.128,810.389l-18.251-10.537a2.285,2.285,0,0,0-3.116.835l-2.1,3.639-1.4,2.423a2.284,2.284,0,0,0,.836,3.116l6.257,3.613-.973,1.659a1.467,1.467,0,0,1-1.262.723h-3.653v-2.784a.41.41,0,0,0-.409-.409h-2.223v-.528a1.815,1.815,0,0,0-1.813-1.813h-1.228a.409.409,0,0,0-.409.409h0v13.88a.409.409,0,0,0,.409.409h1.229a1.815,1.815,0,0,0,1.813-1.813v-1.3h2.223a.41.41,0,0,0,.409-.41v-2.012h3.653a5.11,5.11,0,0,0,4.391-2.514l.985-1.681,3.43,1.98a2.282,2.282,0,0,0,2.722-.331,3.406,3.406,0,0,0,1.432.317,3.448,3.448,0,0,0,.9-.119,3.413,3.413,0,0,0,1.865-1.263l.839.485a.409.409,0,0,0,.559-.15h0l3.037-5.26a.409.409,0,0,0-.149-.56m-27.114,12.82a1,1,0,0,1-.995.994H374.2V811.143h.819a1,1,0,0,1,.995.995Zm2.633-2.12h-1.814v-7.6h1.814Zm8.156-4.531a4.286,4.286,0,0,1-3.684,2.11h-3.653v-1.989h3.653a2.288,2.288,0,0,0,1.968-1.128l.977-1.664,1.723.994Zm5.532,0-12.829-7.407a1.464,1.464,0,0,1-.535-2l1.193-2.068,11.757,6.788,3.605,2.081-1.194,2.069,0,0a1.349,1.349,0,0,1-.1.152v0A1.463,1.463,0,0,1,392.335,816.562Zm4.431-.215a2.613,2.613,0,0,1-1.623-.086l1.094-1.893,1.893,1.093a2.613,2.613,0,0,1-1.364.885Zm2.97-.9-2.648-1.529-.8-.461-9.041-5.219-6.675-3.854,1.9-3.285a1.464,1.464,0,0,1,2-.535l17.9,10.332Z" transform="translate(-359.463 -787.961)" fill="#5716a3"/><path d="M428.363,825.975a1.563,1.563,0,0,0,.785.211,1.592,1.592,0,0,0,.41-.054,1.574,1.574,0,1,0-1.2-.157m.134-1.742a.752.752,0,0,1,.458-.351.79.79,0,0,1,.2-.026.756.756,0,1,1-.655.379Z" transform="translate(-389.613 -800.595)" fill="#5716a3"/><path d="M394.452,818.1l-3.355-1.938a.41.41,0,0,0-.414.707l0,0,3.356,1.937a.409.409,0,0,0,.409-.709" transform="translate(-369.66 -796.868)" fill="#5716a3"/></svg>