<svg xmlns="http://www.w3.org/2000/svg" width="52.099" height="52.099" viewBox="0 0 52.099 52.099"><path d="M369.311,635.57a26.049,26.049,0,1,1-26.049,26.049,26.049,26.049,0,0,1,26.049-26.049" transform="translate(-343.262 -635.57)" fill="#8fcb5d" fill-rule="evenodd"/><path d="M416,692.34a.583.583,0,1,0-.584-.583.583.583,0,0,0,.584.583" transform="translate(-382.074 -665.478)" fill="#5716a3"/><path d="M403.5,697.655a9.916,9.916,0,0,0,4.645-2.712.583.583,0,0,0-.839-.811,8.736,8.736,0,0,1-4.1,2.393.583.583,0,1,0,.292,1.13" transform="translate(-375.27 -666.974)" fill="#5716a3"/><path d="M400.131,679.767H373.19a.584.584,0,0,0-.584.584,12.365,12.365,0,0,0,.245,2.447l0,.006a12.218,12.218,0,0,0,5.694,8.046l-3.062,9.855a.582.582,0,0,0,.557.756H378.5a.583.583,0,0,0,.558-.41l1.06-3.438h9.469l1.06,3.438a.583.583,0,0,0,.558.41h2.458a.583.583,0,0,0,.557-.756l-3.062-9.855a12.281,12.281,0,0,0,5.243-6.418h3.73a2.333,2.333,0,1,0,0-4.665m-22.061,20.527h-1.236l2.759-8.882q.528.252,1.077.452C380.07,693.813,378.649,698.421,378.071,700.294Zm2.408-3.849.359-1.166h8.029l.36,1.166Zm.719-2.333.587-1.9a12.33,12.33,0,0,0,6.136,0l.587,1.9Zm11.674,6.182h-1.236c-.028-.089-2.575-8.347-2.6-8.43q.549-.2,1.078-.452Zm2.555-16.622v.005a11.084,11.084,0,0,1-21.264-.413h21.384C395.507,683.4,395.469,683.538,395.426,683.673Zm.369-1.573H373.911a11.312,11.312,0,0,1-.122-1.166h22.129A11.186,11.186,0,0,1,395.8,682.1Zm4.336,1.166h-3.383c.037-.153.073-.307.1-.462V682.8a12.414,12.414,0,0,0,.231-1.865h3.046a1.166,1.166,0,1,1,0,2.333Z" transform="translate(-359.045 -659.343)" fill="#5716a3"/><path d="M389.247,666.759a2,2,0,0,0,0-3.326.6.6,0,1,0-.662.993.806.806,0,0,1,0,1.34,2,2,0,0,0,0,3.325.6.6,0,1,0,.662-.993.8.8,0,0,1,0-1.339" transform="translate(-367.161 -650.503)" fill="#5716a3"/><path d="M398.08,665.531a1.971,1.971,0,0,0,0-3.3.6.6,0,0,0-.661.993.778.778,0,0,1,0,1.31,2,2,0,0,0,0,3.326.6.6,0,1,0,.661-.994.805.805,0,0,1,0-1.339" transform="translate(-371.913 -649.858)" fill="#5716a3"/><path d="M406.914,666.759a2,2,0,0,0,0-3.326.6.6,0,1,0-.662.993.806.806,0,0,1,0,1.34,2,2,0,0,0,0,3.325.6.6,0,1,0,.662-.993.806.806,0,0,1,0-1.339" transform="translate(-376.664 -650.503)" fill="#5716a3"/></svg>