<svg xmlns="http://www.w3.org/2000/svg" width="52.099" height="52.099" viewBox="0 0 52.099 52.099"><path d="M225.249,627.248A26.05,26.05,0,1,1,199.2,653.3a26.049,26.049,0,0,1,26.049-26.049" transform="translate(-199.2 -627.248)" fill="#8fcb5d" fill-rule="evenodd"/><path d="M250.633,658.1h-36.61a.61.61,0,0,0-.611.609V680.68a.611.611,0,0,0,.611.61h36.61a.61.61,0,0,0,.61-.61V658.714a.61.61,0,0,0-.61-.609M242.09,669.7a1.831,1.831,0,1,1,1.831,1.83A1.831,1.831,0,0,1,242.09,669.7Zm4.27-1.831h3.662v3.661H246.36A3.045,3.045,0,0,0,246.36,667.866Zm3.662-1.22h-6.1a3.051,3.051,0,1,0,0,6.1h6.1v5.477c-5.436-.262-9.762-3.986-9.762-8.527s4.326-8.266,9.762-8.528Zm-18.305,6.04a3.051,3.051,0,0,1,0-5.978Zm1.221-5.978a3.051,3.051,0,0,1,0,5.978ZM222.565,669.7a1.83,1.83,0,1,1-1.831-1.831A1.831,1.831,0,0,1,222.565,669.7Zm-4.27,1.83h-3.663v-3.661H218.3A3.045,3.045,0,0,0,218.3,671.528Zm-3.663,1.22h6.1a3.051,3.051,0,1,0,0-6.1h-6.1V661.17c5.437.261,9.763,3.986,9.763,8.528s-4.326,8.266-9.763,8.527Zm0,7.322v-.623c6.11-.268,10.984-4.539,10.984-9.749s-4.874-9.481-10.984-9.749v-.623h17.085v6.146a4.271,4.271,0,0,0,0,8.454v2.485a.61.61,0,0,0,1.221,0v-2.485a4.27,4.27,0,0,0,0-8.454v-6.146h17.084v.623c-6.11.268-10.983,4.538-10.983,9.749s4.873,9.481,10.983,9.749v.623Z" transform="translate(-206.844 -643.845)" fill="#5716a3"/><path d="M253.767,700.492a.61.61,0,0,0-.61.61v.61a.61.61,0,1,0,1.22,0v-.61a.61.61,0,0,0-.61-.61" transform="translate(-228.222 -666.644)" fill="#5716a3"/></svg>