<svg xmlns="http://www.w3.org/2000/svg" width="60.01" height="60.01" viewBox="0 0 60.01 60.01"><path d="M144.956,608.46a30,30,0,1,1-30,30.005,30.005,30.005,0,0,1,30-30.005" transform="translate(-114.951 -608.46)" fill="#8fcb5d" fill-rule="evenodd"/><path d="M169.824,653.826a.714.714,0,0,0-.1.865,2.214,2.214,0,0,1,.244.887,2.127,2.127,0,0,1-1,1.837.723.723,0,0,0-.244.818,1.874,1.874,0,0,1-.143,1.37,3.324,3.324,0,0,1-2.347,1.349,14,14,0,0,1-3.871.117h-.074a52.281,52.281,0,0,1-6.9-.377h-.006l-.536-.063a2.291,2.291,0,0,0,.047-.467v-8.633a2.234,2.234,0,0,0-.1-.658,4.445,4.445,0,0,1,.988-1.821c2.384-1.89,4.715-8.267,4.815-8.543a.677.677,0,0,0,.032-.357,3.31,3.31,0,0,1,.069-1.539,1.9,1.9,0,0,1,1.5.716c.542.749.52,2.087-.064,3.86-.892,2.7-.967,4.126-.26,4.752a1.155,1.155,0,0,0,1.158.207c.324-.074.632-.138.923-.186l.069-.016c1.63-.356,4.55-.573,5.565.35a1.527,1.527,0,0,1,.18,1.938.711.711,0,0,0,.128.924,2.01,2.01,0,0,1,.589,1.237,1.972,1.972,0,0,1-.663,1.434m-20.372,7.109a.776.776,0,0,1-.775-.775v-8.633a.775.775,0,0,1,.775-.775h3.239a.776.776,0,0,1,.775.775v8.628a.776.776,0,0,1-.775.775h-3.239Zm21.731-6.488a3.147,3.147,0,0,0,.738-2.107,3.232,3.232,0,0,0-.69-1.826,2.838,2.838,0,0,0-.674-3.266c-.844-.77-2.278-1.114-4.264-1.02a16.621,16.621,0,0,0-2.612.335h-.005c-.266.047-.547.106-.833.169a9.236,9.236,0,0,1,.663-3.084c.743-2.262.7-3.993-.138-5.15a3.374,3.374,0,0,0-2.7-1.312,1.332,1.332,0,0,0-1.025.468,3.571,3.571,0,0,0-.447,2.532c-.7,1.88-2.665,6.487-4.326,7.767a.653.653,0,0,0-.085.074,5.7,5.7,0,0,0-1.04,1.562,2.188,2.188,0,0,0-1.051-.266h-3.239a2.211,2.211,0,0,0-2.209,2.209v8.628a2.211,2.211,0,0,0,2.209,2.209h3.239a2.207,2.207,0,0,0,1.274-.4l1.248.148a53.558,53.558,0,0,0,7.077.387c.632.048,1.227.074,1.779.074a11.928,11.928,0,0,0,2.469-.223,4.614,4.614,0,0,0,3.3-2.049,3.249,3.249,0,0,0,.361-2.034,3.386,3.386,0,0,0,1.205-2.755A3.6,3.6,0,0,0,171.183,654.447Z" transform="translate(-129.559 -621.454)" fill="#5716a3"/></svg>