<svg xmlns="http://www.w3.org/2000/svg" width="38.226" height="37.697" viewBox="0 0 38.226 37.697"><g transform="translate(0 0)"><path d="M711.2,43.608c.127-.895.223-1.794.384-2.682.913-5.03,4.474-8.452,9.566-8.628,6.131-.211,12.28-.222,18.41,0a9.851,9.851,0,0,1,9.728,9.847q.276,8.83,0,17.674a9.851,9.851,0,0,1-9.728,9.847c-6.13.221-12.28.227-18.41,0-5.543-.208-9.374-4.321-9.745-9.873-.032-.48-.135-.956-.205-1.434Zm19.118,22.771c2.805,0,5.613.084,8.415-.02,4.393-.163,7.094-2.784,7.2-7.173q.191-8.2,0-16.412c-.1-4.387-2.806-7.07-7.2-7.164q-8.359-.177-16.725,0c-4.357.091-7.067,2.72-7.185,7.059q-.225,8.306,0,16.621c.118,4.339,2.828,6.906,7.186,7.068C724.771,66.462,727.544,66.379,730.314,66.379Z" transform="translate(-711.196 -32.135)" fill="#fff"/><path d="M876.877,183.681a9.741,9.741,0,1,0,9.741,9.741A9.741,9.741,0,0,0,876.877,183.681Zm0,16.128a6.387,6.387,0,1,1,6.387-6.387A6.387,6.387,0,0,1,876.877,199.809Z" transform="translate(-857.764 -174.573)" fill="#fff"/><path d="M1166.829,140.041a2.317,2.317,0,1,1-2.317-2.318A2.317,2.317,0,0,1,1166.829,140.041Z" transform="translate(-1135.089 -131.377)" fill="#fff"/></g></svg>