<svg xmlns="http://www.w3.org/2000/svg" viewBox="0 0 184.01 118.61"><defs><style>.cls-1{fill:#8fcb5d;}.cls-1,.cls-2,.cls-4{fill-rule:evenodd;}.cls-2,.cls-5{fill:#5716a3;}.cls-3,.cls-4{fill:#fff;}.cls-6{fill:#3d8f1a;}</style></defs><title>oga-green-purple</title><g id="Capa_2" data-name="Capa 2"><g id="Capa_1-2" data-name="Capa 1"><g id="Group_248" data-name="Group 248"><path id="Path_452" data-name="Path 452" class="cls-1" d="M38.26,53.27q0-12.84-4-20-2.92-5.25-9.81-5.25-6.52,0-10.2,6.71t-3.68,18.6q0,11.79,3.91,18.37t10.91,6.59q5.37,0,7.93-4.08,4.91-7.7,4.9-21m10.62.12q0,11.31-6.88,18.95A22.11,22.11,0,0,1,24.85,80,23.21,23.21,0,0,1,7.12,72.33Q0,64.69,0,53.38,0,41.71,6.94,34a22.35,22.35,0,0,1,17.32-7.7,22.75,22.75,0,0,1,17.56,7.76q7.05,7.77,7.06,19.31Z"/><path id="Path_453" data-name="Path 453" class="cls-2" d="M89.56,109.62q-7.34,5.86-18.06,5.87-8.46,0-13.61-4.39a14.49,14.49,0,0,1-5.15-11.6q0-9.63,7.2-13.45a78,78,0,0,0,11.5-1.27A77,77,0,0,1,83.08,83.5q13.83,0,13.83,11.75,0,8.49-7.34,14.37M74.68,20.52Q86,20.52,86,41q0,20.1-10.62,20.1-11.74,0-11.75-21.52,0-19.09,11-19.1ZM98,77.7q-4.89-4.53-13.52-4.53a63.1,63.1,0,0,0-10.62,1,72.51,72.51,0,0,1-10.9,1.27Q54,75.43,54,68.07a7.3,7.3,0,0,1,2.4-5.23,7.45,7.45,0,0,1,5.38-2.41,11.12,11.12,0,0,1,2.41.57q6.8,2.11,9.34,2.12a22.75,22.75,0,0,0,16.56-6.51,21.68,21.68,0,0,0,6.65-16.14,45.06,45.06,0,0,0-.71-6.65c-.47-2.92-.7-4.53-.7-4.81A5.48,5.48,0,0,1,96.9,25.4a4.42,4.42,0,0,1,3.26-1.77c1.32,0,2,.61,2,1.84a6.22,6.22,0,0,1-.42,1.91,6,6,0,0,0-.43,1.77,3.19,3.19,0,0,0,.18,1.06l.34-.33a17.67,17.67,0,0,1,10.44-4.18q-.7-5.88-8-5.89-6.65,0-11.18,6.65a30.32,30.32,0,0,0-8.42-6.22,23.8,23.8,0,0,0-9.41-1.56q-10.62,0-17.13,6.16T51.61,41.18A21.18,21.18,0,0,0,60.1,58.73q-13,4-13,14.16,0,8.2,10.05,12.17-6.8,1.56-9.91,3.54Q41,92.7,41,100.77a15.17,15.17,0,0,0,6.73,13.1q6.72,4.74,18.47,4.74,15.86,0,26.25-8.07t10.4-20.24q0-8.07-4.88-12.6Z"/><path id="Path_454" data-name="Path 454" class="cls-2" d="M119.93,95.4a4,4,0,0,1-4.25,3.16c-3.2,0-4.81-2.42-4.81-5.45s1.61-5.53,4.86-5.53a3.89,3.89,0,0,1,4.2,3.23h-1.42a2.7,2.7,0,0,0-2.84-2c-2.36,0-3.32,2.15-3.32,4.31s.91,4.31,3.38,4.31a2.75,2.75,0,0,0,2.77-2Z"/><path id="Path_455" data-name="Path 455" class="cls-2" d="M121.78,90.64h1.35v7.79h-1.35Zm0-3.49h1.35v1.68h-1.35Z"/><path id="Path_456" data-name="Path 456" class="cls-2" d="M131.68,96.16c0,.75,0,1.81,0,2.27h-1.3a11.46,11.46,0,0,1-.06-1.17A2.31,2.31,0,0,1,128,98.61c-1.31,0-2.57-.65-2.57-2.85V90.63h1.33v4.84c0,1,.32,2,1.62,2s2-.8,2-2.74V90.63h1.35Z"/><path id="Path_457" data-name="Path 457" class="cls-2" d="M134.85,94.57c0,1.88.9,2.9,2.12,2.9,1.82,0,2.22-1.34,2.22-3s-.36-2.83-2.12-2.83c-1.37,0-2.22,1.09-2.22,3m5.63-7.42v9.07c0,.74,0,1.45,0,2.2h-1.3c0-.2-.06-.8-.06-1.1a2.45,2.45,0,0,1-2.45,1.29c-2,0-3.24-1.62-3.24-4s1.33-4.16,3.48-4.16c1.38,0,2,.56,2.2,1v-4.3Z"/><path id="Path_458" data-name="Path 458" class="cls-2" d="M147.17,94.63h-1.26c-1.55,0-2.38.43-2.38,1.53a1.36,1.36,0,0,0,1.33,1.4h.19c1.87,0,2.12-1.27,2.12-2.68Zm1.32,2.1a12.12,12.12,0,0,0,.1,1.7h-1.28a4,4,0,0,1-.13-1,2.45,2.45,0,0,1-2.41,1.2,2.36,2.36,0,0,1-2.6-2.08c0-.1,0-.2,0-.3,0-1.74,1.37-2.54,3.68-2.54h1.33V93c0-.69-.22-1.53-1.67-1.53s-1.53.65-1.67,1.26h-1.3c.1-1.08.77-2.32,3-2.31,1.9,0,3,.78,3,2.55Z"/><path id="Path_459" data-name="Path 459" class="cls-2" d="M151.65,94.57c0,1.88.9,2.9,2.11,2.9,1.83,0,2.23-1.34,2.23-3s-.36-2.83-2.12-2.83c-1.37,0-2.22,1.09-2.22,3m5.63-7.42v9.07c0,.74,0,1.45,0,2.2H156a10,10,0,0,1-.06-1.1,2.47,2.47,0,0,1-2.46,1.29c-2,0-3.23-1.62-3.23-4s1.33-4.16,3.48-4.16c1.38,0,2,.56,2.2,1v-4.3Z"/><path id="Path_460" data-name="Path 460" class="cls-2" d="M113.63,108.75c0,2.41-.95,3.27-2.74,3.27a4.81,4.81,0,0,1-1.13-.11v-1.18a6.63,6.63,0,0,0,1,.07c1.28,0,1.46-1,1.46-2v-7.62h1.41Z"/><path id="Path_461" data-name="Path 461" class="cls-2" d="M120.33,108.07h-1.26c-1.55,0-2.39.43-2.39,1.53A1.37,1.37,0,0,0,118,111a1.2,1.2,0,0,0,.19,0c1.88,0,2.13-1.27,2.13-2.68Zm1.31,2.1a12,12,0,0,0,.11,1.7h-1.29a4.38,4.38,0,0,1-.12-1,2.44,2.44,0,0,1-2.41,1.2,2.36,2.36,0,0,1-2.61-2.08c0-.1,0-.2,0-.3,0-1.74,1.36-2.54,3.68-2.54h1.33v-.66c0-.69-.22-1.53-1.68-1.53-1.3,0-1.52.65-1.66,1.26h-1.3c.1-1.08.77-2.32,3-2.31,1.9,0,3,.78,3,2.55Z"/><path id="Path_462" data-name="Path 462" class="cls-2" d="M124,106.19c0-1.09,0-1.7,0-2.11h1.32c0,.21,0,.83,0,1.59a2.77,2.77,0,0,1,2.63-1.78v1.34c-1.6,0-2.63.88-2.63,2.85v3.79H124Z"/><path id="Path_463" data-name="Path 463" class="cls-2" d="M130.1,108c0,1.88.9,2.9,2.12,2.9,1.82,0,2.22-1.34,2.22-3s-.36-2.83-2.11-2.83c-1.38,0-2.23,1.09-2.23,3m5.64-7.42v9.08c0,.73,0,1.45,0,2.2h-1.29a8.89,8.89,0,0,1-.07-1.11,2.44,2.44,0,0,1-2.45,1.29c-2,0-3.24-1.62-3.24-4s1.33-4.16,3.49-4.16c1.38,0,2,.56,2.2,1v-4.3Z"/><path id="Path_464" data-name="Path 464" class="cls-2" d="M138,104.08h1.35v7.79H138Zm3.62-3.65-2.35,2.36H138l2-2.36Z"/><path id="Path_465" data-name="Path 465" class="cls-2" d="M141.68,106c0-.68,0-1.36,0-2H143a10.79,10.79,0,0,1,.05,1.28,2.45,2.45,0,0,1,2.46-1.47c1.46,0,2.6.89,2.6,3v5h-1.35V107c0-1.18-.46-2-1.65-2-1.47,0-2.06,1.12-2.06,2.68v4.13h-1.34Z"/><path id="Path_466" data-name="Path 466" class="cls-1" d="M124.06,61V52.45q-8.62,2-12.36,5.19A10.75,10.75,0,0,0,108,66.21a8.86,8.86,0,0,0,2.13,6.13,6.85,6.85,0,0,0,5.35,2.39q4.94,0,7.93-5.6.69-1.29.69-8.17m20.53,12.37q0,2-4.12,4.14a17.06,17.06,0,0,1-7.95,2.16q-8,0-8.36-8.28Q119.75,80,110.47,80a11.72,11.72,0,0,1-8.24-3A9.89,9.89,0,0,1,99,69.36q0-9.55,11.44-15.16,3.93-1.86,13.64-3.73V47.55q0-10.26-1-13.53-1.87-6-8.4-6a10.48,10.48,0,0,0-6.83,2.22,6.9,6.9,0,0,0-2.74,5.6c0,.62.48.93,1.43.93a3.28,3.28,0,0,1,2.56,1.4,4.85,4.85,0,0,1,1.15,3.15q0,5.13-5.08,5.13a5.81,5.81,0,0,1-4.39-1.81A6.34,6.34,0,0,1,99,40.08a12.35,12.35,0,0,1,4.31-9.44q4.78-4.32,13.3-4.32,12.84,0,15.75,7,1,2.68,1,10.61V65.75c0,3.58,0,5.67.12,6.3.39,2.8,1.51,4.2,3.38,4.2a6.92,6.92,0,0,0,5.37-2.34c.77-.85,1.36-1.28,1.75-1.28s.58.23.58.7Z"/><path id="Path_467" data-name="Path 467" class="cls-1" d="M124.06,61V52.45q-8.62,2-12.36,5.19A10.75,10.75,0,0,0,108,66.21a8.86,8.86,0,0,0,2.13,6.13,6.85,6.85,0,0,0,5.35,2.39q4.94,0,7.93-5.6.69-1.29.69-8.17m20.53,12.37q0,2-4.12,4.14a17.06,17.06,0,0,1-7.95,2.16q-8,0-8.36-8.28Q119.75,80,110.47,80a11.72,11.72,0,0,1-8.24-3A9.89,9.89,0,0,1,99,69.36q0-9.55,11.44-15.16,3.93-1.86,13.64-3.73V47.55q0-10.26-1-13.53-1.87-6-8.4-6a10.48,10.48,0,0,0-6.83,2.22,6.9,6.9,0,0,0-2.74,5.6c0,.62.48.93,1.43.93a3.28,3.28,0,0,1,2.56,1.4,4.85,4.85,0,0,1,1.15,3.15q0,5.13-5.08,5.13a5.81,5.81,0,0,1-4.39-1.81A6.34,6.34,0,0,1,99,40.08a12.35,12.35,0,0,1,4.31-9.44q4.78-4.32,13.3-4.32,12.84,0,15.75,7,1,2.68,1,10.61V65.75c0,3.58,0,5.67.12,6.3.39,2.8,1.51,4.2,3.38,4.2a6.92,6.92,0,0,0,5.37-2.34c.77-.85,1.36-1.28,1.75-1.28s.58.23.58.7Z"/><path id="Path_468" data-name="Path 468" class="cls-2" d="M141.78.07c0,.24,0,.13.13.29-.16,0-.1,0-.21,0,.1.15.1,0,0,.17a.32.32,0,0,1-.28,0c-.14-.08-.1-.12-.26-.16V.57c-.1,0-.08,0-.2,0l0,.05c.05.14,0,.09,0,.28h.2c0,.15,0,.15-.16.17,0-.13,0-.08,0-.17h-.27c-.06-.09,0-.12-.24,0s-.34.09-.61.09c0,.2.06.15.16.29-.24.06-.2.14-.3.33l-.07.34c.41,0,.22,0,.33,0s.19-.13.33,0c0,.1-.16.06-.2.25a2.09,2.09,0,0,0-1,.12c.06.2.13.18.13.46-.76.36-2-.3-2.57.58h.16c-.06.09-.13.13-.17.2s0,.19-.16.26-.54-.05-.79-.05c-.08.12-.08.06-.12.21a.73.73,0,0,1,.25,0,.59.59,0,0,0,0,.37,2.85,2.85,0,0,0-.7.54c.14,0,.12,0,.16.17-.35.08-.45.34-.58.62h.33A.49.49,0,0,0,135,6a.74.74,0,0,0,.5.12.47.47,0,0,0,.08.33.59.59,0,0,0-.33.33.6.6,0,0,0-.7,0c.1.14.07,0,.17.17-.14.2-.43.23-.46.54a.72.72,0,0,1,.5,0,1.69,1.69,0,0,0,0,.5h.33a.43.43,0,0,1-.16.29c0-.13,0-.07,0-.17a.3.3,0,0,0-.33.21c-.16,0-.06,0-.21-.08l-.12.13a.46.46,0,0,0-.38,0c0,.16.15.19.25.33a.34.34,0,0,0-.22.07c-.14.1-.12.26-.19.39-.29.5.08.33.25.29v.12a1.76,1.76,0,0,0,.45-.12c-.07.19,0,0-.08.12-.26.38,0,.19-.34.4-.08,0-.21.21-.17.29s.22,0,.39,0c-.09.13-.33.47,0,.5a.67.67,0,0,0,0,.2c0,.17,0,.1.12.13-.07.1-.14.13-.13.22v.05c0,.1-.18.07-.24,0-.31-.14-.09.21-.16.36s-.12,0-.14.28c-.21,0-.17,0-.29.09a1.27,1.27,0,0,0-.29-.67c-.12.08-.15.15-.17.34h-.08c0-.17-.16-.21-.33-.21s0,.08,0,.25c-.18,0-.08,0-.21.08-.13-.2-.23-.08-.25-.33a1.86,1.86,0,0,0-.33,0,.51.51,0,0,0-.5-.29v.17c-.51,0-.43-.39-.85-.45-.13,0-.07,0-.11,0s0,0,0,.12-.17.16-.24.35c-.18.47-.47.19-1.13.19-.09.13-.11,0-.13.24.21,0,.17,0,.29.09-.06.25-.15.13,0,.41-.22.16-.8.44-.87.71.17,0,.17,0,.21.16a1,1,0,0,0-.7.79.67.67,0,0,1,.37,0c0,.19-.15.24,0,.35a.94.94,0,0,0,.52.1,1.25,1.25,0,0,0,.08.42.46.46,0,0,0-.37.37c-.27-.07-.44-.33-.87,0,.13.18.29.15,0,.33s-.39.22-.41.5c.17,0,.09,0,.25,0s.18,0,.37,0a1.34,1.34,0,0,0,0,.66,1.46,1.46,0,0,1,.41,0,2.19,2.19,0,0,0-.12.33c.3.07.86.21.4.53a.72.72,0,0,0-.28.47c-.14,0-.1,0-.2-.13a2.67,2.67,0,0,0-.46-.2c-.15-.08,0-.1-.25-.13-.12.51.14.63.33,1h-.37a.41.41,0,0,0,.19.35l.2.09a.44.44,0,0,0,.23,0l0,.6c.07.15.16.18.28.27s-.08.1.14.3a.87.87,0,0,0,.18.11c-.24.36-.38.28-.69.15a1.25,1.25,0,0,0-.47-.07c-.12.23,0,.21-.29.33.06.08.09.07.13.17s0,0-.06.07L127,21l-.09.2c0,.16-.09.32-.13.49a.66.66,0,0,0-.5,0c.1.37.13,0,.13.79-.35,0-.31.17-.47.36s-.31.19-.32.55c.22,0,.23,0,.42,0a1.88,1.88,0,0,0,0,.33.46.46,0,0,1,.25-.08,1.07,1.07,0,0,1-.08.58,2,2,0,0,1,.33-.09,1.46,1.46,0,0,0-.16.79c.26-.06.23-.35.45-.41,0,.17,0,.13,0,.25.54-.13.17,0,.17.58a4.79,4.79,0,0,1,1,0l0,.41a1.28,1.28,0,0,0,.66-.18c.17-.12.26-.29.43-.4-.06.23-.1.22,0,.45.16,0,.15-.11.29-.2l0,.45H129c0,.1.06.19.08.29-.13,0-.09,0-.12.13-.32,0-.35,0-.57.1s-.24.18-.16.25a11.26,11.26,0,0,1,6,6v0a17.37,17.37,0,0,1,.88,4.39q.24,2.44.27,5.85h.05a1.17,1.17,0,0,1-.05.2v1.6l.29-.22,0,.17c.25,0,.45-.22.66-.33,0,.12.05.25.08.37.27,0,.23-.12.42-.25l.21.2c.5.39.37-.08.37-.2.25.17.34.38.5.42a1.94,1.94,0,0,0,0-.83h.17a.63.63,0,0,0-.42-.62.6.6,0,0,0,.08-.21c.17,0,.09,0,.23.15l.27.14c.13-.09.07,0,.09-.17a2.43,2.43,0,0,0,.38.33l.28.21c.07.06,0,.05.12.09.12-.25.08-.5.21-.75l.46,0c0-.15,0-.14,0-.24a2.28,2.28,0,0,1,0-.26c.3,0,.17-.08.41,0,0,.18,0,.16,0,.25s.09.24.12.38c.2-.06.22-.28.46-.34,0,0,1.76-.48,1.91-1.45s0-.22.08-.37c-.12-.06-.2,0-.25-.17.22-.18.52.16.67.17,0-.2.06-.14.16-.29a1.85,1.85,0,0,0-.21-.33c.23,0,.15.08.25.29.14-.1,0-.07.17-.17a1.36,1.36,0,0,0,.66.08c-.07-.13,0-.11-.16-.2.1-.14.2.17.2-.29a.5.5,0,0,1,.34,0c0,.36-.12.32,0,.62l.34-.28c.16-.15.26,0,.28-.3h.08a.36.36,0,0,0,.38.33c0-.06,0,0,0-.09s0,0,0-.08l.08,0h0a.45.45,0,0,0,.43.08c.11,0,.06,0,.1-.11.11,0,.47.25.22-.09a1,1,0,0,0-.43-.32v-.17c.15,0,.12-.07.29-.08,0-.19,0-.11-.12-.25l.29-.08c0-.27-.13-.32-.32-.44s-.07-.06-.14-.1c-.28,0-.3.1-.58,0a.92.92,0,0,1,0-.29c.33-.16.24,0,.22-.34,0-.16,0-.07,0-.24s-.13-.07-.17-.21c.24-.06.37-.33.75-.08.13-.1.07,0,.08-.17a.83.83,0,0,1,.16.09c.15.12.23.19.3-.05h.08c0,.14,0,.16.12.21s.06,0,.25.05.12,0,.2-.23l.05-.11a.46.46,0,0,0,.25.08.72.72,0,0,0,0-.21c.19.15,0,.25.41.34,0,.25,0,.44.25.5,0,.14-.1.28.08.33a1.06,1.06,0,0,0-.2.46c.06,0,0,0,.08,0h.08a1.76,1.76,0,0,0,.13.5c.14,0,.09,0,.16-.13s0,0,0,0l0,0c.08,0-.08,0,.13,0a.94.94,0,0,0,.12-.22c0-.11,0,0,0-.12s0-.06.09-.12a1.76,1.76,0,0,0,.5.13c0,.11.06.62.23.48l0,0,0,0,0,0c.06.26.15.3.21.54.14,0,.06,0,.16-.1s.13.09.24-.08a.29.29,0,0,0,.05-.2c.24.11.25-.09.25-.33h.09c0,.25,0,.48.25.33,0,.19-.05.07.08.17l0,0,0,0,.15-.1c.06-.05.12-.11.18-.15s.06.08.21.12c.05-.23.06-.15.23-.27s.06-.1.39-.1c0-.24-.06-.06-.08-.29.13.05.13.16.25.25.11-.09.12-.18.12-.38.1.07,0,.06.17.09,0-.2,1.58-.55,1.74-.58v.16c.15,0,.32-.17.35-.15l.14,0h0s.1.17.11-.16h.17l.08-.17c.09.25.17.09.21.09s0,0,.16,0c0-.22,0-.4-.21-.46v-.08c.14,0,0,0,.14-.07s.23-.18.24.11c.21,0,.3-.17.42,0s0,0,0,.22l.17.25.09-.08.32-.17a.22.22,0,0,0,.21.2V38l.12.09c0-.34,0-.13.1-.29s-.07-.13.11-.09c0-.13,0-.12-.14-.18l.27-.11c.18,0,.08,0,.19.06l0,0,.18.19c.1.07.07,0,.12.13h.08c0-.14.25-.2.44-.39l.18-.11c0,.18-.07.67.15.53s0-.1.23-.11c0,0,1.4-1.31,1.78-1.16s.29-.05.52-.11l.1-.06.09.12c.14,0,0,0,.2-.08,0,.18.12.12.33.17.05-.11,0-.08,0-.21.18,0,.05,0,.25,0,0-.22,0-.06,0-.12,0,.17.06.11.17.2s0,.05.08.16a1.43,1.43,0,0,1,.15.39c0,.18-.05.12-.07.32.13,0,0,0,.11.14a1.17,1.17,0,0,1,.06.2l.13,0c.14,0,.11.1.2-.11l.08-.18a.5.5,0,0,0,.33.09c0,.11,0,.37.14.33l.07,0a6.32,6.32,0,0,0,1,.13c.16,0,.66-.38.62-.46.11,0,.08,0,.12.16.17,0,.11-.15.29-.25a1.14,1.14,0,0,1-.08-.33c0-.13.07-.07,0-.21s-.08-.1-.17-.12c.09-.12.11,0,.16-.17.3.07.36.17.25-.29.06,0,.16-.16.21-.16s.62.3.64.08a.45.45,0,0,1,0-.2s0,0,0-.13c.24,0,.16.12.34.2s.18,0,.41,0,0,0,.12,0c-.06.24-.25.18-.25.58l.3,0c0,.25-.09.43.14.27s0,0,.06-.06.11.08.17.08.11-.08.37-.08c0,.12,0,.09.13.12-.06.24-.15.07-.17.33h.33a1.74,1.74,0,0,0-.12.5c.23,0,.3-.08.41-.08s.08,0,.25,0c0,.16,0,.15-.1.28-.23.52.27.07.38.12s0,.25,0,.43h.17c-.16.29-.34.2-.34.62,0,.22.15.05.34,0-.1.4,0,.24,0,.5h.12c0-.1.2.43.17.83l.24,0c-.11.16-.15.07-.16.33.17,0,.45.06.62.08a1.55,1.55,0,0,0,0,.21c.27,0,.54-.26.58,0a.85.85,0,0,0,.08.42c.12-.08.19-.23.29-.33.36.1.14.22.63,0,0,.12,0,.06.08.12a.49.49,0,0,1,.21-.08c-.1.18-.12.27.08.41,0-.1.1-.07.23-.1a.52.52,0,0,0,.23-.1.93.93,0,0,0,.58.2v-.37a.41.41,0,0,0,.29.08c0-.11,0-.22,0-.33.17-.09.15,0,.08-.3s0,0,0-.14-.06-.33.16-.39a.82.82,0,0,0,0,.35c.05.12.26.08.42.24s.08.12.22.16a1.57,1.57,0,0,0,.08-.29c.14.08,0,.06.21.08a1.23,1.23,0,0,0,.08-.37c.07,0-.07,0,.13,0,0-.32-.17-.42-.17-.58s.07-.13.13-.21l0,0a.8.8,0,0,0-.09.3.69.69,0,0,0,.25,0,1.18,1.18,0,0,0,.09.37.3.3,0,0,0,.24-.25c.56.3.35.17.63,0a.9.9,0,0,1,.08.21h.12c.1-.39.1.06.09-.54h.2c0-.24-.31-.4-.53-.41l0-.17c-.09-.16,0,.09-.09-.12a1.51,1.51,0,0,1,.42-.05c.16-.24,0-.12.29-.24,0-.11-.05-.39,0-.42s.06,0,.21,0c0-.22,0,0-.05-.19s0,0,0-.18c.3,0,.27,0,.39.07a.61.61,0,0,0,.14.11l.18.11,0,.41c0,.16,0,0,0,.13.18-.05.1-.11.33-.17l0,.17.25-.05.1.49c.05.19.13.22.35.22.07-.29.25-.21.25-.58.14.09,0,.07.21.09,0-.19.05-.14,0-.33a1.43,1.43,0,0,0-.16-.3l.16-.13a1.11,1.11,0,0,1,.08.3c.13,0,.12,0,.19-.1l0,0c0,.17,0,.08.14.2s0,.1.11.26c.22-.06.15-.15.28-.26s.28,0,.3-.28c.07.05.21.29.29.29s.14-.06.25-.08c0,.17-.06.15,0,.29.3-.16.21-.43.29-.59l.07-.1c0-.19,0-.05,0-.1h.17V37.8c0-.23,0,.11,0-.06a0,0,0,0,0,0,0v0l.37.25c.08-.35.28-.8-.21-.91.12-.2-.14-.25.17-.25,0,.32.48.72.37.25a1.07,1.07,0,0,1,.22.15c.12.11.06.12.24.14a1.88,1.88,0,0,0,0-.41c-.11-.53,0-.1,0-.3s-.2-.26-.33-.29c.06-.22.49-.42-.08-.42-.15,0-.41.21-.63-.08.17,0,.13,0,.17-.12a.57.57,0,0,0-.46,0s0,0,0,0l.14-.15c0-.18-.26-.21-.41-.25V35c-.18,0-.08,0-.29,0,0-.33-.09-.45-.09-.74-.2,0-.07,0-.18-.1l0,0c-.13-.13,0-.09,0-.22s-.1-.1-.22-.1a.8.8,0,0,0,0-.21c.23,0,.07,0,.15,0s.18.11.22-.13l0-.15c0-.1-.14-.19-.21-.29.16,0,.16-.11.29-.21.22.17.21.52.46.09l.15-.3a1.3,1.3,0,0,0,0-.78c.31,0,.55.14.7-.16a1,1,0,0,1,.28.18c.1.1.1.18.22.27a.78.78,0,0,0,.2-.82c-.12-.55.05-.22.05-.71.23,0,.4,0,.45-.13v-.2a2.34,2.34,0,0,0-.23-.51c-.06-.11-.12-.19-.18-.28l-.21-.29c.26-.38.58,0,.58-.54s-.43-.86-.5-1.12h-.08c0,.15,0,.09-.13.17l-.15-.19a2.72,2.72,0,0,0-1.05-.48c.05-.11,0,0,0-.2.16,0,.13.06.17.24l.08-.2c.32,0,.39,0,.21-.29.52-.28.2-.19.16-.59-.19,0-.07,0-.16-.08a1.77,1.77,0,0,1,.33-.08c-.06-.09,0-.05-.12-.09s.06-.1.08-.14,0,0,0-.1c.22,0,.23,0,.41,0l-.21-.24a1.58,1.58,0,0,1,.38-.05c-.08-.12-.07-.09-.17-.17s0,0-.08-.16l-.41,0a.47.47,0,0,0-.5-.33,2,2,0,0,1,.41-.58c-.2-.3-.75-.06-1,.06l-.2.14c-.11.06-.13-.05-.15.17-.29-.2-.24-.4-.74-.41a1.13,1.13,0,0,0-.09-.63c-.2.06-.1.13-.41.13,0-.4-.27-.11-.13-.71.08,0,.34.34.38.34s.28-.47.29-.67a4.26,4.26,0,0,0,.54.17,1.28,1.28,0,0,0-.11-.64c0-.08-.1-.12-.1-.15,0-.32.35,0,.24-.4l-.2-.55c.55,0,.48-.74.79-.83v-.12h-.21c0-.09.17-.2.17-.25,0-.27-.43-.41-.71-.41,0-.22.08-.13.09-.38a.91.91,0,0,1-.63-.21.5.5,0,0,1,.5-.36c.29,0,.37-.06.06-.53-.08-.13-.2-.24-.27-.35.24,0,.3-.09.21-.29.16,0,.1,0,.21,0-.17-.72-.65-.8-1.23-1a.9.9,0,0,0-.27-.07.37.37,0,0,0,0-.38.25.25,0,0,0-.17-.16c.09-.13.1-.05.12-.25a1.63,1.63,0,0,0-.54-.12c-.25,0-.25.09-.25-.21,0-.08.21-.51-.25-.25a1,1,0,0,0-.21.21.47.47,0,0,1-.09.12l-.05.07c-.25.27-.57-.31-.77-.31s-.17.26-.23.34,0,0,0,.08a1,1,0,0,0,0,.24,2.07,2.07,0,0,0-.62-.29V15a.78.78,0,0,1,.21,0,.72.72,0,0,0-.13-.38,1.19,1.19,0,0,0,.29-.21c.17-.14.14-.08.25-.29a1.43,1.43,0,0,0-.58-.12c.08-.33,0-.33-.29-.33,0-.44.33-.59.33-.91s-.19-.13-.29-.09c0-.38-.12-.44-.12-.74-.36,0-.18.5-.51.1-.1-.13-.22-.28-.4-.26s.08.1-.22,0c0-.16.08-.12.17-.25-.15-.09-.26,0-.41,0,0-.39-.28-.15-.34.08-.21-.1-.23.06-.29-.16s0-.07,0-.21,0,0-.08-.17c.23,0,.15-.07.33-.12a.63.63,0,0,0,.21.37c.14-.07.12,0,.16-.21a.41.41,0,0,1,.3.12.64.64,0,0,0,.37.13.84.84,0,0,0,.08-.41.57.57,0,0,1,.13.08c.11.07,0,.05.16.08a1.26,1.26,0,0,0,.08-.58c.19,0,.2,0,.21-.16a.42.42,0,0,1,.18.11c.13.12,0,.08.2.1a1.23,1.23,0,0,0-.25-.75.41.41,0,0,1,.29-.08c-.11-.47-.8-.52-1-.76l0,0-.07-.14h.17c0-.38-.64-.48-.92-.41.12-.25-.25-.33-.45-.33.38-.53.78,0,.66-.5.11,0,.05,0,.21,0V7.5a.75.75,0,0,0,.29.09c.14,0,.12-.07.25-.13l.12,0a.4.4,0,0,0-.33-.17l.12-.12a1.4,1.4,0,0,0,.24-.47c.07-.17.08,0,.09-.24-.51-.12-.56.27-.87.29a.74.74,0,0,1,0-.29c-.27,0-.09,0-.3.09-.27-.24-.21-.39-.74-.24-.25.07-.09,0-.25,0s-.23.14-.33.21c0-.19,0-.35,0-.46,0-.39-.22-.4-.41-.12l-.24-.13s-.05-.07-.06-.1c-.13-.2-.2-.12-.32-.27l.62-.21A.54.54,0,0,0,173,5c-.13-.11-.11,0-.26-.11.06,0-.08,0,.12,0-.08-.18.12-.35.13-.62h-.33c0-.48.33-.39.12-.7.51-.14,0-.58-.45-.37l-.22.08s0,0,0,0l.27-.23a.54.54,0,0,0-.25-.09,2,2,0,0,1,.25-.7c-.12-.06-.08,0-.25,0,0-.16.21-.34,0-.32s-.27.18-.35.23c0-.67-.28-.71-.29-1.11-.28,0-.38.32-.44.56a1,1,0,0,0,.1.76H171a.86.86,0,0,0-.29-.78l-.2.17c-.32-.47-.28-.25-.55-.46s-.11-.28-.24-.38a.51.51,0,0,0-.17.42c-.18-.12-.28-.31-.58-.34l.21-.33a1.07,1.07,0,0,0-1,.13c0-.17-.38-.36-.38-.13s0,.05,0,.17c-.21,0-.4-.07-.52,0s-.06.11-.19.14-.13,0-.28.06a1.32,1.32,0,0,0-.79-.29c0,.23,0,.13.13.29-.17.09-.24,0-.25.25a.35.35,0,0,1,.29.29c-.24.15-.67.05-1,.14s-.18.06-.19.23a.65.65,0,0,1,.2,0c-.09.13-.06,0-.17.16a.55.55,0,0,0-.16.3l.25,0c0,.11.11.15.12.29a1,1,0,0,0-.58.37l-.7-.12a1.54,1.54,0,0,1,.17-.42c0-.34-.79-.5-1.12-.5V2.2a2.58,2.58,0,0,0-1.08.37c0-.1,0,0,0-.08s0,0,0-.08a.59.59,0,0,1,.33-.17c0-.18,0-.17-.21-.21a1.86,1.86,0,0,0,0-.33c-.57-.13-.5.25-1.33.25.37-.54.27-.18.17-.54.18-.06.21-.32.21-.5l-.5.13a5.07,5.07,0,0,1-.09-.54c-.17,0-.14,0-.24.09a1,1,0,0,0-.3.7c0,.08.06.13.08.25-.55,0-.3-.1-.74.2,0-.1-.07-.11-.15-.18-.47-.35-.15.23-.5.14a1.38,1.38,0,0,1-.27-.08.72.72,0,0,1-.12-.21c.56,0,.56,0,.17-.58a1.76,1.76,0,0,1,.37-.17c-.08-.33-.5-.22-.62-.41s0,.08,0-.25"/><rect id="Rectangle_97" data-name="Rectangle 97" class="cls-3" x="167.66" y="0.65" width="0.17" height="0.04"/><path id="Path_469" data-name="Path 469" class="cls-4" d="M145.14,40.29l0,0Z"/><path id="Path_470" data-name="Path 470" class="cls-4" d="M145.23,40.25h0S145.22,40.26,145.23,40.25Z"/><path id="Path_471" data-name="Path 471" class="cls-4" d="M154.68,36.89h0Z"/><path id="Path_472" data-name="Path 472" class="cls-4" d="M129.88,25.12h-.12c0-.22,0-.12.08-.21S130,24.94,129.88,25.12Z"/><path id="Path_473" data-name="Path 473" class="cls-4" d="M127.48,20.89V21c-.16,0-.13,0-.2-.12l.1,0h.11Z"/><path id="Path_474" data-name="Path 474" class="cls-4" d="M178.82,15.12c0-.06,0-.09.08.08l0,0C178.72,15,179,15.18,178.82,15.12Z"/><path id="Path_475" data-name="Path 475" class="cls-4" d="M133.49,12.05c.13.1.07,0,.08.17,0,0,0,0,0-.07S133.51,12.08,133.49,12.05Z"/><path id="Path_476" data-name="Path 476" class="cls-4" d="M175.08,12h0Z"/><path id="Path_477" data-name="Path 477" class="cls-4" d="M135.15,10.52c0,.07.22.5,0,.5s-.15,0-.29-.08C135.08,10.54,134.91,10.54,135.15,10.52Z"/><path id="Path_478" data-name="Path 478" class="cls-4" d="M134.4,10.9a1.38,1.38,0,0,1,.25-.17l0,.16s-.08-.11-.26,0Z"/><path id="Path_479" data-name="Path 479" class="cls-4" d="M174.54,8.45l.21,0C174.66,8.54,174.65,8.59,174.54,8.45Z"/><path id="Path_480" data-name="Path 480" class="cls-4" d="M135.4,8.28h0S135.39,8.28,135.4,8.28Z"/><rect id="Rectangle_98" data-name="Rectangle 98" class="cls-5" x="167.66" y="0.65" width="0.17" height="0.04"/><path id="Path_481" data-name="Path 481" class="cls-2" d="M145.14,40.29l0,0Z"/><path id="Path_482" data-name="Path 482" class="cls-2" d="M145.23,40.25h0S145.22,40.26,145.23,40.25Z"/><path id="Path_483" data-name="Path 483" class="cls-2" d="M154.68,36.89h0Z"/><path id="Path_484" data-name="Path 484" class="cls-2" d="M129.88,25.12h-.12c0-.22,0-.12.08-.21S130,24.94,129.88,25.12Z"/><path id="Path_485" data-name="Path 485" class="cls-2" d="M127.48,20.89V21c-.16,0-.13,0-.2-.12l.1,0h.11Z"/><path id="Path_486" data-name="Path 486" class="cls-2" d="M178.82,15.12c0-.06,0-.09.08.08l0,0C178.72,15,179,15.18,178.82,15.12Z"/><path id="Path_487" data-name="Path 487" class="cls-2" d="M133.49,12.05c.13.1.07,0,.08.17,0,0,0,0,0-.07S133.51,12.08,133.49,12.05Z"/><path id="Path_488" data-name="Path 488" class="cls-2" d="M175.08,12h0Z"/><path id="Path_489" data-name="Path 489" class="cls-2" d="M135.15,10.52c0,.07.22.5,0,.5s-.15,0-.29-.08C135.08,10.54,134.91,10.54,135.15,10.52Z"/><path id="Path_490" data-name="Path 490" class="cls-2" d="M134.4,10.9a1.38,1.38,0,0,1,.25-.17l0,.16s-.08-.11-.26,0Z"/><path id="Path_491" data-name="Path 491" class="cls-2" d="M174.54,8.45l.21,0C174.66,8.54,174.65,8.59,174.54,8.45Z"/><path id="Path_492" data-name="Path 492" class="cls-2" d="M135.4,8.28h0S135.39,8.28,135.4,8.28Z"/><path id="Path_493" data-name="Path 493" class="cls-6" d="M159.33,37.35l-.19.11c-.19.18-.4.25-.44.39h-.08c0-.18,0-.07-.11-.14l-.19-.19,0,0c-.1-.06,0,0-.19-.06l-.27.11c.12.06.12.05.15.18-.19,0-.06,0-.12.09s-.09-.05-.1.29l-.12-.09v.17a.22.22,0,0,1-.2-.21l-.32.18a.46.46,0,0,0-.1.07l-.16-.25c0-.17.06-.13,0-.22s-.2,0-.42,0c0-.29-.08-.23-.24-.11s0,0-.13.07v.08c.22.06.19.24.21.46-.12,0-.08,0-.17,0s-.12.16-.21-.08l-.08.16h-.17v.11c0,.57-.08,1.13-.1,1.66A15.31,15.31,0,0,1,154,46.16a12.39,12.39,0,0,1-1.23-2.3A12.09,12.09,0,0,1,152,41c0-.2-.11-.72-.18-1.29h0l-.15.1,0,0s0,0,0,0-.07,0-.09-.17c-.27.15-.25-.08-.25-.33h-.08c0,.25,0,.45-.25.33a.26.26,0,0,1,0,.2c-.12.17-.11,0-.25.08s0,.06-.16.1a1,1,0,0,0-.05-.16l0,.32A23.94,23.94,0,0,0,152.06,47a6.35,6.35,0,0,1,.82,3.22c-.67,3.56-.26,5.45-.23,8.93l0,1.12c0,2.19,0,14.39-.45,16.53a7.66,7.66,0,0,0-.21,1,6,6,0,0,0,2.17.78h.66a3.64,3.64,0,0,0,.91-.21c.27-.1.65-.4.82-.44,0-1-1.12-16.9-1.24-19.25,0-.57-.09-1.16-.13-1.77l-.1-1.84a2.74,2.74,0,0,1,.33-1.51c.91-2.37,2-4.92,2-7.58l.19-3.69a17.16,17.16,0,0,1,.57-3.25c.18-.55.27-.47.93-.93l.31-.22a1.45,1.45,0,0,1,0-.51"/></g></g></g></svg>