<svg xmlns="http://www.w3.org/2000/svg" width="47.056" height="47.056" viewBox="0 0 47.056 47.056"><path d="M40.008,9.088a23.326,23.326,0,0,0-36.7,28.139L0,49.306l12.363-3.246A23.247,23.247,0,0,0,23.507,48.9h.011A23.542,23.542,0,0,0,47.056,25.579,23.41,23.41,0,0,0,40.008,9.088ZM23.518,44.968a19.347,19.347,0,0,1-9.873-2.7l-.7-.42L5.609,43.771l1.954-7.153L7.1,35.883a19.419,19.419,0,1,1,36.017-10.3A19.6,19.6,0,0,1,23.518,44.968Zm10.63-14.516c-.578-.294-3.445-1.7-3.981-1.891s-.924-.294-1.313.294-1.5,1.891-1.849,2.29-.683.441-1.26.147c-3.424-1.712-5.672-3.057-7.93-6.932-.6-1.029.6-.956,1.712-3.183a1.08,1.08,0,0,0-.053-1.019c-.147-.294-1.313-3.162-1.8-4.327-.473-1.134-.956-.977-1.313-1-.336-.021-.725-.021-1.113-.021a2.158,2.158,0,0,0-1.555.725A6.547,6.547,0,0,0,11.659,20.4c0,2.867,2.09,5.64,2.374,6.029s4.107,6.271,9.957,8.8c3.7,1.6,5.147,1.733,7,1.46,1.124-.168,3.445-1.407,3.928-2.773a4.873,4.873,0,0,0,.336-2.773C35.114,30.883,34.725,30.736,34.147,30.452Z" transform="translate(0 -2.25)" fill="#8fcb5d"/></svg>